<svg width="21" height="21" viewBox="0 0 21 21" fill="none" xmlns="http://www.w3.org/2000/svg">
<path d="M8.94018 4.07994C9.29095 4.02617 9.64532 3.99943 10.0002 3.99994C13.1802 3.99994 16.1702 6.28994 17.9102 9.99994C17.6441 10.5645 17.3435 11.1122 17.0102 11.6399C16.9044 11.8038 16.8487 11.9949 16.8502 12.1899C16.8524 12.4082 16.926 12.6197 17.0596 12.7922C17.1933 12.9647 17.3798 13.0888 17.5905 13.1455C17.8013 13.2021 18.0248 13.1883 18.227 13.106C18.4291 13.0238 18.5988 12.8776 18.7102 12.6899C19.1761 11.9579 19.5808 11.1886 19.9202 10.3899C19.9738 10.2652 20.0015 10.1308 20.0015 9.99494C20.0015 9.85912 19.9738 9.72472 19.9202 9.59994C17.9002 4.90994 14.1002 1.99994 10.0002 1.99994C9.53085 1.99758 9.06227 2.03774 8.60019 2.11994C8.46886 2.14227 8.34322 2.19024 8.23044 2.26112C8.11766 2.332 8.01994 2.4244 7.94287 2.53304C7.8658 2.64169 7.81088 2.76445 7.78125 2.89432C7.75162 3.02419 7.74786 3.15862 7.77018 3.28994C7.79251 3.42126 7.84048 3.5469 7.91136 3.65968C7.98224 3.77247 8.07464 3.87018 8.18329 3.94726C8.29193 4.02433 8.41469 4.07925 8.54456 4.10888C8.67443 4.13851 8.80886 4.14227 8.94018 4.11994V4.07994ZM1.71019 0.289941C1.61695 0.196703 1.50626 0.122742 1.38443 0.0722815C1.26261 0.0218212 1.13204 -0.00415039 1.00019 -0.00415039C0.868326 -0.00415039 0.737758 0.0218212 0.615936 0.0722815C0.494114 0.122742 0.383424 0.196703 0.290185 0.289941C0.101882 0.478245 -0.00390625 0.73364 -0.00390625 0.999941C-0.00390625 1.26624 0.101882 1.52164 0.290185 1.70994L3.39019 4.79994C1.97576 6.16147 0.850042 7.79393 0.0801853 9.59994C0.025122 9.72611 -0.00329947 9.86228 -0.00329947 9.99994C-0.00329947 10.1376 0.025122 10.2738 0.0801853 10.3999C2.10019 15.0899 5.90019 17.9999 10.0002 17.9999C11.7973 17.9875 13.552 17.4524 15.0502 16.4599L18.2902 19.7099C18.3831 19.8037 18.4937 19.8781 18.6156 19.9288C18.7375 19.9796 18.8682 20.0057 19.0002 20.0057C19.1322 20.0057 19.2629 19.9796 19.3848 19.9288C19.5066 19.8781 19.6172 19.8037 19.7102 19.7099C19.8039 19.617 19.8783 19.5064 19.9291 19.3845C19.9798 19.2627 20.006 19.132 20.006 18.9999C20.006 18.8679 19.9798 18.7372 19.9291 18.6154C19.8783 18.4935 19.8039 18.3829 19.7102 18.2899L1.71019 0.289941ZM8.07018 9.47994L10.5202 11.9299C10.3512 11.9784 10.176 12.002 10.0002 11.9999C9.46975 11.9999 8.96104 11.7892 8.58597 11.4142C8.2109 11.0391 8.00019 10.5304 8.00019 9.99994C7.99814 9.82413 8.02172 9.64895 8.07018 9.47994ZM10.0002 15.9999C6.82018 15.9999 3.83019 13.7099 2.10019 9.99994C2.74627 8.57369 3.66326 7.28652 4.80019 6.20994L6.57019 7.99994C6.15443 8.75874 5.99592 9.63189 6.11844 10.4884C6.24096 11.3449 6.6379 12.1386 7.24971 12.7504C7.86152 13.3622 8.65522 13.7592 9.51173 13.8817C10.3682 14.0042 11.2414 13.8457 12.0002 13.4299L13.5902 14.9999C12.5013 15.6408 11.2636 15.9856 10.0002 15.9999Z" fill="black"/>
</svg>
