<svg width="38" height="38" viewBox="0 0 38 38" fill="none" xmlns="http://www.w3.org/2000/svg">
<rect width="38" height="38" rx="10" fill="black"/>
<path d="M6 10.5C5.72386 10.5 5.5 10.7239 5.5 11C5.5 11.2761 5.72386 11.5 6 11.5V10.5ZM16 11.5H16.5V10.5H16V11.5ZM6 11.5H16V10.5H6V11.5Z" fill="white"/>
<path d="M23 10.5H22.5V11.5H23V10.5ZM33 11.5C33.2761 11.5 33.5 11.2761 33.5 11C33.5 10.7239 33.2761 10.5 33 10.5V11.5ZM23 11.5H33V10.5H23V11.5Z" fill="white"/>
<circle cx="19.5" cy="10.5" r="3" stroke="white"/>
<path d="M6 19.5C5.72386 19.5 5.5 19.7239 5.5 20C5.5 20.2761 5.72386 20.5 6 20.5V19.5ZM23 20.5H23.5V19.5H23V20.5ZM6 20.5H23V19.5H6V20.5Z" fill="white"/>
<path d="M33 20.5C33.2761 20.5 33.5 20.2761 33.5 20C33.5 19.7239 33.2761 19.5 33 19.5V20.5ZM30 19.5H29.5V20.5H30V19.5ZM33 19.5H30V20.5H33V19.5Z" fill="white"/>
<circle cx="26.5" cy="19.5" r="3" stroke="white"/>
<path d="M6 28.5C5.72386 28.5 5.5 28.7239 5.5 29C5.5 29.2761 5.72386 29.5 6 29.5V28.5ZM11 29.5H11.5V28.5H11V29.5ZM6 29.5H11V28.5H6V29.5Z" fill="white"/>
<path d="M33 29.5C33.2761 29.5 33.5 29.2761 33.5 29C33.5 28.7239 33.2761 28.5 33 28.5V29.5ZM18 28.5H17.5V29.5H18V28.5ZM33 28.5L18 28.5V29.5L33 29.5V28.5Z" fill="white"/>
<circle cx="14.5" cy="28.5" r="3" stroke="white"/>
</svg>
