<svg width="450" height="450" viewBox="0 0 450 450" fill="none" xmlns="http://www.w3.org/2000/svg">
<path d="M305.241 170.81C304.592 171.344 305.292 172.421 306.022 172.183C307.206 171.684 308.486 171.451 309.77 171.502C311.055 171.553 312.312 171.886 313.453 172.477C314.323 173.038 314.986 173.867 315.341 174.84C315.696 175.813 315.722 176.875 315.417 177.864C314.602 180.175 311.649 180.662 309.629 181.47C308.463 181.8 307.396 182.409 306.518 183.245C305.641 184.08 304.981 185.116 304.594 186.264C304.498 186.673 304.563 187.102 304.777 187.463C304.99 187.824 305.336 188.088 305.74 188.2C306.144 188.312 306.576 188.262 306.945 188.062C307.313 187.862 307.59 187.526 307.716 187.126C308.807 184.411 312.589 184.078 314.853 182.862C316.149 182.21 317.206 181.169 317.878 179.884C318.549 178.599 318.8 177.135 318.595 175.7C318.357 174.275 317.745 172.938 316.822 171.826C315.899 170.714 314.698 169.866 313.341 169.369C311.984 168.872 310.519 168.744 309.097 168.997C307.674 169.25 306.343 169.875 305.241 170.81Z" fill="#191919"/>
<path d="M306.246 192.524C306.073 192.519 305.9 192.55 305.739 192.615C305.578 192.68 305.432 192.777 305.31 192.901C305.188 193.025 305.093 193.172 305.03 193.335C304.968 193.497 304.94 193.67 304.947 193.844C304.944 194.109 305.021 194.369 305.169 194.59C305.317 194.81 305.528 194.98 305.775 195.078C306.022 195.175 306.293 195.195 306.551 195.135C306.81 195.075 307.044 194.938 307.223 194.741C307.392 194.551 307.503 194.315 307.542 194.063C307.582 193.811 307.548 193.553 307.445 193.32C307.343 193.086 307.175 192.887 306.962 192.746C306.75 192.605 306.501 192.528 306.246 192.524Z" fill="#191919"/>
<path d="M348.777 157.776C348.192 156.921 346.638 155.642 346.652 153.981C346.971 152.215 347.761 150.568 348.939 149.214C350.054 147.745 350.695 145.971 350.775 144.129C350.855 142.287 350.371 140.464 349.388 138.904C348.358 137.36 346.889 136.16 345.17 135.461C343.451 134.761 341.562 134.593 339.746 134.978C337.931 135.364 336.273 136.285 334.987 137.623C333.701 138.961 332.846 140.654 332.533 142.483C332.476 142.722 332.515 142.974 332.64 143.185C332.765 143.396 332.966 143.551 333.203 143.617C333.439 143.683 333.692 143.655 333.908 143.54C334.125 143.424 334.288 143.228 334.364 142.995C334.917 141.396 335.943 140.003 337.306 139.001C338.668 137.999 340.304 137.435 341.995 137.384C343.535 137.492 344.983 138.155 346.072 139.249C347.162 140.342 347.818 141.794 347.92 143.334C348.057 146.593 344.881 148.981 343.88 151.95C343.494 153.16 343.453 154.454 343.762 155.686C344.071 156.918 344.718 158.039 345.631 158.923C346.256 159.61 347.088 160.073 348.001 160.243C348.164 160.284 348.336 160.281 348.498 160.236C348.661 160.191 348.808 160.105 348.928 159.985C349.047 159.866 349.133 159.718 349.178 159.555C349.223 159.393 349.225 159.222 349.184 159.058C349.089 158.619 348.953 158.19 348.777 157.776Z" fill="#191919"/>
<path d="M353.338 165.3C353.237 165.034 353.056 164.805 352.821 164.644C352.586 164.484 352.307 164.399 352.023 164.402C351.701 164.418 351.394 164.539 351.147 164.745C350.899 164.951 350.726 165.232 350.652 165.546C350.579 165.859 350.609 166.188 350.738 166.483C350.867 166.778 351.089 167.023 351.37 167.18C352.451 167.939 353.778 166.44 353.338 165.3Z" fill="#191919"/>
<path d="M403.06 135.001C404.954 127.733 399.424 119.582 391.642 119.627C388.276 119.645 383.648 121.588 383.08 125.388C383.026 125.62 383.056 125.864 383.165 126.075C383.274 126.287 383.455 126.453 383.675 126.544C383.895 126.635 384.141 126.644 384.367 126.571C384.594 126.497 384.787 126.345 384.911 126.142C391.326 117.014 404.649 127.062 398.912 136.643C396.988 139.855 393.424 140.827 390.271 142.432C387.394 143.895 382.975 147.695 384.777 151.398C385.351 152.579 386.9 152.071 387.282 151.075C387.798 149.728 387.418 148.399 389.894 146.498C393.328 143.866 400.97 143.02 403.06 135.001Z" fill="#191919"/>
<path d="M383.431 160.483C383.15 160.49 382.875 160.572 382.636 160.719C382.397 160.867 382.202 161.076 382.07 161.324C381.938 161.573 381.875 161.852 381.886 162.133C381.898 162.413 381.984 162.686 382.136 162.923C382.265 163.149 382.453 163.334 382.681 163.46C382.909 163.586 383.166 163.646 383.426 163.634C383.844 163.635 384.245 163.469 384.541 163.174C384.837 162.879 385.003 162.479 385.004 162.061C385.005 161.643 384.839 161.242 384.544 160.946C384.249 160.65 383.848 160.484 383.431 160.483Z" fill="#191919"/>
<path d="M414.201 172.45C412.372 171.655 410.368 171.348 408.385 171.559C406.402 171.769 404.507 172.49 402.885 173.651C401.263 174.811 399.97 176.373 399.131 178.182C398.293 179.991 397.937 181.987 398.1 183.975C398.111 184.192 398.205 184.397 398.363 184.547C398.521 184.696 398.73 184.78 398.947 184.78C399.165 184.78 399.374 184.696 399.531 184.547C399.689 184.397 399.783 184.192 399.794 183.975C399.948 182.289 400.474 180.658 401.336 179.2C402.198 177.742 403.373 176.495 404.777 175.547C411.907 171.283 419.141 178.119 415.707 184.541C413.142 189.341 407.268 192.095 406.281 198.164C405.704 201.712 406.779 202.628 407.787 203.551C407.939 203.696 408.135 203.788 408.345 203.812C408.555 203.836 408.766 203.792 408.948 203.686C409.131 203.58 409.273 203.417 409.355 203.223C409.437 203.028 409.454 202.812 409.403 202.608C409.328 202.123 409.43 201.638 409.376 201.18C407.98 193.265 419.267 190.253 419.689 181.47C419.721 179.602 419.223 177.762 418.251 176.165C417.28 174.569 415.876 173.28 414.201 172.45Z" fill="#191919"/>
<path d="M410.423 211.085C409.301 210.636 407.762 211.689 408.428 213.017C408.611 213.309 408.883 213.534 409.203 213.66C409.523 213.785 409.875 213.806 410.208 213.718C410.486 213.642 410.735 213.482 410.919 213.26C411.103 213.038 411.215 212.764 411.238 212.477C411.262 212.189 411.196 211.901 411.051 211.652C410.905 211.403 410.686 211.205 410.423 211.085Z" fill="#191919"/>
<path d="M431.063 238.742C430.683 239.467 431.637 240.286 432.248 239.656C434.676 237.151 440.534 238.174 441.023 245.473C441.362 247.226 441.087 249.041 440.245 250.615C437.98 253.463 433.083 251.843 430.066 251.989C426.942 252.139 422.94 253.874 423.012 257.507C423.032 258.63 424.821 259.359 425.326 258.127C428.001 251.618 436.912 258.03 441.966 252.877C443.293 251.315 443.96 249.297 443.824 247.251C443.993 235.052 433.639 233.807 431.063 238.742Z" fill="#191919"/>
<path d="M418.88 262.631C418.91 262.926 418.995 263.213 419.13 263.478C419.227 263.642 419.366 263.778 419.532 263.872C419.698 263.967 419.886 264.016 420.077 264.016C420.268 264.016 420.455 263.967 420.621 263.872C420.788 263.778 420.926 263.642 421.024 263.478C421.155 263.219 421.239 262.938 421.271 262.649C421.324 262.465 421.333 262.271 421.299 262.083C421.265 261.895 421.187 261.717 421.073 261.563C420.958 261.41 420.809 261.285 420.638 261.198C420.468 261.112 420.279 261.066 420.087 261.065C419.896 261.063 419.707 261.106 419.534 261.19C419.362 261.274 419.212 261.397 419.095 261.548C418.978 261.7 418.898 261.877 418.861 262.065C418.823 262.253 418.83 262.447 418.88 262.631Z" fill="#191919"/>
<path d="M385.262 256.323C385.239 243.671 383.518 223.258 380.686 212.059C378.028 201.555 372.312 191.274 361.541 187.557C357.359 186.23 352.927 185.884 348.589 186.546C344.251 187.208 340.124 188.859 336.527 191.373C326.637 198.106 323.061 208.12 321.342 219.995C319.812 231.425 319.37 242.974 320.022 254.487C320.17 257.348 319.113 257.714 324.195 257.986C326.279 258.098 328.369 258.035 330.443 257.797C332.079 257.611 329.004 254.599 331.868 226.645C332.766 217.892 334.575 208.484 340.915 201.928C347.018 195.619 355.394 194.135 362.053 199.908C368.712 205.68 370.779 215.066 371.962 223.386C372.772 229.096 373.259 234.857 373.656 240.592C374.859 257.916 373.903 257.548 374.707 257.555C378.016 257.623 381.326 257.473 384.615 257.106C384.701 257.105 384.783 257.071 384.843 257.01C384.904 256.95 384.938 256.868 384.939 256.783C385.1 256.673 385.262 256.565 385.262 256.323Z" fill="#023C47"/>
<path d="M392.477 360.336C391.131 336.231 393.079 332.752 371.18 331.632C359.492 331.038 285.526 331.888 273.254 334.218C262.434 336.274 262.791 342.841 262.726 358.531C262.712 361.736 262.124 365.455 263.426 368.494C265.926 374.329 275.061 373.409 284.992 373.286C289.059 373.236 377.236 371.856 379.958 371.672C388.889 371.064 393.005 369.704 392.477 360.336ZM389.759 363.002C389.499 368.485 385.105 368.613 379.5 368.952C374.43 369.255 373.876 369.024 306.783 370.191C299.071 369.392 272.621 372.249 267.713 369.383C264.972 367.783 265.396 364.241 265.45 361.528C265.706 348.818 265.329 343.853 267.246 340.605C269.957 336.04 276.181 335.392 342.583 334.225C381.574 333.54 386.777 334.366 388.437 341.764C389.248 346.494 389.617 351.29 389.542 356.089C389.614 358.316 389.867 360.686 389.759 363.002Z" fill="#191919"/>
<path d="M288.516 352.608C287.234 352.023 286.599 352.579 282.321 353.174C283.104 351.105 284.059 349.106 285.176 347.197C285.578 346.656 284.779 345.83 284.234 346.255C282.392 348.029 280.983 350.203 280.115 352.608C278.726 350.71 277.107 348.992 275.294 347.494C274.621 346.984 273.815 347.942 274.19 348.596C274.72 349.504 278.133 353.506 278.338 353.74C276.312 353.916 274.315 354.332 272.388 354.979C272.234 355.023 272.101 355.121 272.013 355.254C271.925 355.388 271.887 355.548 271.906 355.707C271.926 355.866 272.001 356.013 272.119 356.121C272.237 356.229 272.389 356.292 272.549 356.298C274.498 356.437 276.457 356.347 278.385 356.029C278.106 356.554 277.854 357.092 277.631 357.643C276.764 358.89 276.224 360.334 276.06 361.844C276.102 362.41 276.758 362.966 277.325 362.571C278.394 361.822 278.51 361.243 280.611 356.619C283.374 360.174 283.549 361.081 284.864 361.494C284.972 361.524 285.085 361.529 285.195 361.508C285.305 361.487 285.408 361.441 285.497 361.373C285.586 361.305 285.658 361.217 285.707 361.117C285.756 361.016 285.781 360.906 285.78 360.794C285.78 359.6 285.214 359.11 282.36 355.544C283.302 355.436 284.218 355.299 285.161 355.14C286.453 354.916 287.827 354.871 288.662 353.767C288.745 353.689 288.809 353.592 288.847 353.485C288.886 353.378 288.899 353.263 288.885 353.15C288.87 353.037 288.829 352.929 288.765 352.835C288.701 352.741 288.616 352.663 288.516 352.608Z" fill="#023C47"/>
<path d="M312.268 350.909C311.015 350.292 310.457 350.867 306.076 351.475C306.859 349.407 307.813 347.408 308.928 345.498C309.33 344.957 308.531 344.131 307.986 344.556C306.144 346.33 304.735 348.504 303.867 350.909C302.478 349.011 300.859 347.293 299.046 345.795C298.373 345.285 297.567 346.243 297.944 346.899C298.472 347.797 301.885 351.807 302.09 352.041C300.064 352.217 298.067 352.633 296.14 353.28C295.986 353.324 295.853 353.422 295.765 353.555C295.677 353.689 295.639 353.849 295.658 354.008C295.678 354.167 295.753 354.314 295.871 354.422C295.989 354.53 296.141 354.593 296.301 354.599C298.25 354.739 300.209 354.649 302.137 354.33C301.858 354.855 301.607 355.395 301.383 355.946C300.516 357.192 299.975 358.636 299.812 360.145C299.854 360.711 300.51 361.267 301.077 360.872C302.146 360.123 302.262 359.544 304.363 354.922C307.128 358.475 307.301 359.382 308.627 359.795C308.735 359.826 308.849 359.831 308.959 359.81C309.069 359.789 309.172 359.743 309.261 359.675C309.35 359.607 309.422 359.519 309.471 359.418C309.52 359.318 309.545 359.207 309.543 359.095C309.543 357.901 308.978 357.411 306.125 353.845C307.065 353.737 307.981 353.6 308.924 353.441C310.216 353.217 311.59 353.172 312.425 352.068C312.505 351.988 312.566 351.89 312.602 351.783C312.638 351.676 312.649 351.562 312.634 351.45C312.618 351.337 312.577 351.23 312.514 351.137C312.451 351.043 312.366 350.965 312.268 350.909Z" fill="#023C47"/>
<path d="M335.746 350.562C334.496 349.944 333.937 350.519 329.554 351.127C330.337 349.059 331.291 347.06 332.407 345.15C332.808 344.609 332.009 343.784 331.466 344.208C329.624 345.982 328.214 348.156 327.346 350.562C325.957 348.664 324.338 346.946 322.527 345.447C321.854 344.937 321.046 345.896 321.423 346.551C321.95 347.449 325.366 351.462 325.568 351.693C323.543 351.869 321.546 352.285 319.618 352.932C319.465 352.976 319.332 353.074 319.243 353.207C319.155 353.341 319.117 353.501 319.137 353.66C319.156 353.819 319.232 353.966 319.35 354.074C319.467 354.183 319.62 354.245 319.78 354.251C321.729 354.391 323.687 354.301 325.615 353.982C325.337 354.508 325.085 355.047 324.861 355.598C323.993 356.844 323.453 358.288 323.29 359.797C323.33 360.363 323.986 360.919 324.554 360.524C325.622 359.775 325.739 359.196 327.839 354.575C330.604 358.127 330.777 359.034 332.092 359.447C332.2 359.478 332.314 359.483 332.424 359.462C332.534 359.441 332.637 359.395 332.726 359.327C332.815 359.259 332.887 359.171 332.936 359.07C332.985 358.97 333.01 358.859 333.008 358.747C333.008 357.553 332.443 357.064 329.59 353.497C330.533 353.389 331.446 353.253 332.389 353.093C333.682 352.869 335.055 352.824 335.89 351.72C335.973 351.642 336.037 351.546 336.076 351.439C336.115 351.332 336.128 351.217 336.114 351.104C336.1 350.991 336.059 350.883 335.995 350.789C335.931 350.694 335.846 350.617 335.746 350.562Z" fill="#023C47"/>
<path d="M359.438 349.188C358.188 348.571 357.629 349.145 353.246 349.754C354.029 347.685 354.984 345.686 356.101 343.777C356.5 343.236 355.701 342.41 355.158 342.834C353.316 344.608 351.906 346.782 351.038 349.188C349.649 347.291 348.03 345.573 346.219 344.073C345.546 343.564 344.738 344.522 345.115 345.177C345.642 346.075 349.058 350.088 349.26 350.319C347.235 350.496 345.238 350.912 343.31 351.558C343.156 351.603 343.024 351.7 342.935 351.834C342.847 351.967 342.809 352.128 342.829 352.287C342.848 352.446 342.924 352.592 343.041 352.701C343.159 352.809 343.312 352.872 343.472 352.878C345.421 353.018 347.379 352.927 349.307 352.608C349.029 353.134 348.777 353.673 348.553 354.224C347.69 355.472 347.154 356.916 346.993 358.424C347.036 358.991 347.689 359.546 348.259 359.151C349.325 358.401 349.442 357.822 351.543 353.201C354.308 356.756 354.483 357.661 355.807 358.074C355.914 358.104 356.028 358.109 356.137 358.088C356.247 358.067 356.35 358.02 356.439 357.952C356.528 357.884 356.599 357.797 356.648 357.696C356.697 357.596 356.722 357.485 356.72 357.373C356.72 356.179 356.155 355.69 353.302 352.124C354.245 352.016 355.16 351.879 356.103 351.72C357.394 351.495 358.767 351.45 359.602 350.346C359.682 350.266 359.743 350.168 359.779 350.061C359.815 349.953 359.825 349.839 359.809 349.726C359.793 349.614 359.752 349.507 359.687 349.413C359.623 349.32 359.538 349.243 359.438 349.188Z" fill="#023C47"/>
<path d="M383.323 348.353C382.093 347.722 381.527 348.308 377.13 348.919C377.914 346.85 378.869 344.851 379.985 342.942C380.385 342.401 379.586 341.577 379.042 341.999C377.2 343.773 375.79 345.947 374.922 348.353C373.533 346.456 371.915 344.738 370.103 343.238C369.43 342.729 368.622 343.687 368.999 344.342C369.526 345.24 372.942 349.253 373.147 349.484C371.121 349.661 369.123 350.077 367.194 350.723C367.041 350.768 366.908 350.865 366.82 350.999C366.731 351.132 366.694 351.293 366.713 351.452C366.732 351.611 366.808 351.757 366.926 351.866C367.044 351.974 367.196 352.037 367.356 352.043C369.305 352.183 371.264 352.092 373.191 351.774C372.913 352.299 372.661 352.838 372.437 353.389C371.57 354.635 371.029 356.079 370.866 357.589C370.909 358.157 371.562 358.711 372.132 358.316C373.2 357.566 373.315 356.987 375.416 352.366C378.181 355.921 378.356 356.828 379.68 357.239C379.788 357.269 379.901 357.275 380.011 357.254C380.121 357.233 380.225 357.187 380.314 357.119C380.403 357.051 380.475 356.963 380.523 356.862C380.572 356.761 380.597 356.65 380.596 356.538C380.596 355.344 380.03 354.857 377.175 351.289C378.118 351.181 379.034 351.044 379.976 350.885C381.267 350.66 382.64 350.615 383.475 349.511C383.553 349.43 383.611 349.333 383.646 349.226C383.68 349.12 383.691 349.007 383.676 348.896C383.661 348.784 383.622 348.678 383.561 348.584C383.5 348.49 383.418 348.411 383.323 348.353Z" fill="#023C47"/>
<path d="M237.344 274.982C235.522 274.533 223.097 274.262 222.859 274.255C222.477 274.266 222.114 274.423 221.843 274.694C221.573 274.964 221.416 275.327 221.405 275.709C220.466 282.411 218.869 289.004 216.638 295.393C214.645 300.139 211.828 304.496 208.318 308.262C205.474 301.118 201.835 294.317 197.468 287.988C196.572 286.277 195.105 284.933 193.321 284.191C198.097 270.199 200.888 255.607 201.614 240.841C201.896 238.622 201.869 236.375 201.533 234.164C201.479 233.988 201.37 233.835 201.222 233.725C201.074 233.616 200.895 233.557 200.712 233.557C200.528 233.557 200.349 233.616 200.201 233.725C200.053 233.835 199.944 233.988 199.89 234.164C199.188 236.484 199.877 236.603 198.867 246.766C196.463 270.958 190.832 281.736 191.032 284.002C172.582 286.181 154.302 289.617 136.32 294.288C136.149 294.348 136.007 294.47 135.923 294.63C135.838 294.791 135.818 294.977 135.866 295.152C135.914 295.326 136.026 295.476 136.181 295.571C136.335 295.666 136.52 295.698 136.698 295.662C140.533 295.042 188.394 285.692 192.378 286.669C193.265 286.982 194.011 287.603 194.479 288.419C199.218 295.285 203.149 302.675 206.192 310.443C187.728 328.421 147.908 332.409 131.257 306.727C130.903 306.179 130.627 306.641 132.038 305.38C134.348 303.32 136.861 301.423 139.014 299.213C139.911 298.299 138.879 296.629 137.775 297.06C133.176 295.211 110.169 291.139 106.244 290.435C106.041 290.384 105.83 290.379 105.626 290.421C105.421 290.463 105.229 290.551 105.063 290.678C104.898 290.805 104.763 290.968 104.669 291.154C104.576 291.341 104.525 291.546 104.522 291.754C104.498 294.797 104.759 297.835 105.303 300.828C94.1195 323.636 90.0235 363.24 92.5103 373.151C92.5576 373.323 92.6601 373.475 92.802 373.583C92.9439 373.691 93.1174 373.75 93.2958 373.75C93.4742 373.75 93.6477 373.691 93.7896 373.583C93.9315 373.475 94.034 373.323 94.0813 373.151C95.8499 363.186 91.8078 346.077 106.01 305.326C106.143 306.134 106.253 306.913 106.358 307.721C107.031 312.784 108.241 317.733 109.213 322.747C109.277 322.958 109.394 323.149 109.553 323.302C109.712 323.454 109.907 323.564 110.12 323.621C110.333 323.677 110.557 323.678 110.771 323.624C110.984 323.57 111.18 323.462 111.341 323.31C113.724 321.29 116.078 319.219 118.422 317.172C125.213 325.192 133.44 331.877 142.681 336.882C165.917 348.622 192.387 344.064 212.032 328.912C213.891 336.559 215.071 344.367 217.194 351.96C217.251 352.145 217.372 352.303 217.535 352.407C217.698 352.511 217.893 352.553 218.085 352.526C218.276 352.499 218.452 352.404 218.58 352.259C218.708 352.115 218.78 351.929 218.783 351.735C218.211 343.549 216.767 335.448 214.476 327.568C214.422 327.406 214.396 327.218 214.342 327.056C221.866 320.919 227.964 313.217 232.209 304.484C236.454 295.751 238.746 286.199 238.924 276.49C238.947 276.28 238.921 276.068 238.849 275.87C238.777 275.671 238.659 275.492 238.507 275.346C238.354 275.201 238.169 275.092 237.968 275.029C237.766 274.966 237.553 274.95 237.344 274.982Z" fill="#191919"/>
<path d="M163.991 352.151C163.855 352.019 163.69 351.919 163.51 351.859C163.33 351.799 163.139 351.78 162.951 351.803C162.762 351.826 162.581 351.891 162.421 351.993C162.261 352.095 162.126 352.232 162.025 352.393C160.05 355.921 155.267 365.453 154.783 369.675C154.679 370.572 155.981 370.797 156.369 370.106C158.614 366.115 158.526 363.28 163.345 355.082C166.752 358.594 169.45 361.292 171.315 363.644C172.061 364.831 173.008 365.878 174.113 366.739C174.242 366.811 174.387 366.849 174.534 366.849C174.681 366.848 174.826 366.809 174.954 366.736C175.081 366.663 175.188 366.557 175.262 366.43C175.337 366.303 175.377 366.159 175.379 366.012C175.256 363.319 172.388 360.794 170.666 358.931C168.503 356.611 166.277 354.35 163.991 352.151Z" fill="#191919"/>
<path d="M275.541 142.052C279.146 145.545 281.567 149.273 284.265 148.972C284.376 148.965 284.484 148.932 284.579 148.874C284.673 148.816 284.752 148.735 284.808 148.639C284.864 148.543 284.896 148.434 284.9 148.323C284.903 148.212 284.88 148.102 284.831 148.002C283.823 146.543 282.639 145.214 281.305 144.045C277.694 140.131 271.746 134.123 266.898 132.063C265.956 131.663 264.91 132.736 265.74 133.571C268.765 136.628 272.437 139.04 275.541 142.052Z" fill="#191919"/>
<path d="M268.918 146.011C273.339 150.725 273.631 152.222 275.352 152.581C275.465 152.611 275.583 152.615 275.698 152.592C275.812 152.57 275.92 152.522 276.013 152.452C276.107 152.382 276.183 152.292 276.236 152.188C276.29 152.085 276.319 151.97 276.322 151.854C276.414 150.426 275.2 149.16 274.329 148.11C271.153 144.051 267.334 140.541 263.022 137.719C262.853 137.626 262.657 137.597 262.469 137.636C262.28 137.676 262.112 137.782 261.995 137.934C261.878 138.087 261.819 138.277 261.83 138.469C261.84 138.661 261.919 138.843 262.052 138.982C264.245 141.395 266.662 143.606 268.918 146.011Z" fill="#191919"/>
<path d="M141.345 158.261C141.729 158.218 142.083 158.034 142.34 157.746C142.597 157.459 142.739 157.086 142.739 156.7C142.739 156.314 142.597 155.942 142.34 155.654C142.083 155.366 141.729 155.183 141.345 155.139C140.962 155.183 140.608 155.366 140.351 155.654C140.094 155.942 139.952 156.314 139.952 156.7C139.952 157.086 140.094 157.459 140.351 157.746C140.608 158.034 140.962 158.218 141.345 158.261Z" fill="#191919"/>
<path d="M144.577 149.537C144.461 149.471 144.326 149.446 144.193 149.464C144.06 149.482 143.937 149.543 143.843 149.638C143.748 149.732 143.687 149.855 143.669 149.988C143.651 150.121 143.677 150.256 143.742 150.372C145.313 152.841 149.647 157.33 151.093 159.823C151.317 160.198 151.524 160.028 150.931 160.066C149.804 160.043 148.679 159.944 147.565 159.769C146.353 159.606 146.353 161.543 147.565 161.682C148.682 161.807 149.807 161.861 150.931 161.843C151.536 161.923 152.149 161.78 152.655 161.439C153.874 160.393 152.675 158.912 152.008 157.965C150.034 154.75 147.52 151.899 144.577 149.537Z" fill="#191919"/>
<path d="M142.773 164.292C143.19 167.737 145.654 173.391 150.015 172.639C156.827 171.467 155.922 161.679 153.678 162.597C152.188 163.279 150.595 163.707 148.965 163.863C147.211 163.868 145.461 163.697 143.742 163.352C143.612 163.329 143.479 163.338 143.354 163.377C143.228 163.416 143.113 163.484 143.019 163.576C142.925 163.667 142.853 163.78 142.81 163.904C142.767 164.029 142.755 164.162 142.773 164.292ZM153.355 164.911C153.606 166.171 153.351 167.479 152.645 168.552C151.94 169.626 150.84 170.379 149.584 170.648C147.371 170.985 145.477 167.434 144.954 165.235C147.69 166.222 150.703 166.106 153.355 164.911Z" fill="#191919"/>
<path d="M152.978 151.073C152.6 151.073 152.237 151.223 151.969 151.491C151.701 151.758 151.551 152.121 151.551 152.5C151.551 152.879 151.701 153.242 151.969 153.509C152.237 153.777 152.6 153.927 152.978 153.927C153.357 153.927 153.72 153.777 153.988 153.509C154.255 153.242 154.406 152.879 154.406 152.5C154.406 152.121 154.255 151.758 153.988 151.491C153.72 151.223 153.357 151.073 152.978 151.073Z" fill="#191919"/>
<path d="M286.312 136.399C282.52 132.542 277.871 129.636 272.743 127.917C272.456 127.843 272.153 127.875 271.888 128.006C271.623 128.137 271.415 128.359 271.3 128.632C271.186 128.904 271.173 129.209 271.265 129.49C271.357 129.771 271.547 130.009 271.8 130.162C275.647 132.348 279.344 134.789 282.865 137.469C290.417 143.653 296.425 151.73 291.077 159.897C286.377 167.079 278.89 168.101 273.548 179.661C269.404 178.369 265.136 177.512 260.814 177.103C257.923 167.079 257.743 162.106 266.144 153.705C266.405 153.434 266.55 153.072 266.55 152.695C266.55 152.319 266.405 151.957 266.144 151.685C263.245 148.543 259.808 145.945 255.995 144.012C255.212 143.637 254.188 144.685 254.972 145.331C257.834 147.569 260.55 149.989 263.103 152.574C260.056 155.296 257.806 158.796 256.594 162.698C255.571 167.445 255.917 172.384 257.591 176.941C256.837 176.941 256.525 176.816 255.021 178.205C252.269 168.365 251.975 160.779 259.234 152.574C258.499 151.879 257.745 151.206 256.971 150.554C247.415 161.756 213.166 202.924 205.519 212.274C168.105 188.367 116.258 210.353 104.836 251.181C102.828 251.286 100.884 251.928 99.2075 253.039C98.2222 253.78 98.6352 253.712 98.3726 253.443C85.0738 237.704 70.1983 223.367 53.9788 210.658C52.6569 209.637 50.7492 211.437 52.0935 212.544C67.9161 225.244 82.5848 239.318 95.9284 254.601C92.7708 261.687 90.0815 268.972 87.8779 276.41C61.2304 267.257 17.0229 247.008 10.0631 219.517C8.60852 214.014 8.96738 208.189 11.0864 202.907C13.2055 197.624 16.9717 193.166 21.8259 190.194C29.7912 185.459 42.3193 182.64 51.3619 182.144C82.3567 180.447 102.062 179.675 128.719 191.191C134.072 193.865 140.164 194.68 146.032 193.507C160.91 191.173 165.825 181.194 175.658 175.655C183.384 171.571 192.209 170.047 200.857 171.306C209.506 172.564 217.53 176.539 223.773 182.655C223.937 182.82 224.16 182.912 224.392 182.912C224.624 182.912 224.847 182.82 225.011 182.655C225.176 182.491 225.268 182.268 225.268 182.036C225.268 181.804 225.176 181.581 225.011 181.416C211.469 165.369 185.389 164.135 169.25 176.732C164.427 180.496 160.23 185.133 154.684 187.907C148.861 190.947 142.185 191.942 135.728 190.733C128.117 188.937 120.509 182.305 96.9002 179.426C79.6859 177.325 42.5123 177.493 24.5506 185.486C19.3677 187.564 14.8876 191.082 11.6386 195.624C8.38968 200.166 6.50746 205.542 6.21403 211.119C4.63848 244.302 56.8808 268.99 88.412 279.291C88.7437 279.377 89.0957 279.329 89.3924 279.158C89.6891 278.986 89.9068 278.706 89.9988 278.376C90.0572 278.151 90.1335 277.927 90.1873 277.702C94.8242 285.147 101.595 286.904 109.574 288.877C113.614 289.876 118.103 290.354 121.826 288.096C125.417 285.919 125.734 282.537 124.194 280.665C125.077 280.151 125.835 279.447 126.413 278.604C126.99 277.76 127.373 276.799 127.534 275.79C127.598 275.123 127.52 274.45 127.307 273.815C127.093 273.179 126.749 272.596 126.295 272.103C126.969 271.643 127.53 271.036 127.935 270.327C128.34 269.619 128.579 268.827 128.633 268.013C128.688 267.199 128.556 266.383 128.249 265.626C127.942 264.87 127.467 264.194 126.86 263.648C127.477 263.124 127.941 262.442 128.202 261.676C128.463 260.909 128.512 260.086 128.344 259.294C128.176 258.502 127.796 257.771 127.246 257.177C126.695 256.583 125.995 256.149 125.218 255.921C124.381 255.779 123.528 255.769 122.688 255.892C123.835 254.197 125.72 248.276 127.237 245.343C145.756 209.5 205.95 215.414 216.386 249.731C216.595 250.418 217.046 249.966 215.309 250.835C212.564 252.209 209.658 253.477 207.005 255.063C205.93 255.71 206.493 257.62 207.678 257.458C211.648 260.324 232.142 269.67 236.543 271.703C236.725 271.807 236.927 271.868 237.136 271.882C237.344 271.896 237.553 271.863 237.747 271.785C237.942 271.708 238.116 271.588 238.257 271.433C238.398 271.279 238.503 271.095 238.563 270.895C239.689 265.719 240.4 260.461 240.688 255.171C241.315 250.056 241.465 244.86 241.685 239.714C241.728 238.747 240.563 238.289 239.748 238.693L231.347 242.892C227.722 235.59 223.15 228.799 217.749 222.693C245.96 188.282 241.763 193.159 251.466 182.442C245.415 190.256 240.197 198.681 235.897 207.579C233.408 212.741 231.715 216.256 232.081 218.485C232.108 218.576 232.154 218.66 232.218 218.731C232.281 218.802 232.36 218.858 232.448 218.894C232.536 218.93 232.631 218.946 232.726 218.94C232.821 218.935 232.914 218.908 232.997 218.862C235.63 216.891 235.742 212.182 244.172 197.967C247.981 191.641 252.162 185.546 256.691 179.713C262.46 179.92 268.176 180.907 273.681 182.646C273.75 194.62 272.841 206.579 270.963 218.404C268.467 232.714 264.53 248.359 251.63 255.346C249 256.598 246.242 257.561 243.404 258.217C242.838 258.381 242.704 259.406 243.404 259.51C248.461 260.248 253.692 257.306 257.485 254.233C274.318 240.614 276.298 203.533 276.495 181.668C276.495 181.409 276.421 181.156 276.283 180.937C276.145 180.718 275.948 180.543 275.714 180.431C282.389 168.711 288.868 168.864 293.835 160.748C299.318 151.757 293.005 142.497 286.312 136.399ZM125.325 258.558C127.188 259.954 125.218 262.328 123.817 263.029C123.606 263.158 123.442 263.351 123.35 263.581C123.258 263.81 123.243 264.064 123.306 264.303C123.37 264.542 123.509 264.754 123.703 264.907C123.897 265.061 124.135 265.147 124.383 265.154C126.522 265.089 127.702 269.194 123.467 271.349C123.263 271.474 123.106 271.662 123.018 271.885C122.93 272.108 122.918 272.353 122.981 272.583C123.045 272.814 123.182 273.018 123.372 273.164C123.561 273.31 123.793 273.39 124.033 273.393C125.46 273.458 125.429 275.761 125.002 276.652C124.218 277.947 123.091 279.001 121.745 279.695C121.568 279.806 121.426 279.966 121.337 280.156C121.248 280.346 121.216 280.557 121.244 280.765C121.273 280.972 121.361 281.167 121.497 281.326C121.634 281.484 121.814 281.6 122.015 281.659C124.369 282.557 122.069 287.299 116.09 287.557C112.684 287.465 109.318 286.81 106.127 285.618C103.155 284.89 100.312 283.709 97.6992 282.117C94.9187 280.175 92.6394 277.601 91.0492 274.605C92.9352 268.457 95.2012 262.432 97.8339 256.565C99.6294 255.721 100.177 253.746 104.729 253.605C105.052 255.113 106.558 255.894 108.12 256.376C107.489 258.482 117.014 258.762 120.21 258.558C121.476 258.477 124.169 257.694 125.325 258.558Z" fill="#191919"/>
<path d="M339.759 102.682C338.813 101.564 337.706 100.592 336.474 99.7998C335.127 98.6956 325.784 91.1567 325.568 90.9951C333.078 79.0999 333.217 81.1872 326.672 76.7254C326.176 76.3643 325.561 76.2051 324.951 76.2801C324.342 76.3551 323.783 76.6586 323.389 77.1294C307.299 93.4056 292.72 109.547 277.561 126.73C286.987 131.219 291.882 139.198 297.406 142.589C299.928 144.137 303.78 147.401 306.882 145.506C310.19 143.487 312.057 139.671 314.45 136.753C316.768 133.93 319.14 131.131 321.477 128.326C321.64 128.154 321.764 127.948 321.837 127.723C321.911 127.497 321.933 127.258 321.902 127.023C321.871 126.788 321.788 126.563 321.658 126.364C321.529 126.165 321.356 125.998 321.154 125.875C316.6 123.054 312.026 120.221 307.474 117.367C309.045 115.374 310.868 112.763 312.43 110.77C317.652 113.733 322.722 117.084 328.127 119.683C328.491 119.876 328.915 119.926 329.315 119.821C329.714 119.716 330.059 119.465 330.281 119.117C333.418 115.063 336.339 110.848 339.034 106.488C339.84 105.355 340.585 104.008 339.759 102.682Z" fill="#191919"/>
<path d="M399.989 284.46C400.127 279.47 399.427 274.491 397.918 269.733C397.323 267.84 396.303 266.108 394.935 264.671C393.568 263.233 391.89 262.128 390.029 261.44C387.841 260.795 390.002 260.697 336.958 261.089C319.845 261.215 308.702 257.849 307.689 281.289C307.016 296.795 307.418 320.312 307.743 328.87C313.13 328.762 341.265 328.266 342.935 328.32C345.902 328.418 346.975 329.078 346.975 328.293C347.621 322.828 349.989 301.809 350.178 300.169C348.789 299.746 347.505 299.032 346.414 298.074C345.322 297.117 344.446 295.939 343.845 294.617C343.244 293.295 342.931 291.86 342.928 290.408C342.924 288.956 343.229 287.52 343.824 286.195C343.796 286.107 343.796 286.013 343.824 285.926C344.966 281.81 351.628 278.008 357.393 280.568C359.332 281.4 360.976 282.797 362.11 284.575C363.245 286.354 363.817 288.434 363.754 290.543C363.69 292.651 362.993 294.692 361.753 296.4C360.514 298.107 358.789 299.401 356.803 300.115C358.367 309.552 360.362 318.914 362.78 328.169C368.241 327.986 373.707 328.257 379.123 328.977C389.461 330.38 393.604 334.314 394.643 346.259C402.24 341.193 400.178 329.956 400.286 318.444C400.393 307.104 400.378 295.77 399.989 284.46Z" fill="#023C47"/>
<path d="M162.806 162.059C160.857 154.029 157.542 146.395 153.005 139.489C156.055 136.916 158.469 133.673 160.059 130.014C163.383 122.138 162.135 113.374 160.652 111.435C159.242 109.59 157.314 110.573 156.235 112.162C153.542 116.121 148.828 118.522 144.551 120.374C132.287 125.673 126.746 121.84 117.302 131.596C113.556 135.47 113.138 141.128 113.856 146.245C114.427 150.108 115.685 153.837 117.571 157.256C118.102 158.495 118.742 159.685 119.483 160.811C114.427 164.743 116.875 172.495 125.002 172.414C125.842 175.942 126.442 179.522 126.798 183.131C126.795 184.377 126.903 185.621 127.121 186.848C127.192 187.093 127.341 187.308 127.545 187.461C127.749 187.614 127.997 187.696 128.252 187.696C128.507 187.696 128.755 187.614 128.959 187.461C129.163 187.308 129.312 187.093 129.383 186.848C130.074 183.618 128.207 174.241 127.228 172.035C131.942 170.289 131.587 165.504 129.868 166.2C128.252 166.846 127.742 168.873 125.963 169.243C125.055 169.435 124.114 169.411 123.218 169.172C122.321 168.934 121.493 168.487 120.801 167.869C120.287 167.234 120.035 166.427 120.095 165.612C120.155 164.797 120.523 164.035 121.124 163.482C123.368 161.363 127.617 163.343 128.124 161.112C128.9 157.855 128.779 154.45 127.774 151.257C136.483 150.096 144.683 146.482 151.416 140.836C153.404 144.49 155.191 148.248 156.771 152.096C158.834 157.269 162.494 166.509 159.689 170.783C157.765 173.7 151.591 175.316 148.164 175.978C143.965 176.789 142.596 176.248 141.568 177.379C141.425 177.527 141.345 177.725 141.345 177.931C141.345 178.137 141.425 178.335 141.568 178.483C142.786 179.769 145.383 179.156 146.954 178.968C148.322 178.793 149.679 178.541 151.019 178.214C151.312 179.723 151.772 181.195 152.392 182.602C152.784 184.221 153.614 185.703 154.789 186.884C154.942 186.969 155.114 187.013 155.288 187.013C155.463 187.012 155.635 186.966 155.786 186.879C155.938 186.792 156.064 186.668 156.154 186.517C156.243 186.367 156.292 186.197 156.295 186.022C155.991 184.483 155.388 183.019 154.52 181.713C153.928 180.395 153.47 179.02 152.796 177.756C152.85 177.756 152.877 177.729 152.931 177.729C161.671 175.069 165.004 171.44 162.806 162.059ZM150.123 135.268C149.96 135.266 149.8 135.226 149.654 135.153C149.509 135.08 149.382 134.974 149.283 134.844C149.184 134.714 149.117 134.564 149.085 134.404C149.053 134.244 149.058 134.079 149.1 133.921C149.508 132.675 150.613 131.959 151.443 130.985C153.262 128.728 154.666 126.167 155.591 123.42C155.983 122.098 156.04 120.782 156.316 119.463C156.371 119.283 156.477 119.123 156.621 119.001C156.765 118.879 156.94 118.801 157.127 118.775C157.314 118.75 157.504 118.778 157.675 118.857C157.846 118.936 157.991 119.062 158.093 119.22C160.019 123.26 156.648 129.32 153.867 132.763C152.938 133.91 151.766 135.328 150.123 135.268Z" fill="#191919"/>
<path d="M136.554 155.757C136.948 154.754 137.435 153.79 138.008 152.877C138.657 151.964 139.781 151.555 140.376 150.669C141.193 149.459 138.895 147.592 136.15 151.611C135.729 152.175 135.439 152.824 135.299 153.514C135.159 154.203 135.174 154.914 135.342 155.597C135.38 155.72 135.453 155.829 135.551 155.912C135.649 155.995 135.769 156.048 135.897 156.064C136.024 156.081 136.154 156.061 136.27 156.007C136.387 155.952 136.485 155.865 136.554 155.757Z" fill="#191919"/>
<path d="M147.594 146.954C149.194 146.452 150.886 146.314 152.547 146.55C153.355 146.709 154.838 146.656 154.378 145.428C153.705 143.632 148.521 143.505 146.947 146.128C146.897 146.226 146.875 146.337 146.885 146.447C146.896 146.557 146.937 146.662 147.005 146.749C147.073 146.836 147.165 146.901 147.269 146.938C147.374 146.974 147.486 146.98 147.594 146.954Z" fill="#191919"/>
</svg>
