<svg width="30" height="30" viewBox="0 0 30 30" fill="none" xmlns="http://www.w3.org/2000/svg">
<path d="M30 7.86001C30.0011 7.6626 29.9633 7.46691 29.8886 7.28415C29.814 7.1014 29.704 6.93517 29.565 6.79501L23.205 0.435024C23.0648 0.296002 22.8986 0.186015 22.7158 0.111368C22.5331 0.0367212 22.3374 -0.00111627 22.14 2.50714e-05C21.9426 -0.00111627 21.7469 0.0367212 21.5641 0.111368C21.3814 0.186015 21.2151 0.296002 21.075 0.435024L16.83 4.68002L0.435024 21.075C0.296002 21.2151 0.186015 21.3814 0.111368 21.5641C0.0367212 21.7469 -0.00111627 21.9426 2.50714e-05 22.14V28.5C2.50714e-05 28.8978 0.15806 29.2793 0.439364 29.5606C0.720668 29.8419 1.1022 30 1.50002 30H7.86001C8.0699 30.0114 8.27985 29.9786 8.47624 29.9036C8.67263 29.8287 8.85108 29.7133 9.00001 29.565L25.305 13.17L29.565 9.00001C29.7019 8.85463 29.8134 8.68731 29.895 8.50501C29.9094 8.38545 29.9094 8.26458 29.895 8.14501C29.902 8.07519 29.902 8.00484 29.895 7.93501L30 7.86001ZM7.24501 27H3.00002V22.755L17.895 7.86001L22.14 12.105L7.24501 27ZM24.255 9.99001L20.01 5.74501L22.14 3.63002L26.37 7.86001L24.255 9.99001Z" fill="black"/>
</svg>
