<svg width="25" height="24" viewBox="0 0 25 24" fill="none" xmlns="http://www.w3.org/2000/svg">
<path d="M6.25 9.5C6.00277 9.5 5.7611 9.56965 5.55554 9.70013C5.34998 9.83061 5.18976 10.0161 5.09515 10.2331C5.00054 10.4501 4.97579 10.6888 5.02402 10.9192C5.07225 11.1495 5.1913 11.3611 5.36612 11.5272C5.54093 11.6933 5.76366 11.8064 6.00614 11.8522C6.24861 11.898 6.49995 11.8745 6.72835 11.7846C6.95676 11.6947 7.15199 11.5425 7.28934 11.3472C7.42669 11.152 7.5 10.9224 7.5 10.6875C7.5 10.3726 7.3683 10.0705 7.13388 9.84781C6.89946 9.62511 6.58152 9.5 6.25 9.5ZM21.25 4.75H20V1.1875C20 0.872555 19.8683 0.57051 19.6339 0.347811C19.3995 0.125111 19.0815 0 18.75 0H6.25C5.91848 0 5.60054 0.125111 5.36612 0.347811C5.1317 0.57051 5 0.872555 5 1.1875V4.75H3.75C2.75544 4.75 1.80161 5.12533 1.09835 5.79343C0.395088 6.46153 0 7.36767 0 8.3125V15.4375C0 16.3823 0.395088 17.2885 1.09835 17.9566C1.80161 18.6247 2.75544 19 3.75 19H5V22.5625C5 22.8774 5.1317 23.1795 5.36612 23.4022C5.60054 23.6249 5.91848 23.75 6.25 23.75H18.75C19.0815 23.75 19.3995 23.6249 19.6339 23.4022C19.8683 23.1795 20 22.8774 20 22.5625V19H21.25C22.2446 19 23.1984 18.6247 23.9017 17.9566C24.6049 17.2885 25 16.3823 25 15.4375V8.3125C25 7.36767 24.6049 6.46153 23.9017 5.79343C23.1984 5.12533 22.2446 4.75 21.25 4.75ZM7.5 2.375H17.5V4.75H7.5V2.375ZM17.5 21.375H7.5V16.625H17.5V21.375ZM22.5 15.4375C22.5 15.7524 22.3683 16.0545 22.1339 16.2772C21.8995 16.4999 21.5815 16.625 21.25 16.625H20V15.4375C20 15.1226 19.8683 14.8205 19.6339 14.5978C19.3995 14.3751 19.0815 14.25 18.75 14.25H6.25C5.91848 14.25 5.60054 14.3751 5.36612 14.5978C5.1317 14.8205 5 15.1226 5 15.4375V16.625H3.75C3.41848 16.625 3.10054 16.4999 2.86612 16.2772C2.6317 16.0545 2.5 15.7524 2.5 15.4375V8.3125C2.5 7.99756 2.6317 7.69551 2.86612 7.47281C3.10054 7.25011 3.41848 7.125 3.75 7.125H21.25C21.5815 7.125 21.8995 7.25011 22.1339 7.47281C22.3683 7.69551 22.5 7.99756 22.5 8.3125V15.4375Z" fill="black"/>
</svg>
