<svg width="450" height="450" viewBox="0 0 450 450" fill="none" xmlns="http://www.w3.org/2000/svg">
<path d="M311.422 202.332C311.361 196.391 310.78 137.516 310.444 131.879C309.878 121.638 304.359 118.293 294.407 117.066C279.215 115.23 244.941 116.763 233.408 116.763C233.32 116.674 233.215 116.603 233.099 116.557C232.983 116.511 232.859 116.489 232.734 116.493C211.94 116.992 185.524 115.221 171.16 117.099C160.858 118.468 155.858 122.015 155.393 132.325C154.823 144.55 155.315 141.675 154.448 202.677C154.047 206.465 154.86 210.283 156.771 213.578C161.897 220.76 174.663 219.25 187.355 219.317C200.835 219.382 235.497 219.542 242.672 219.524C242.755 219.937 244.708 231.668 245.893 236.467C246.508 239.036 247.962 243.579 247.074 245.514C246.364 247.067 242.854 246.728 241.368 246.86C236.128 247.255 230.568 247.347 225.267 247.298C223.983 247.264 221.654 247.601 221.25 245.913C221.186 245.156 221.243 244.393 221.418 243.653C221.854 238.022 223.663 227.435 224.185 220.392C224.253 219.616 223.005 219.447 222.803 220.224C221.381 226.447 220.41 232.765 219.899 239.128C219.176 245.637 219.082 246.335 219.596 247.332C220.574 249.255 223.072 249.255 224.928 249.289C231.643 249.442 238.362 249.205 245.049 248.582C247.278 248.377 248.829 247.567 249.201 245.215C249.377 242.386 248.987 239.551 248.052 236.875C246.257 229.987 245.929 224.318 244.214 219.555C252.954 219.517 281.112 219.355 287.618 219.331C294.773 219.297 304.869 220.175 309.357 213.289C311.101 209.917 311.819 206.107 311.422 202.332ZM157.384 133.133C157.485 129.183 158.16 125.031 161.424 122.398C165.136 119.359 170.572 118.989 175.164 118.617C186.527 117.557 217.268 118.659 232.755 118.448C232.988 118.451 233.215 118.371 233.396 118.224C251.446 118.958 277.871 117.459 290.886 118.673C295.509 119.079 301.147 119.449 304.801 122.69C307.872 125.424 308.48 129.509 308.581 133.425C309.122 155.301 309.155 177.211 309.425 199.084C298.144 198.505 156.208 198.714 156.502 198.714C156.605 191.334 157.328 135.001 157.384 133.133ZM307.203 212.809C302.99 218.072 294.989 217.223 276.347 217.331C262.881 217.401 174.567 217.264 171.73 217.163C167.14 216.994 161.435 216.557 158.463 212.539C156.033 209.265 156.405 204.807 156.444 200.96V199.863C159.298 200.049 302.972 200.55 309.366 200.269C309.362 204.509 310.001 209.303 307.203 212.802V212.809Z" fill="#023C47"/>
<path d="M232.09 210.27C232.308 210.463 232.567 210.604 232.847 210.682C233.127 210.76 233.421 210.774 233.707 210.721C233.993 210.669 234.264 210.553 234.499 210.381C234.733 210.209 234.926 209.986 235.062 209.729C235.225 209.449 235.309 209.13 235.303 208.806C235.298 208.482 235.203 208.165 235.03 207.891C234.857 207.617 234.611 207.396 234.321 207.252C234.03 207.108 233.706 207.046 233.383 207.074C232.996 207.035 232.607 207.122 232.275 207.323C231.942 207.524 231.683 207.827 231.538 208.187C231.392 208.547 231.367 208.945 231.467 209.321C231.566 209.696 231.785 210.029 232.09 210.27Z" fill="#023C47"/>
<path d="M414.789 159.363C409.178 156.868 403.682 154.062 397.909 151.937C397.757 151.887 397.594 151.882 397.439 151.923C397.284 151.964 397.145 152.049 397.037 152.168C396.93 152.287 396.86 152.434 396.835 152.593C396.81 152.751 396.831 152.913 396.897 153.059C393.845 160.126 366.115 232.218 365.907 232.761C365.854 232.972 365.884 233.194 365.991 233.383C366.098 233.572 366.274 233.712 366.481 233.776C372.422 236.103 378.363 238.466 384.306 240.796C384.516 240.848 384.739 240.818 384.927 240.711C385.115 240.604 385.255 240.429 385.318 240.221C395.545 213.688 405.503 187.065 415.193 160.351C415.23 160.165 415.211 159.972 415.139 159.796C415.067 159.621 414.946 159.47 414.789 159.363ZM401.691 172.605C401.432 172.846 401.122 173.028 400.785 173.136C400.448 173.244 400.091 173.277 399.739 173.232C399.388 173.187 399.051 173.065 398.752 172.874C398.453 172.684 398.2 172.431 398.01 172.132C397.765 171.656 397.679 171.114 397.765 170.586C397.85 170.058 398.102 169.571 398.484 169.196C398.894 168.211 400.533 168.229 401.487 168.96C401.78 169.157 402.023 169.419 402.198 169.725C402.372 170.032 402.474 170.375 402.493 170.727C402.513 171.08 402.451 171.432 402.312 171.756C402.173 172.08 401.96 172.368 401.691 172.596V172.605Z" fill="#023C47"/>
<path d="M341.398 154.096C341.393 153.873 341.303 153.661 341.146 153.504C340.988 153.347 340.776 153.256 340.554 153.252C334.479 152.983 328.401 152.408 322.325 152.543C322.156 152.549 321.993 152.604 321.853 152.699C321.714 152.795 321.604 152.928 321.537 153.084C321.47 153.239 321.448 153.41 321.474 153.577C321.5 153.744 321.572 153.901 321.683 154.028C321.246 168.141 321.683 182.285 321.784 196.395C321.888 210.709 321.978 225.033 322.056 239.368C322.059 239.591 322.149 239.804 322.306 239.962C322.464 240.12 322.677 240.209 322.9 240.212H342.074C342.296 240.209 342.509 240.12 342.667 239.962C342.825 239.804 342.915 239.591 342.917 239.368C342.682 210.946 341.786 182.53 341.398 154.096ZM329.11 167.667C329.521 166.682 331.159 166.7 332.115 167.432C332.407 167.635 332.648 167.901 332.821 168.211C332.995 168.522 333.095 168.867 333.114 169.222C333.134 169.576 333.072 169.931 332.934 170.258C332.796 170.585 332.585 170.877 332.317 171.11C332.058 171.352 331.749 171.533 331.412 171.642C331.075 171.75 330.719 171.783 330.367 171.738C330.016 171.693 329.679 171.571 329.38 171.381C329.082 171.191 328.828 170.938 328.639 170.639C328.393 170.157 328.306 169.61 328.391 169.077C328.476 168.543 328.727 168.049 329.11 167.667ZM335.017 226.677C333.018 227.162 330.966 227.4 328.908 227.386C328.748 227.375 328.597 227.309 328.48 227.199C328.363 227.088 328.289 226.941 328.269 226.782C328.249 226.623 328.285 226.461 328.371 226.326C328.457 226.19 328.587 226.089 328.74 226.039C330.745 225.6 332.799 225.43 334.849 225.534C335.491 225.494 335.659 226.571 335.017 226.677ZM335.188 224.01C333.168 224.235 331.17 224.381 329.11 224.684C328.918 224.737 328.712 224.712 328.538 224.614C328.364 224.516 328.237 224.353 328.183 224.161C328.13 223.968 328.155 223.763 328.253 223.589C328.351 223.415 328.514 223.287 328.706 223.234C330.846 222.572 333.109 222.408 335.322 222.756C336.097 222.895 335.827 223.938 335.199 224.01H335.188ZM335.964 220.904C333.553 221.478 331.084 221.772 328.605 221.782C328.439 221.776 328.279 221.712 328.155 221.601C328.031 221.49 327.95 221.339 327.926 221.174C327.901 221.01 327.936 220.842 328.022 220.7C328.109 220.557 328.243 220.45 328.401 220.397C330.832 219.898 333.313 219.682 335.794 219.755C335.934 219.756 336.069 219.807 336.175 219.899C336.28 219.991 336.35 220.118 336.37 220.257C336.391 220.395 336.361 220.536 336.287 220.655C336.212 220.774 336.098 220.862 335.964 220.904Z" fill="#023C47"/>
<path d="M364.084 154.096C364.079 153.874 363.988 153.662 363.831 153.505C363.674 153.348 363.462 153.257 363.24 153.252C357.162 152.983 351.087 152.408 345.011 152.543C344.842 152.549 344.679 152.604 344.539 152.699C344.4 152.795 344.29 152.928 344.223 153.084C344.156 153.239 344.134 153.41 344.16 153.577C344.186 153.744 344.259 153.901 344.369 154.028C343.921 168.141 344.369 182.285 344.47 196.395C344.572 210.709 344.662 225.033 344.74 239.368C344.743 239.591 344.833 239.804 344.991 239.961C345.148 240.119 345.361 240.209 345.584 240.212H364.76C364.982 240.209 365.195 240.119 365.352 239.961C365.51 239.804 365.6 239.591 365.603 239.368C365.366 210.946 364.472 182.53 364.084 154.096ZM353.282 167.667C353.693 166.682 355.331 166.7 356.285 167.432C356.577 167.634 356.818 167.901 356.992 168.211C357.165 168.521 357.265 168.867 357.285 169.221C357.304 169.576 357.243 169.93 357.105 170.258C356.967 170.585 356.757 170.877 356.489 171.11C356.23 171.352 355.921 171.534 355.584 171.643C355.246 171.751 354.889 171.784 354.538 171.739C354.186 171.694 353.849 171.572 353.55 171.382C353.251 171.192 352.998 170.938 352.808 170.639C352.564 170.157 352.477 169.61 352.563 169.076C352.648 168.543 352.899 168.049 353.282 167.667ZM357.162 226.508C355.163 226.994 353.111 227.232 351.053 227.217C350.893 227.207 350.742 227.14 350.625 227.03C350.509 226.92 350.434 226.773 350.414 226.614C350.394 226.454 350.43 226.293 350.516 226.158C350.602 226.022 350.732 225.921 350.885 225.871C352.89 225.431 354.944 225.261 356.994 225.364C357.67 225.325 357.804 226.405 357.162 226.508ZM357.333 223.84C355.313 224.064 353.315 224.212 351.255 224.513C351.065 224.559 350.865 224.529 350.697 224.43C350.528 224.331 350.405 224.17 350.353 223.982C350.3 223.794 350.323 223.592 350.416 223.421C350.509 223.249 350.665 223.12 350.851 223.061C352.992 222.401 355.255 222.24 357.468 222.59C358.278 222.756 357.973 223.77 357.333 223.84ZM358.109 220.736C355.697 221.303 353.228 221.597 350.75 221.613C350.584 221.608 350.425 221.544 350.3 221.433C350.176 221.322 350.095 221.171 350.071 221.006C350.046 220.841 350.081 220.673 350.167 220.531C350.254 220.389 350.388 220.282 350.546 220.228C352.977 219.727 355.458 219.512 357.939 219.587C358.614 219.587 358.785 220.606 358.109 220.736Z" fill="#023C47"/>
<path d="M435.044 154.096C435.039 153.874 434.949 153.662 434.791 153.505C434.634 153.348 434.423 153.257 434.2 153.252C428.123 152.983 422.047 152.408 415.969 152.543C415.8 152.549 415.637 152.604 415.497 152.699C415.358 152.795 415.248 152.928 415.181 153.084C415.114 153.239 415.092 153.41 415.118 153.577C415.144 153.744 415.217 153.901 415.327 154.028C414.89 168.141 415.327 182.285 415.431 196.395C415.531 210.709 415.621 225.033 415.7 239.368C415.703 239.591 415.793 239.804 415.95 239.962C416.108 240.12 416.321 240.209 416.544 240.212H435.718C435.94 240.209 436.153 240.12 436.311 239.962C436.469 239.804 436.559 239.591 436.561 239.368C436.326 210.946 435.43 182.53 435.044 154.096ZM424.24 167.667C424.651 166.682 426.291 166.7 427.245 167.432C427.537 167.634 427.779 167.901 427.952 168.211C428.126 168.521 428.226 168.867 428.245 169.222C428.265 169.576 428.203 169.931 428.065 170.258C427.926 170.586 427.715 170.877 427.447 171.11C427.188 171.352 426.879 171.533 426.542 171.642C426.205 171.75 425.848 171.783 425.497 171.738C425.146 171.693 424.809 171.571 424.51 171.381C424.212 171.191 423.958 170.938 423.769 170.639C423.523 170.157 423.436 169.61 423.521 169.077C423.605 168.543 423.857 168.049 424.24 167.667ZM428.663 227.114C426.663 227.602 424.611 227.84 422.552 227.823C422.39 227.815 422.237 227.75 422.118 227.64C421.999 227.53 421.923 227.381 421.903 227.221C421.883 227.06 421.92 226.897 422.008 226.761C422.096 226.625 422.229 226.525 422.384 226.477C424.389 226.037 426.443 225.867 428.493 225.97C429.168 225.934 429.303 227.02 428.663 227.114ZM428.832 224.448C426.812 224.672 424.814 224.82 422.754 225.121C422.564 225.167 422.364 225.137 422.196 225.038C422.027 224.939 421.904 224.778 421.851 224.59C421.799 224.402 421.822 224.201 421.915 224.029C422.008 223.857 422.164 223.728 422.35 223.669C424.49 223.008 426.754 222.847 428.967 223.198C429.777 223.368 429.474 224.376 428.832 224.448ZM429.608 221.342C427.196 221.911 424.727 222.205 422.249 222.219C422.082 222.215 421.922 222.151 421.798 222.04C421.673 221.929 421.591 221.778 421.567 221.613C421.543 221.448 421.578 221.279 421.666 221.137C421.754 220.995 421.889 220.889 422.047 220.837C424.478 220.335 426.959 220.12 429.44 220.195C430.113 220.195 430.284 221.212 429.608 221.342Z" fill="#023C47"/>
<path d="M300.011 274.984C298.351 273.117 297.913 273.088 288.466 265.06C284.014 261.318 282.306 260.169 276.347 259.997C267.199 259.725 190.331 258.713 187.694 258.679C187.509 258.668 187.325 258.723 187.177 258.834C187.028 258.945 186.924 259.106 186.884 259.287C176.849 266.887 170.076 270.81 167.912 275.828C167.549 276.541 167.373 277.334 167.401 278.133C167.429 278.933 167.66 279.712 168.073 280.397C168.485 281.082 169.064 281.651 169.757 282.051C170.45 282.45 171.233 282.667 172.033 282.68C173.379 282.858 292.468 283.39 292.717 283.39C294.807 283.593 296.915 283.457 298.961 282.986C302.655 281.702 302.206 277.451 300.011 274.984ZM295.251 272.991C291.065 273.025 286.88 273.025 282.694 273.025C282.157 272.127 279.258 267.627 277.696 265.531C280.196 265.531 282.694 265.498 285.226 265.464C285.349 265.473 285.472 265.446 285.58 265.386C285.688 265.326 285.776 265.236 285.834 265.127C286.081 265.336 294.656 272.534 295.249 272.991H295.251ZM211.329 273.734C213.996 273.768 225.272 273.903 228.241 273.97C227.635 276.232 227.027 278.495 226.62 280.757C226.599 280.865 226.603 280.976 226.633 281.082C226.663 281.187 226.717 281.284 226.791 281.365L207.581 281.264C208.478 279.689 209.289 278.066 210.012 276.403C210.486 275.498 210.923 274.612 211.329 273.734ZM200.556 260.636C205.622 260.67 210.656 260.773 215.715 260.805C215.266 261.718 214.871 262.663 214.431 263.574C209.098 263.527 203.765 263.494 198.431 263.473C199.14 262.562 199.85 261.617 200.556 260.67C200.536 260.67 200.536 260.636 200.559 260.636H200.556ZM216.896 260.805C221.622 260.84 226.322 260.908 231.035 260.941C230.831 261.853 230.629 262.798 230.461 263.709C225.566 263.675 220.704 263.608 215.809 263.574C215.895 263.392 216.898 261.002 216.898 260.805H216.896ZM213.722 265.069C212.811 267.06 210.58 271.887 210.382 272.291C205.959 272.26 193.536 272.123 191.714 272.089C194.903 267.838 194.591 268.346 197.181 265.002C203.575 264.993 213.437 265.058 213.724 265.06L213.722 265.069ZM215.208 265.069C217.504 265.103 227.496 265.204 230.198 265.237C229.076 270.864 229.789 267.526 228.678 272.529L212.034 272.327C212.306 271.58 214.487 266.784 215.21 265.06L215.208 265.069ZM227.936 281.136C228.757 278.8 229.411 276.408 229.893 273.979C235.598 274.049 241.339 274.15 247.042 274.217C247.21 276.648 247.415 279.078 247.617 281.475L227.801 281.374C227.866 281.305 227.913 281.22 227.938 281.127L227.936 281.136ZM230.198 272.495C230.595 270.375 230.871 269.62 231.648 265.204C236.612 265.271 241.572 265.305 246.571 265.372C246.638 267.802 246.773 270.267 246.975 272.697C241.383 272.653 235.791 272.583 230.2 272.486L230.198 272.495ZM247.989 265.399C252.783 265.432 257.577 265.5 262.371 265.5C263.249 267.969 264.092 270.437 264.97 272.926C259.839 272.893 248.496 272.758 248.496 272.758C248.362 270.291 248.193 267.868 247.989 265.399ZM263.891 265.533C267.874 265.533 271.889 265.567 275.873 265.533C276.648 266.656 279.976 271.38 280.939 273.027C276.145 273.027 271.384 272.994 266.59 272.96C265.746 270.464 264.846 267.987 263.891 265.531V265.533ZM284.382 263.947C281.783 263.98 279.181 263.98 276.582 263.98C275.956 263.182 275.303 262.405 274.625 261.651C274.885 261.645 275.144 261.657 275.402 261.687C278.565 261.392 281.734 262.189 284.382 263.944V263.947ZM273.476 261.651C273.386 261.924 273.701 262.324 274.823 264.05C270.974 264.05 267.093 264.05 263.244 264.014C262.88 263.143 262.506 262.277 262.122 261.415C262.135 261.413 269.798 261.547 273.478 261.648L273.476 261.651ZM260.91 261.345C261.209 262.222 261.513 263.1 261.821 263.978L247.845 263.877C247.827 263.628 247.576 260.861 247.576 261.11C252.04 261.211 256.498 261.278 260.91 261.345ZM246.461 261.11C246.461 262.021 246.461 262.932 246.497 263.843C241.635 263.81 236.74 263.742 231.879 263.709C232.014 262.798 232.148 261.853 232.216 260.941C234.319 260.975 243.837 261.076 246.47 261.11H246.461ZM198.828 260.603C198.018 261.547 197.244 262.492 196.467 263.473C192.145 263.439 187.824 263.473 183.537 263.675C184.955 262.624 186.351 261.544 187.723 260.434C191.411 260.502 195.125 260.535 198.837 260.603H198.828ZM181.85 264.925C186.305 265.094 190.76 265.06 195.217 265.026C193.933 266.68 190.356 271.371 189.851 272.047C184.143 271.979 178.474 271.979 172.769 272.215C175.361 269.82 179.12 266.97 181.859 264.925H181.85ZM176.043 281.085C174.023 281.085 170.432 281.558 169.29 279.397C168.211 277.406 170.168 274.942 171.552 273.49C177.258 273.658 182.999 273.591 188.702 273.591C186.796 275.995 185.049 278.521 183.47 281.152C180.981 281.094 178.517 281.094 176.052 281.094L176.043 281.085ZM185.124 281.118C187.048 278.688 188.836 276.089 190.659 273.557C190.659 273.557 204.433 273.624 209.666 273.692C209.26 274.502 208.89 275.312 208.484 276.161C207.59 277.779 206.79 279.447 206.087 281.157C206.087 281.19 206.053 281.224 206.053 281.26C204.352 281.264 190.398 281.161 185.133 281.127L185.124 281.118ZM249.062 281.457C248.886 279.039 248.728 276.62 248.588 274.199L265.468 274.401C266.245 276.731 267.021 279.06 267.728 281.424C267.729 281.45 267.736 281.475 267.748 281.499C267.76 281.522 267.777 281.542 267.798 281.558C265.444 281.558 252.918 281.5 249.071 281.466L249.062 281.457ZM269.113 281.558C269.275 281.235 269.338 281.603 267.055 274.401C268.608 274.401 278.463 274.468 281.841 274.502C283.123 276.955 284.543 279.333 286.094 281.626C280.465 281.635 274.794 281.601 269.122 281.558H269.113ZM297.471 281.592C295.158 281.815 292.83 281.838 290.513 281.659C289.333 281.659 288.15 281.659 287.003 281.626C287.842 280.952 285.811 278.05 283.661 274.468C288.116 274.468 292.607 274.468 297.062 274.401C297.734 274.988 298.365 275.619 298.952 276.291C300.584 278.36 300.382 281.123 297.48 281.601L297.471 281.592Z" fill="#023C47"/>
<path d="M348.858 281.534C350.474 281.28 352.044 280.791 353.517 280.082C353.62 280.015 353.699 279.918 353.742 279.803C353.786 279.689 353.79 279.563 353.756 279.445C353.722 279.328 353.651 279.224 353.553 279.151C353.456 279.077 353.337 279.036 353.214 279.036C351.585 279.151 349.981 279.503 348.454 280.082C340.671 282.178 336.64 283.118 332.824 284.402C332.755 284.422 332.691 284.455 332.635 284.5C332.579 284.545 332.533 284.6 332.498 284.663C332.463 284.725 332.442 284.794 332.434 284.865C332.426 284.937 332.432 285.009 332.452 285.078C332.472 285.146 332.505 285.211 332.549 285.267C332.594 285.322 332.65 285.369 332.712 285.404C332.775 285.438 332.844 285.46 332.915 285.468C332.986 285.476 333.058 285.47 333.127 285.45C337.158 284.68 342.275 283.251 348.858 281.534Z" fill="#191919"/>
<path d="M351.931 285.347C353.486 284.996 355.001 284.487 356.453 283.83C356.96 283.558 356.758 282.613 356.15 282.68C354.583 282.929 353.045 283.337 351.56 283.897C347.493 285.116 341.202 287.07 336.536 288.691C336.404 288.732 336.292 288.823 336.224 288.944C336.157 289.066 336.139 289.209 336.174 289.343C336.209 289.478 336.294 289.594 336.412 289.667C336.53 289.74 336.672 289.765 336.808 289.737C345.355 287.43 347.081 286.776 351.931 285.347Z" fill="#191919"/>
<path d="M358.446 286.967C355.364 287.657 352.33 288.548 349.365 289.636C346.326 290.513 343.323 291.391 340.285 292.302C340.153 292.349 340.045 292.443 339.982 292.567C339.918 292.691 339.904 292.834 339.943 292.968C339.982 293.101 340.07 293.215 340.19 293.286C340.31 293.357 340.452 293.379 340.588 293.348C343.775 292.652 346.939 291.853 350.074 290.951C353.099 290.277 356.059 289.34 358.92 288.15C359.662 287.777 359.122 286.864 358.446 286.967Z" fill="#191919"/>
<path d="M348.622 343.784C345.533 334.309 344.577 324.269 345.821 314.382C345.956 313.3 344.268 313.336 344.131 314.382C342.953 323.907 343.758 333.573 346.495 342.771C329.286 338.358 311.854 334.865 294.273 332.308C294.524 323.333 297.144 314.583 301.868 306.947C306.594 299.823 313.177 294.118 319.423 288.413C319.995 287.872 319.152 287.097 318.577 287.569C301.419 301.533 293.707 310.686 292.417 333.042C292.415 333.242 292.48 333.438 292.602 333.597C292.724 333.756 292.896 333.869 293.09 333.92C311.422 336.653 329.55 340.428 347.543 344.823C347.689 344.863 347.842 344.865 347.989 344.827C348.135 344.79 348.27 344.716 348.379 344.611C348.488 344.506 348.567 344.374 348.61 344.229C348.653 344.084 348.657 343.931 348.622 343.784Z" fill="#191919"/>
<path d="M307.674 322.314C307.032 322.278 306.864 323.36 307.506 323.461C311.994 324.17 316.519 324.778 320.972 325.622C325.461 326.466 329.851 327.781 334.308 328.558C334.498 328.603 334.698 328.573 334.866 328.474C335.035 328.375 335.158 328.215 335.21 328.027C335.263 327.838 335.24 327.637 335.147 327.465C335.054 327.294 334.898 327.165 334.712 327.106C325.886 324.592 316.826 322.987 307.674 322.314Z" fill="#191919"/>
<path d="M333.194 320.051C325.501 318.16 317.7 316.736 309.835 315.787C309.162 315.718 309.025 316.833 309.667 316.934C317.363 318.42 325.092 319.802 332.723 321.627C333.803 321.908 334.24 320.292 333.194 320.051Z" fill="#191919"/>
<path d="M312.804 311.442C318.01 312.132 323.156 313.216 328.198 314.683C329.797 315.363 331.459 315.884 333.161 316.236C333.87 316.303 333.937 315.359 333.5 315.022C326.992 312.221 320.021 310.653 312.941 310.396C312.367 310.363 312.194 311.323 312.804 311.442Z" fill="#191919"/>
<path d="M396.389 275.321C403.035 276.219 403.672 276.784 405.742 276.74C406.314 276.74 406.653 275.862 406.045 275.593C403.094 274.627 400.03 274.048 396.93 273.869C393.555 273.354 390.148 273.072 386.734 273.025C386.128 273.025 385.96 274.006 386.599 274.107C389.84 274.612 393.149 274.886 396.389 275.321Z" fill="#191919"/>
<path d="M385.789 278.36C390.469 278.84 393.481 278.697 399.969 279.779C401.376 280.175 402.828 280.391 404.29 280.42C404.421 280.419 404.549 280.375 404.653 280.294C404.757 280.214 404.832 280.101 404.866 279.974C404.901 279.847 404.892 279.712 404.843 279.59C404.794 279.468 404.706 279.366 404.593 279.298C403.167 278.683 401.651 278.304 400.104 278.176C395.397 277.304 390.604 276.987 385.823 277.231C385.082 277.382 385.082 278.288 385.789 278.36Z" fill="#191919"/>
<path d="M384.541 282.882C391.427 283.269 396.74 283.852 398.416 284.005C399.761 284.264 401.135 284.339 402.501 284.229C402.608 284.197 402.703 284.135 402.776 284.05C402.848 283.965 402.894 283.861 402.908 283.75C402.923 283.639 402.904 283.527 402.856 283.426C402.808 283.326 402.731 283.241 402.636 283.183C401.485 282.774 400.278 282.547 399.058 282.51C394.225 281.992 389.368 281.721 384.508 281.7C384.357 281.712 384.216 281.782 384.115 281.895C384.014 282.008 383.96 282.156 383.965 282.307C383.969 282.459 384.031 282.603 384.138 282.71C384.246 282.817 384.39 282.879 384.541 282.882Z" fill="#191919"/>
<path d="M418.465 267.219C387.028 265.549 384.092 264.999 383.392 265.971C379.823 271.267 376.58 276.776 373.683 282.467C365.787 277.675 357.27 272.547 351.861 268.907C350.127 267.548 348.159 266.519 346.055 265.87C345.973 265.847 345.887 265.841 345.802 265.853C345.718 265.864 345.637 265.893 345.564 265.937C345.491 265.981 345.428 266.04 345.379 266.11C345.33 266.179 345.296 266.258 345.278 266.341C344.998 266.377 311.837 273.604 309.528 274.715C309.227 274.859 308.913 275.534 309.258 275.896C316.398 283.322 339.135 305.67 344.199 310.363C344.673 310.582 345.199 310.664 345.718 310.6C350.4 309.836 355.034 308.807 359.6 307.519C360.006 323.308 360.704 339.068 360.538 354.889C360.541 355.112 360.63 355.325 360.788 355.482C360.946 355.64 361.159 355.73 361.382 355.733C376.741 356.032 392.089 356.347 407.427 356.677C407.534 356.679 407.64 356.659 407.738 356.619C407.837 356.579 407.927 356.52 408.003 356.444C408.078 356.369 408.138 356.279 408.178 356.181C408.218 356.082 408.239 355.976 408.237 355.869C407.764 346.01 407.023 336.119 405.941 326.298C405.834 325.319 404.254 325.283 404.355 326.298C405.232 335.883 406.076 345.435 406.583 355.057C391.797 354.72 377.023 354.394 362.259 354.078C362.619 338.441 362.101 322.796 360.708 307.216C371.509 304.31 382.099 300.67 392.403 296.319C392.978 296.319 393.276 295.422 392.852 294.935C391.36 293.281 383.821 288.619 375.229 283.401C378.042 278.192 381.487 272.127 384.142 266.882C384.175 266.882 384.209 266.916 384.245 266.916C390.276 267.67 392.145 267.437 417.361 268.873C407.533 296.762 408.536 288.861 410.439 320.996L368.469 322.314C367.98 317.31 367.744 312.286 367.76 307.259C367.749 307.047 367.657 306.847 367.503 306.701C367.349 306.555 367.145 306.473 366.933 306.473C366.721 306.473 366.517 306.555 366.363 306.701C366.209 306.847 366.117 307.047 366.106 307.259C366.078 312.568 366.338 317.874 366.883 323.155C366.884 323.379 366.974 323.593 367.132 323.751C367.289 323.909 367.503 323.999 367.726 324.002C382.283 323.777 396.793 323.054 411.344 322.617C411.566 322.613 411.779 322.523 411.936 322.366C412.094 322.208 412.184 321.996 412.187 321.773C411.915 317.148 411.645 312.522 411.377 307.896C410.374 291.119 410.199 293.943 419.343 268.267C419.361 268.139 419.352 268.009 419.317 267.885C419.282 267.761 419.221 267.646 419.138 267.547C419.055 267.448 418.952 267.368 418.836 267.311C418.72 267.255 418.594 267.223 418.465 267.219ZM390.11 295.238C388.96 295.687 387.78 296.319 386.7 296.723C365.278 304.756 358.89 305.308 345.446 309.213C336.02 299.697 336.631 300.55 327.826 291.999C322.255 286.563 316.718 281.029 310.879 275.84C312.225 275.707 341.373 269.12 342.075 268.952C343.591 268.719 345.075 268.311 346.497 267.737C348.05 268.752 349.704 269.593 351.224 270.639C361.099 277.458 372.873 283.852 386.063 292.41C387.376 293.281 388.727 294.362 390.112 295.238H390.11Z" fill="#191919"/>
<path d="M372.523 341.387C376.613 341.855 380.727 342.092 384.844 342.096C388.972 342.36 393.114 342.303 397.233 341.925C398.077 341.824 397.774 340.61 397.031 340.543C393.048 340.17 388.862 340.543 384.844 340.509C380.793 340.442 376.709 340.204 372.658 340.408C372.119 340.442 371.917 341.308 372.523 341.387Z" fill="#191919"/>
<path d="M373.908 336.727C380.331 336.669 380.576 336.357 390.482 336.357C392.297 336.498 394.123 336.418 395.918 336.119C396.017 336.086 396.103 336.022 396.164 335.938C396.225 335.853 396.258 335.751 396.258 335.647C396.258 335.542 396.225 335.44 396.164 335.356C396.103 335.271 396.017 335.207 395.918 335.174C394.246 334.805 392.531 334.669 390.821 334.77C385.174 334.692 379.527 334.939 373.908 335.511C373.165 335.681 373.129 336.734 373.908 336.727Z" fill="#191919"/>
<path d="M101.276 273.03C100.652 267.163 100.022 262.221 98.949 256.32C98.7383 253.893 98.0252 251.537 96.855 249.401C96.1509 248.571 95.2413 247.941 94.2172 247.574C93.1931 247.206 92.0905 247.114 91.0196 247.307C87.7787 247.374 84.5378 247.441 81.3306 247.542C81.6965 244.014 80.8818 239.393 77.5152 238.834C72.8604 238.049 70.5374 245.356 69.9202 246.869C68.4134 246.526 66.8401 246.616 65.3825 247.13C63.9248 247.643 62.6423 248.559 61.6834 249.771C59.32 252.639 58.8824 257.164 57.8343 260.641C56.5191 265.098 55.2016 269.553 53.8864 274.044C52.8046 277.756 51.8261 282.685 56.6874 283.935C59.1177 284.345 61.5839 284.503 64.0467 284.406C73.6796 284.736 82.6436 285.039 90.7839 284.577C94.7655 284.373 100.978 285.048 101.721 279.85C101.794 277.568 101.645 275.283 101.276 273.03ZM74.5257 242.037C75.585 240.78 76.8711 239.941 78.1167 240.989C80.177 242.746 79.7371 246.526 79.3668 248.855C78.0876 254.441 76.2437 259.881 73.8636 265.093C71.213 271.849 70.432 275.115 68.4277 276.706C68.1266 277.014 67.7623 277.253 67.3599 277.407C66.9575 277.561 66.5265 277.625 66.0967 277.597C65.6668 277.568 65.2483 277.446 64.87 277.24C64.4917 277.034 64.1626 276.748 63.9053 276.403C63.0235 274.41 62.8966 272.164 63.5485 270.085C64.4125 265.702 71.2309 245.933 74.5257 242.037ZM99.353 281.365C98.3937 282.143 97.1757 282.528 95.9438 282.445C84.7333 283.129 73.4925 283.162 62.2781 282.546C60.1336 282.76 57.9681 282.507 55.931 281.803C53.6687 280.555 54.4453 277.617 55.0198 275.626C56.0994 271.811 57.2822 267.995 58.3864 264.18C60.5589 256.809 61.0639 251.672 64.3609 249.223C65.8601 248.319 67.6262 247.961 69.3591 248.211C67.2409 253.033 65.3924 257.97 63.8223 262.997C62.4594 266.294 61.6715 269.799 61.4926 273.362C61.4926 280.319 67.8307 281.127 71.0469 276.264C72.7797 273.061 74.1821 269.691 75.2327 266.204C77.6379 260.731 79.5692 255.061 81.0052 249.257C83.3349 249.19 85.6959 249.156 88.0256 249.089C90.1533 249.021 93.6635 248.312 95.2502 250.067C96.2675 251.552 96.8858 253.273 97.0457 255.066C98.3823 261.873 99.3518 268.747 99.95 275.658C100.197 277.381 100.632 279.942 99.353 281.365Z" fill="#191919"/>
<path d="M80.6506 256.248C80.4281 256.282 80.2158 256.365 80.0288 256.49C79.8419 256.615 79.6848 256.78 79.5689 256.973C79.4529 257.166 79.3809 257.382 79.358 257.606C79.3351 257.83 79.3619 258.056 79.4364 258.268C79.4398 258.516 79.5242 258.756 79.6765 258.951C79.8289 259.146 80.0409 259.287 80.2803 259.35C80.775 259.492 81.3049 259.444 81.766 259.215C81.9771 259.063 82.1462 258.859 82.258 258.624C82.3698 258.389 82.4206 258.129 82.4057 257.869C82.4075 257.644 82.3623 257.421 82.2729 257.215C82.1835 257.008 82.052 256.823 81.8867 256.67C81.7215 256.518 81.5261 256.401 81.3132 256.329C81.1004 256.256 80.8747 256.229 80.6506 256.248Z" fill="#191919"/>
<path d="M87.8415 256.248C87.619 256.282 87.4067 256.365 87.2198 256.49C87.0328 256.615 86.8757 256.78 86.7598 256.973C86.6438 257.166 86.5719 257.382 86.549 257.606C86.5261 257.83 86.5528 258.056 86.6273 258.268C86.6307 258.516 86.7151 258.756 86.8674 258.951C87.0198 259.146 87.2318 259.287 87.4712 259.35C87.9652 259.492 88.4944 259.444 88.9547 259.215C89.1664 259.063 89.3363 258.86 89.4485 258.625C89.5607 258.389 89.6117 258.129 89.5966 257.869C89.5984 257.644 89.5532 257.421 89.4638 257.215C89.3744 257.008 89.2429 256.823 89.0776 256.67C88.9124 256.518 88.717 256.401 88.5042 256.329C88.2913 256.256 88.0656 256.229 87.8415 256.248Z" fill="#191919"/>
<path d="M94.7612 256.248C94.4255 256.322 94.121 256.499 93.8901 256.754C93.6592 257.008 93.5133 257.329 93.4726 257.67C93.4319 258.011 93.4984 258.357 93.663 258.659C93.8275 258.961 94.0819 259.204 94.3909 259.355C94.8857 259.496 95.4155 259.448 95.8767 259.22C96.088 259.067 96.2575 258.864 96.3696 258.629C96.4818 258.393 96.533 258.134 96.5186 257.873C96.528 257.646 96.4879 257.419 96.4011 257.209C96.3142 256.998 96.1826 256.809 96.0155 256.655C95.8483 256.5 95.6496 256.384 95.433 256.314C95.2165 256.244 94.9873 256.221 94.7612 256.248Z" fill="#191919"/>
<path d="M79.9079 267.194C80.4022 267.341 80.9338 267.292 81.3937 267.06C81.5789 266.924 81.7325 266.75 81.8437 266.549C81.9549 266.348 82.0212 266.126 82.0379 265.897C82.0546 265.668 82.0214 265.438 81.9405 265.223C81.8596 265.008 81.733 264.813 81.5695 264.652C81.4059 264.491 81.2093 264.368 80.9932 264.29C80.7772 264.212 80.5469 264.183 80.3182 264.203C80.0895 264.223 79.8679 264.293 79.6688 264.407C79.4697 264.521 79.2978 264.677 79.1651 264.865C79.0604 265.066 78.9967 265.287 78.9774 265.513C78.9581 265.739 78.9838 265.967 79.0528 266.184C79.1218 266.4 79.2329 266.601 79.3796 266.774C79.5264 266.948 79.7059 267.09 79.9079 267.194Z" fill="#191919"/>
<path d="M87.0989 267.194C87.5933 267.339 88.1244 267.291 88.5846 267.06C88.7699 266.924 88.9234 266.75 89.0346 266.549C89.1458 266.348 89.2121 266.126 89.2288 265.897C89.2455 265.668 89.2123 265.438 89.1314 265.223C89.0505 265.008 88.9239 264.813 88.7604 264.652C88.5968 264.491 88.4002 264.368 88.1842 264.29C87.9681 264.212 87.7378 264.183 87.5091 264.203C87.2804 264.223 87.0589 264.293 86.8598 264.407C86.6607 264.521 86.4888 264.677 86.356 264.865C86.2514 265.066 86.1876 265.287 86.1683 265.513C86.1491 265.739 86.1747 265.967 86.2437 266.184C86.3127 266.4 86.4238 266.601 86.5705 266.774C86.7173 266.948 86.8968 267.09 87.0989 267.194Z" fill="#191919"/>
<path d="M94.0539 267.194C94.5478 267.337 95.0774 267.289 95.5375 267.06C95.7211 266.924 95.8731 266.75 95.9831 266.549C96.093 266.349 96.1583 266.127 96.1744 265.899C96.1905 265.671 96.1571 265.443 96.0764 265.229C95.9957 265.015 95.8696 264.821 95.7069 264.661C95.5442 264.501 95.3487 264.377 95.1338 264.3C94.919 264.222 94.6898 264.192 94.4621 264.211C94.2345 264.231 94.0137 264.299 93.815 264.412C93.6163 264.525 93.4444 264.679 93.3111 264.865C92.9407 265.437 93.0687 266.9 94.0539 267.194Z" fill="#191919"/>
<path d="M80.3814 271.811C80.0455 271.884 79.7409 272.061 79.5097 272.315C79.2785 272.57 79.1323 272.89 79.0914 273.232C79.0504 273.573 79.1168 273.919 79.2812 274.221C79.4456 274.523 79.6999 274.766 80.0089 274.917C80.5036 275.059 81.0335 275.011 81.4947 274.782C81.7064 274.63 81.8762 274.427 81.9884 274.192C82.1007 273.956 82.1516 273.696 82.1365 273.436C82.1429 273.209 82.1008 272.984 82.013 272.775C81.9253 272.567 81.7939 272.379 81.6277 272.225C81.4615 272.071 81.2643 271.955 81.0494 271.883C80.8344 271.812 80.6067 271.787 80.3814 271.811Z" fill="#191919"/>
<path d="M87.6063 271.811C87.3836 271.844 87.1711 271.927 86.9839 272.052C86.7966 272.177 86.6393 272.342 86.5231 272.535C86.4069 272.728 86.3348 272.944 86.3117 273.168C86.2887 273.392 86.3154 273.618 86.3899 273.831C86.3941 274.078 86.4787 274.318 86.6309 274.513C86.7831 274.708 86.9948 274.848 87.2338 274.913C87.7285 275.054 88.2584 275.006 88.7195 274.778C88.9313 274.626 89.1011 274.422 89.2133 274.187C89.3255 273.952 89.3765 273.692 89.3614 273.431C89.3615 273.207 89.3152 272.985 89.2252 272.779C89.1352 272.574 89.0037 272.389 88.8388 272.237C88.6739 272.084 88.4793 271.968 88.2671 271.895C88.055 271.821 87.83 271.793 87.6063 271.811Z" fill="#191919"/>
<path d="M94.5256 271.811C94.3031 271.845 94.0908 271.927 93.9038 272.052C93.7169 272.178 93.5598 272.343 93.4439 272.536C93.3279 272.728 93.2559 272.945 93.233 273.168C93.2101 273.392 93.2369 273.618 93.3114 273.831C93.3148 274.078 93.3991 274.318 93.5515 274.514C93.7039 274.709 93.9159 274.849 94.1553 274.913C94.65 275.054 95.1799 275.006 95.641 274.778C95.8521 274.625 96.0212 274.422 96.133 274.186C96.2448 273.951 96.2956 273.691 96.2807 273.431C96.2808 273.207 96.2344 272.985 96.1445 272.779C96.0545 272.574 95.9229 272.389 95.7581 272.237C95.5932 272.084 95.3985 271.968 95.1864 271.895C94.9743 271.821 94.7493 271.793 94.5256 271.811Z" fill="#191919"/>
<path d="M80.0427 287.777C78.2135 290.471 76.4988 293.314 74.8111 296.082C73.406 298.139 72.5041 300.497 72.1784 302.967C72.1076 308.787 72.6166 314.6 73.6979 320.319C57.6611 319.003 41.6931 317.147 25.7939 314.748C26.4021 310.529 27.1114 306.343 27.9216 302.157C28.7655 297.736 29.5757 293.685 32.7829 290.343C37.0472 285.939 48.0851 278.501 53.2067 274.475C53.779 274.026 53.0384 273.16 52.4638 273.496C48.4629 275.891 44.6283 278.553 40.9861 281.464C30.662 289.407 28.6084 290.922 26.6378 300.766C25.6941 305.536 24.8835 310.332 24.2071 315.148C24.1566 315.344 24.1848 315.553 24.2858 315.73C24.3868 315.906 24.5526 316.036 24.748 316.092C41.3235 318.59 57.9551 320.535 74.6427 321.928C74.7611 321.926 74.8774 321.897 74.9829 321.844C75.0885 321.79 75.1805 321.713 75.2521 321.619C75.3236 321.525 75.3728 321.416 75.396 321.3C75.4191 321.184 75.4156 321.064 75.3856 320.949C74.136 315.238 73.5695 309.398 73.6979 303.553C73.9672 299.064 77.0824 295.976 81.2592 288.496C81.3063 288.416 81.3373 288.327 81.3503 288.235C81.3633 288.144 81.3581 288.05 81.3349 287.96C81.3118 287.87 81.2712 287.786 81.2155 287.712C81.1597 287.638 81.0899 287.575 81.01 287.528C80.9302 287.481 80.8418 287.45 80.7499 287.437C80.6581 287.424 80.5646 287.429 80.4748 287.452C80.385 287.476 80.3006 287.516 80.2264 287.572C80.1523 287.628 80.0899 287.697 80.0427 287.777Z" fill="#191919"/>
<path d="M58.5054 305.838C43.2122 303.593 40.2609 302.992 34.7734 302.496C34.2011 302.429 34.0642 303.407 34.6387 303.51C38.1983 304.24 40.7188 304.655 58.4291 307.189C60.767 307.78 63.1761 308.042 65.5864 307.966C65.668 307.944 65.7414 307.9 65.7972 307.836C65.8529 307.773 65.8885 307.695 65.8994 307.611C65.9103 307.528 65.8959 307.443 65.8581 307.368C65.8203 307.292 65.7609 307.23 65.6874 307.189C63.3702 306.398 60.9516 305.943 58.5054 305.838Z" fill="#191919"/>
<path d="M51.418 298.31C46.4556 297.794 41.4574 297.298 36.4614 297.062C35.8891 297.029 35.7545 297.974 36.3268 298.041C40.4115 298.616 57.7808 300.346 58.0344 300.371C60.5509 300.84 63.1053 301.078 65.6652 301.08C65.8033 301.075 65.9354 301.022 66.0383 300.93C66.1413 300.838 66.2086 300.712 66.2287 300.575C66.2487 300.439 66.2201 300.299 66.1479 300.182C66.0757 300.064 65.9645 299.975 65.8336 299.931C63.6072 299.226 62.8845 299.513 51.418 298.31Z" fill="#191919"/>
<path d="M41.1542 291.795C41.0393 291.797 40.9291 291.841 40.8432 291.917C40.7572 291.993 40.7012 292.098 40.685 292.211C40.6688 292.325 40.6936 292.441 40.7549 292.538C40.8161 292.635 40.9099 292.708 41.0195 292.742C44.6981 293.449 48.4125 293.956 52.1247 294.362C55.9844 294.974 59.8878 295.266 63.7955 295.238C64.3341 295.206 64.5384 294.362 63.9301 294.226C60.2302 293.617 56.4997 293.211 52.7554 293.011C48.9197 292.605 45.0415 292.107 41.1542 291.795Z" fill="#191919"/>
<path d="M151.34 167.499H150.734C149.879 159.006 149.713 150.48 149.113 141.987C149.112 141.8 149.036 141.621 148.903 141.489C148.771 141.356 148.591 141.282 148.404 141.28C148.031 141.312 147.695 141.345 147.325 141.379C147.137 141.382 146.958 141.458 146.825 141.591C146.693 141.724 146.618 141.903 146.615 142.091C148.355 168.799 147.755 166.469 148.112 167.477H147.316C146.478 158.982 146.386 150.48 145.704 142.025C145.702 141.838 145.627 141.659 145.494 141.526C145.362 141.393 145.182 141.318 144.995 141.316L143.913 141.419C143.726 141.422 143.547 141.497 143.415 141.63C143.283 141.763 143.208 141.942 143.206 142.129C144.84 167.228 144.369 166.159 144.685 167.461L136.033 167.427C137.939 159.217 140.425 151.194 142.542 143.038C142.576 142.949 142.591 142.855 142.585 142.76C142.579 142.666 142.552 142.574 142.507 142.491C142.462 142.407 142.4 142.335 142.324 142.278C142.248 142.221 142.161 142.182 142.068 142.162C141.729 142.1 141.359 141.992 141.022 141.924C140.931 141.898 140.836 141.891 140.742 141.903C140.648 141.914 140.558 141.945 140.476 141.992C140.394 142.039 140.323 142.103 140.266 142.178C140.209 142.254 140.168 142.34 140.145 142.432C133.762 164.864 133.436 166.222 133.335 167.418H131.221C133.127 159.215 135.611 151.194 137.714 143.044C137.745 142.956 137.757 142.862 137.75 142.769C137.742 142.675 137.715 142.585 137.671 142.502C137.626 142.42 137.565 142.348 137.491 142.29C137.417 142.233 137.331 142.192 137.241 142.169C136.904 142.104 136.531 141.999 136.195 141.931C136.104 141.906 136.009 141.898 135.915 141.91C135.821 141.922 135.731 141.952 135.649 141.999C135.567 142.047 135.495 142.11 135.438 142.185C135.382 142.261 135.34 142.347 135.317 142.438C128.808 165.275 128.649 166.213 128.557 167.407H127.682C126.47 158.95 125.974 150.384 124.919 141.902C124.918 141.792 124.891 141.684 124.841 141.586C124.792 141.488 124.72 141.403 124.631 141.338C124.543 141.273 124.441 141.229 124.332 141.21C124.224 141.191 124.113 141.197 124.008 141.229C123.637 141.296 123.298 141.327 122.928 141.395C122.781 141.44 122.65 141.528 122.554 141.648C122.458 141.768 122.399 141.915 122.387 142.068C124.632 165.825 124.632 166.2 124.98 167.396H122.987C121.81 158.941 121.314 150.381 120.262 141.904C120.26 141.794 120.234 141.686 120.183 141.588C120.133 141.491 120.061 141.406 119.973 141.34C119.884 141.275 119.782 141.231 119.673 141.212C119.565 141.193 119.454 141.2 119.348 141.231C118.978 141.298 118.641 141.33 118.269 141.397C118.122 141.442 117.991 141.531 117.895 141.651C117.799 141.771 117.74 141.917 117.728 142.07C117.728 142.205 117.764 142.34 117.764 142.474C117.669 142.328 117.525 142.221 117.358 142.171C117.021 142.104 116.648 142.001 116.312 141.933C116.221 141.907 116.126 141.9 116.032 141.912C115.938 141.923 115.847 141.954 115.765 142.001C115.683 142.048 115.612 142.112 115.555 142.187C115.498 142.263 115.457 142.349 115.434 142.441C109.087 164.743 108.737 166.175 108.636 167.353L104.241 167.34C103.041 158.908 102.558 150.368 101.492 141.911C101.491 141.801 101.464 141.693 101.414 141.596C101.364 141.498 101.292 141.414 101.204 141.348C101.115 141.283 101.013 141.239 100.905 141.22C100.797 141.201 100.686 141.207 100.581 141.238C100.208 141.305 99.8717 141.336 99.4991 141.404C99.3522 141.449 99.2224 141.538 99.1263 141.658C99.0303 141.778 98.9725 141.924 98.9605 142.077C101.075 164.471 101.187 166.188 101.494 167.326H99.2096C98.0089 158.901 97.5106 150.368 96.4602 141.918C96.4592 141.808 96.4327 141.7 96.3828 141.602C96.3329 141.504 96.2609 141.419 96.1725 141.354C96.0842 141.289 95.9819 141.245 95.8737 141.226C95.7655 141.207 95.6543 141.213 95.549 141.244C95.1787 141.312 94.842 141.343 94.4695 141.411C94.3223 141.456 94.1921 141.544 94.0957 141.664C93.9993 141.784 93.9411 141.93 93.9286 142.084C96.2897 167.057 96.1348 165.903 96.5568 167.315H95.3583C94.1598 158.892 93.6615 150.363 92.6134 141.92C92.6119 141.81 92.5851 141.702 92.535 141.605C92.485 141.507 92.413 141.422 92.3248 141.357C92.2366 141.292 92.1345 141.248 92.0264 141.229C91.9184 141.21 91.8075 141.216 91.7022 141.247C91.3296 141.314 90.9929 141.345 90.6204 141.413C90.4735 141.458 90.3436 141.547 90.2476 141.667C90.1515 141.787 90.0938 141.933 90.0817 142.086C92.4316 166.963 92.2857 165.915 92.7032 167.299H90.2927C89.0965 158.885 88.5982 150.363 87.5501 141.938C87.5486 141.828 87.5218 141.72 87.4717 141.623C87.4217 141.525 87.3497 141.44 87.2615 141.375C87.1733 141.31 87.0711 141.266 86.9631 141.247C86.8551 141.228 86.7441 141.234 86.6389 141.265C86.2663 141.332 85.9296 141.363 85.5571 141.431C85.4102 141.476 85.2803 141.565 85.1843 141.685C85.0882 141.805 85.0305 141.951 85.0184 142.104C87.3526 166.826 87.2246 165.944 87.6331 167.29C85.1185 167.282 82.604 167.258 80.0898 167.219C80.0112 167.213 79.9324 167.225 79.8593 167.254C79.7863 167.284 79.7211 167.33 79.6687 167.389C79.6164 167.448 79.5784 167.518 79.5576 167.594C79.5368 167.67 79.5338 167.749 79.5489 167.827C78.8464 168.879 79.1157 203.815 79.0753 212.288C79.0753 214.548 79.2796 216.844 79.21 219.138C79.2081 219.218 79.2244 219.298 79.2575 219.372C79.2906 219.445 79.3398 219.51 79.4014 219.562C79.463 219.614 79.5354 219.651 79.6134 219.671C79.6913 219.692 79.7728 219.694 79.8519 219.679C80.1885 219.847 86.3202 219.813 86.5693 219.813C88.639 219.989 90.7215 219.944 92.7817 219.679C92.7311 221.775 92.7986 223.874 92.9837 225.963C93.0174 226.347 93.1071 226.598 95.2977 226.737C101.732 227.139 109.983 227.22 115.946 227.143C118.009 227.291 120.082 227.201 122.125 226.876C122.733 226.739 122.798 225.694 122.125 225.593C120.205 225.411 118.274 225.399 116.352 225.559C107.862 225.664 112.407 225.456 93.9353 225.456C93.969 222.857 94.1732 220.294 94.1732 217.692C94.1732 214.283 93.9017 210.905 94.0386 207.496C94.2742 200.88 94.8151 193.285 98.5946 187.613C100.608 184.817 103.206 182.492 106.208 180.802C109.21 179.111 112.545 178.095 115.98 177.823C119.433 177.498 122.904 178.231 125.931 179.925C128.958 181.62 131.398 184.194 132.927 187.308C136.967 194.872 136.37 203.851 135.795 212.155C135.728 213.168 137.315 213.168 137.382 212.155C137.923 204.188 138.43 195.85 135.156 188.365C133.927 185.197 131.88 182.412 129.222 180.294C126.565 178.177 123.393 176.803 120.031 176.313C116.403 176.01 112.752 176.486 109.323 177.708C105.894 178.931 102.765 180.873 100.148 183.403C95.2101 188.129 93.7333 194.575 92.9904 201.16C92.4414 206.938 92.3514 212.751 92.7211 218.543C90.672 218.28 88.6008 218.236 86.5423 218.411C84.4843 218.411 82.4239 218.377 80.3658 218.509C80.9673 195.031 80.4646 170.758 80.5005 168.415C90.2478 168.994 145.888 168.599 151.324 168.886C151.508 168.888 151.685 168.817 151.817 168.689C151.948 168.56 152.023 168.384 152.025 168.2C152.027 168.017 151.956 167.839 151.828 167.708C151.699 167.576 151.524 167.501 151.34 167.499ZM117.786 143.159C119.912 165.576 119.909 166.166 120.255 167.36L111.334 167.331C113.212 159.213 115.699 151.218 117.786 143.159Z" fill="#191919"/>
<path d="M309.126 241.765C308.62 241.555 308.076 241.455 307.528 241.472C306.981 241.49 306.444 241.624 305.952 241.866C306.02 240.349 306.087 238.897 306.154 237.613C305.998 236.927 305.685 236.287 305.24 235.742C304.795 235.197 304.23 234.762 303.589 234.471C300.467 233.351 297.13 232.958 293.833 233.324C291.039 233.549 284.247 234.505 284.247 237.308C284.247 243.034 284.745 254.015 289.647 257.059C291.457 258.072 293.517 258.553 295.588 258.443C301.057 258.374 303.555 255.169 304.772 250.983C305.357 251.387 306.034 251.64 306.741 251.718C307.448 251.797 308.163 251.698 308.823 251.432C309.783 251.081 310.603 250.427 311.157 249.567C311.712 248.708 311.97 247.691 311.893 246.672C312.061 245.661 311.878 244.623 311.375 243.73C310.872 242.838 310.078 242.145 309.126 241.765ZM295.588 256.857C290.486 256.875 288.484 255.005 287.216 249.935C286.394 246.517 285.841 243.041 285.562 239.537C287.885 240.485 290.379 240.944 292.888 240.883C295.642 241.013 298.403 240.855 301.125 240.412C302.304 240.323 303.459 240.025 304.534 239.532C304.487 243.009 304.148 246.476 303.522 249.897C303.288 251.83 302.349 253.609 300.885 254.894C299.421 256.178 297.535 256.877 295.588 256.857ZM310.306 246.66C310.365 247.247 310.26 247.837 310.004 248.368C309.748 248.898 309.35 249.347 308.854 249.666C308.583 249.871 308.274 250.02 307.944 250.104C307.614 250.188 307.271 250.205 306.935 250.155C306.599 250.104 306.276 249.987 305.985 249.81C305.695 249.634 305.442 249.4 305.243 249.125C305.562 247.35 305.776 245.558 305.885 243.758C306.272 243.336 306.796 243.064 307.364 242.99C307.932 242.915 308.508 243.044 308.991 243.352C309.504 243.72 309.9 244.228 310.133 244.814C310.366 245.4 310.426 246.041 310.306 246.66Z" fill="#191919"/>
<path d="M75.5875 218.507C72.8699 221.355 70.3545 224.389 68.0599 227.588C63.2659 233.663 16.3427 295.143 13.6091 298.548C13.0345 299.255 14.058 300.27 14.6213 299.56C22.9075 289.373 72.5845 223.353 76.4651 219.351C77.006 218.81 76.1576 217.964 75.5875 218.507Z" fill="#191919"/>
<path d="M113.43 299.358C112.022 299.115 110.586 299.069 109.165 299.221C109.165 299.221 77.2953 299.392 75.5425 299.426C75.3878 299.435 75.2426 299.503 75.1365 299.616C75.0303 299.729 74.9712 299.878 74.9712 300.033C74.9712 300.188 75.0303 300.337 75.1365 300.45C75.2426 300.562 75.3878 300.63 75.5425 300.64C86.412 300.909 97.3129 300.842 108.221 300.842C109.952 301.018 111.699 300.973 113.419 300.707C113.559 300.66 113.682 300.57 113.769 300.45C113.856 300.329 113.903 300.185 113.904 300.037C113.906 299.888 113.861 299.743 113.776 299.622C113.69 299.5 113.57 299.408 113.43 299.358Z" fill="#191919"/>
<path d="M295.318 299.83L151.88 299.796C151.104 299.796 151.104 301.113 151.88 301.113C157.316 301.147 292.313 301.416 294.609 301.248C294.881 301.214 295.352 301.181 295.352 301.181C296.196 301.214 296.196 299.83 295.318 299.83Z" fill="#191919"/>
<path d="M410.264 131.344V130.703C410.266 130.576 410.228 130.453 410.155 130.35C410.083 130.246 409.979 130.169 409.86 130.128C402.902 126.719 388.559 120.643 388.525 120.61C388.483 120.479 388.395 120.368 388.276 120.299C388.157 120.231 388.017 120.208 387.883 120.237C384.93 120.163 350.869 119.788 349.504 120.304C348.508 120.661 325.445 129.778 323.918 131.816C324.715 131.8 410.015 131.344 410.264 131.344Z" fill="#023C47"/>
<path d="M323.676 133.032C323.405 138.805 322.933 144.611 323.034 150.417C323.034 150.587 323.102 150.751 323.222 150.871C323.343 150.991 323.506 151.059 323.676 151.059C352.337 150.888 380.986 150.708 409.622 150.518C409.79 150.511 409.949 150.44 410.068 150.322C410.187 150.203 410.257 150.044 410.264 149.876V132.965C405.553 132.965 396.868 133.032 323.676 133.032ZM339.104 142.584C338.845 142.826 338.536 143.009 338.199 143.117C337.862 143.226 337.505 143.26 337.153 143.215C336.801 143.17 336.464 143.047 336.165 142.857C335.866 142.667 335.613 142.413 335.423 142.113C335.178 141.637 335.091 141.095 335.176 140.566C335.261 140.037 335.514 139.55 335.897 139.175C336.308 138.188 337.944 138.208 338.9 138.951C339.19 139.149 339.43 139.412 339.603 139.718C339.775 140.025 339.875 140.366 339.895 140.717C339.915 141.068 339.854 141.419 339.717 141.743C339.58 142.066 339.37 142.354 339.104 142.584ZM385.722 144.38C385.717 144.547 385.654 144.706 385.543 144.831C385.432 144.956 385.281 145.037 385.116 145.062C384.951 145.086 384.782 145.051 384.64 144.963C384.498 144.875 384.392 144.74 384.34 144.582C383.838 142.151 383.623 139.67 383.698 137.189C383.698 136.547 384.71 136.379 384.845 137.02C385.432 139.428 385.727 141.897 385.722 144.375V144.38ZM387.208 144.243C386.538 142.104 386.376 139.839 386.734 137.626C386.871 136.85 387.917 137.155 387.984 137.795C388.209 139.815 388.355 141.812 388.658 143.873C388.691 144.059 388.652 144.251 388.549 144.41C388.446 144.569 388.287 144.683 388.103 144.73C387.919 144.776 387.725 144.751 387.559 144.66C387.393 144.569 387.267 144.418 387.208 144.238V144.243ZM391.326 144.041C391.318 144.203 391.253 144.356 391.143 144.475C391.033 144.594 390.884 144.67 390.724 144.69C390.563 144.71 390.4 144.673 390.264 144.585C390.128 144.497 390.027 144.364 389.98 144.209C389.54 142.204 389.369 140.15 389.472 138.1C389.439 137.458 390.518 137.29 390.619 137.932C391.098 139.931 391.335 141.981 391.326 144.036V144.041Z" fill="#023C47"/>
<path d="M157.653 272.114C157.182 269.854 156.675 267.558 156.167 265.295C154.269 263.626 153.044 261.322 152.724 258.814C150.069 261.765 150.031 260.896 147.661 263.271C148.164 267.136 148.897 270.968 149.856 274.747C150.26 276.3 150.462 278.764 151.78 279.879C153.225 280.694 154.89 281.036 156.54 280.858C159.072 280.892 162.921 280.409 163.19 277.177C163.426 274.006 160.319 272.581 157.653 272.114Z" fill="#191919"/>
<path d="M146.75 298.986C142.783 297.478 138.644 296.469 134.428 295.981C130.646 295.442 124.537 294.699 124.198 289.871C124.965 289.803 125.737 289.837 126.494 289.972C127.812 290.04 143.069 290.581 145.737 290.646C147.924 290.928 150.14 290.905 152.32 290.578C152.904 290.338 153.422 289.963 153.832 289.482C154.241 289.002 154.53 288.431 154.675 287.817C154.82 287.203 154.817 286.563 154.665 285.95C154.514 285.338 154.218 284.77 153.804 284.294C151.51 281.46 147.695 281.998 144.42 282.303C146.952 276.935 149.248 269.847 144.826 265.221C143.952 265.654 142.999 265.907 142.025 265.965C141.05 266.023 140.075 265.884 139.155 265.558C137.472 265.001 135.921 264.107 134.596 262.93C125.765 263.637 124.236 268.902 122.477 270.662C122.388 270.746 122.275 270.8 122.153 270.815C122.032 270.83 121.909 270.805 121.802 270.744C121.696 270.683 121.613 270.59 121.564 270.477C121.515 270.365 121.504 270.24 121.532 270.121C122.606 267.469 124.53 265.249 127.001 263.808C128.921 262.525 131.175 261.833 133.483 261.817C132.678 260.895 132.131 259.777 131.896 258.576C131.866 258.456 131.879 258.329 131.934 258.217C131.989 258.106 132.082 258.018 132.195 257.969C132.309 257.92 132.437 257.914 132.555 257.95C132.674 257.987 132.775 258.065 132.841 258.17C133.731 260.047 135.05 261.689 136.69 262.964C137.707 263.811 138.926 264.38 140.229 264.616C141.531 264.852 142.872 264.747 144.122 264.31C147.504 262.566 150.455 260.089 152.758 257.059C153.029 256.688 153.77 256.652 153.88 257.193C154.066 259.271 154.774 261.268 155.938 263C159.401 267.618 163.569 264.304 162.927 258.062C162.715 253.836 161.272 249.765 158.775 246.349C157.864 245.215 156.581 244.44 155.153 244.162C153.726 243.884 152.246 244.12 150.976 244.829C150.976 244.795 150.942 244.762 150.942 244.728C145.181 248.218 144.514 255.452 140.782 253.943C138.867 252.969 137.29 251.44 136.257 249.556C135.954 249.015 136.706 248.407 137.101 248.882C138.318 250.368 141.119 254.493 143.109 251.955C144.891 249.729 146.878 245.541 150.606 243.583C149.944 241.443 149.155 239.345 148.242 237.299C149.431 236.188 150.379 234.845 151.026 233.353C151.674 231.86 152.009 230.251 152.009 228.624C152.009 226.997 151.674 225.387 151.026 223.895C150.379 222.402 149.431 221.059 148.242 219.948C148.459 217.458 147.979 214.957 146.857 212.723C146.792 212.614 146.702 212.521 146.595 212.451C146.488 212.381 146.366 212.336 146.239 212.32C146.113 212.304 145.984 212.316 145.863 212.357C145.742 212.398 145.631 212.466 145.54 212.555C144.171 213.756 142.986 215.151 142.023 216.696C139.714 216.313 137.349 216.458 135.104 217.119C132.859 217.779 130.793 218.939 129.06 220.511C127.429 219.697 125.648 219.226 123.828 219.129C123.186 219.061 122.275 218.824 121.7 219.297C120.354 220.419 121.734 222.942 122.342 224.125C123.053 225.537 123.926 226.863 124.941 228.075C124.482 230.052 124.652 232.123 125.427 233.999C126.202 235.874 127.543 237.461 129.264 238.538C120.158 248.279 114.296 260.604 112.485 273.815C110.357 289.696 115.068 302.094 130.613 305.75C137.534 307.371 145.737 307.371 151.409 312.198C152.818 313.29 153.963 314.686 154.758 316.281C155.552 317.877 155.977 319.631 155.999 321.414C155.797 325.398 152.691 328.03 151.544 331.644C151.301 332.189 151.181 332.78 151.191 333.377C151.201 333.973 151.341 334.561 151.601 335.097C151.862 335.634 152.236 336.108 152.698 336.485C153.16 336.862 153.699 337.134 154.277 337.282C157.114 337.652 159.139 334.683 160.252 332.521C161.753 329.534 162.605 326.263 162.75 322.923C162.896 319.583 162.332 316.25 161.096 313.143C158.334 306.74 153.189 301.663 146.75 298.986ZM143.845 223.878C144.141 223.885 144.422 224.005 144.631 224.214C144.84 224.423 144.961 224.705 144.968 225C144.968 225.298 144.849 225.583 144.639 225.794C144.429 226.004 144.143 226.122 143.845 226.122C143.573 226.09 143.321 225.958 143.139 225.753C142.957 225.548 142.856 225.283 142.856 225.008C142.856 224.733 142.957 224.468 143.139 224.263C143.321 224.057 143.573 223.926 143.845 223.894V223.878ZM141.482 230.259C141.913 229.843 142.432 229.531 143.002 229.347C143.099 229.321 143.201 229.318 143.299 229.338C143.398 229.358 143.49 229.401 143.569 229.464C143.648 229.526 143.711 229.606 143.753 229.697C143.795 229.789 143.815 229.889 143.812 229.989C143.751 230.719 143.704 231.578 143.17 231.845C142.983 231.911 142.784 231.931 142.588 231.901C142.392 231.872 142.207 231.795 142.048 231.677C141.725 231.551 141.428 231.367 141.17 231.136C141.115 231.062 141.079 230.975 141.065 230.884C141.051 230.793 141.06 230.699 141.091 230.612C141.122 230.525 141.174 230.447 141.242 230.384C141.31 230.322 141.393 230.277 141.482 230.254V230.259ZM135.981 226.816C136.195 226.816 136.404 226.879 136.582 226.998C136.76 227.117 136.899 227.286 136.981 227.484C137.063 227.682 137.084 227.899 137.042 228.109C137 228.319 136.897 228.512 136.745 228.663C136.594 228.814 136.401 228.917 136.191 228.959C135.981 229 135.763 228.979 135.566 228.896C135.368 228.814 135.199 228.675 135.081 228.497C134.962 228.319 134.899 228.109 134.899 227.895C134.901 227.609 135.015 227.334 135.217 227.131C135.42 226.928 135.694 226.813 135.981 226.811V226.816Z" fill="#191919"/>
</svg>
