<svg width="417" height="298" viewBox="0 0 417 298" fill="none" xmlns="http://www.w3.org/2000/svg">
<path fill-rule="evenodd" clip-rule="evenodd" d="M125.372 248.521L96.9083 248.583L96.9632 250.226L125.345 250.276L125.372 248.521ZM344.119 248.388L328.633 248.369C328.483 249.082 328.328 249.795 328.171 250.513L345.051 250.528C344.75 249.845 344.44 249.134 344.119 248.388ZM367.545 248.436L367.754 250.543C386.729 250.553 403.021 250.561 415.37 250.561C416.113 250.561 416.864 248.865 415.305 248.8C411.009 248.623 393.338 248.506 367.545 248.436ZM61.8936 248.675L77.9184 248.63L78.2601 250.191L61.4273 250.157C61.5893 249.655 61.744 249.162 61.8936 248.675ZM38.6069 248.753C17.0535 248.832 3.29793 248.915 1.60966 248.987C0.470021 249.034 0.587228 249.875 1.72687 249.922C3.14083 249.979 16.8265 250.042 38.5596 250.099L38.6069 248.753Z" fill="#191919"/>
<path d="M154.232 0.704242C154.035 2.04089 153.098 2.93864 152.103 3.6718C145.946 8.22289 139.714 12.6643 133.04 16.4473C131.998 17.0383 130.499 18.2902 129.477 16.744C128.469 15.2204 130.33 14.5321 131.26 13.8712C133.312 12.4174 152.252 -0.634907 154.232 0.701743V0.704242Z" fill="#191919"/>
<path d="M161.462 20.3575C162.008 23.0333 141.008 27.4547 138.636 27.936C137.494 28.1679 136.315 28.133 135.963 26.7964C135.621 25.5071 136.656 25.0657 137.696 24.7166C141.215 23.5345 161.065 18.4273 161.462 20.36V20.3575Z" fill="#191919"/>
<path d="M164.182 46.4022C158.489 47.2925 145.664 43.7813 140.12 42.0955C138.98 41.7464 137.192 41.497 137.497 39.8686C137.836 38.0357 139.579 38.8162 140.714 38.9783C147.756 39.9833 159.873 43.088 164.182 46.4047V46.4022Z" fill="#191919"/>
<path d="M293.8 68.8809C292.069 69.2325 292.009 67.3472 291.77 66.2076C283.02 24.5794 298.359 67.9557 293.8 68.8809Z" fill="#191919"/>
<path d="M269.788 60.3647C272.661 61.5518 275.576 66.0131 278.204 69.624C281.96 74.7786 282.965 76.3696 281.471 77.2474C280.533 77.7961 279.88 77.1527 279.341 76.5043C275.601 71.9914 272.348 67.0956 269.638 61.8984C269.434 61.5069 268.748 60.7588 269.788 60.3647Z" fill="#191919"/>
<path d="M316.131 50.3623C317.865 52.8885 312.079 64.4271 310.488 67.048C309.947 67.9408 309.146 68.7911 308.261 68.3348C306.568 67.4644 313.461 52.8386 316.134 50.3623H316.131Z" fill="#191919"/>
<path d="M107.941 70.3647C114.921 74.8709 114.454 83.3521 109.227 86.8484C102.714 91.2124 94.3746 86.8483 93.4843 79.2748C93.1876 76.7487 93.21 78.1826 74.8685 86.801C70.4171 88.8907 71.2575 88.4344 69.5219 85.1177C58.5494 64.1652 61.2651 66.9083 58.1354 69.7188C54.0407 73.3971 57.5868 62.3622 47.6891 60.2126C44.0732 59.4271 41.6592 63.4794 41.8961 60.6091C42.2602 56.2052 46.1555 52.487 50.7589 52.3897C52.3425 52.3573 52.3973 51.9408 51.7489 50.6566C42.3425 31.9659 41.4547 31.7016 44.5196 30.2078C66.4795 19.5171 65.896 19.178 66.6516 19.9585C68.1603 21.5171 64.5219 25.0083 68.6815 29.7589C75.3149 37.3374 85.5517 27.0507 78.6814 20.2054C75.8037 17.3376 73.7089 18.4248 73.5817 16.5894C73.5219 15.7515 74.1777 15.557 74.7214 15.3052C105.409 0.996023 97.7437 -0.318188 106.903 15.8488C108.696 19.0109 110.27 22.2827 111.953 25.4996C112.2 26.0457 112.888 26.5869 112.3 27.2353C111.499 28.118 110.467 27.6392 108.437 27.335C99.1227 25.936 97.4569 37.6093 104.527 40.901C108.542 42.7688 112.352 41.2476 114.033 37.0856C116.412 31.1978 115.384 32.527 128.192 57.3847C130.16 61.2051 123.983 60.7513 107.943 70.3597L107.941 70.3647ZM115.317 55.9583C114.427 55.2151 106.654 58.7313 105.614 59.2251C92.6938 65.3697 92.0305 65.4694 92.4444 66.8485C92.9656 68.5891 95.7661 67.5517 97.3472 66.6988C111.701 58.9632 113.686 57.8859 115.32 55.9558H115.317V55.9583Z" fill="#023C47"/>
<path d="M44.4175 69.3746C45.1107 69.7711 45.4025 69.0205 45.804 68.6814C49.804 65.3098 50.9835 64.9807 50.5072 64.3722C50.3781 64.1971 50.2021 64.0621 49.9996 63.9827C49.7971 63.9033 49.5763 63.8827 49.3626 63.9233C48.3202 64.0704 42.5696 68.3023 44.4175 69.3722V69.3746Z" fill="#191919"/>
<path d="M88.482 81.8509C86.3024 84.0304 108.285 93.387 100.562 121.509C99.1752 126.509 96.2051 130.866 93.6789 135.322C79.8162 159.681 97.442 180.426 81.7962 186.516C60.6043 194.735 43.0284 185.673 42.2877 177.01C40.6045 156.958 41.7915 146.708 35.405 135.471C12.879 95.7635 38.9686 71.4046 40.405 71.8011C42.2379 72.3447 44.0184 73.2849 44.961 75.0679C46.1979 77.3447 27.8789 90.2174 41.6942 115.716C49.0209 129.282 54.9635 127.102 60.6068 132.399C65.2103 136.708 70.8063 131.262 69.32 129.975C68.0831 128.886 67.6866 133.539 62.8338 131.559C58.8238 129.876 59.9136 126.656 59.3674 122.103C58.6742 116.21 52.4847 118.686 52.6842 116.31C52.7341 115.517 53.4772 115.726 54.0208 115.666C59.0333 115.118 54.8139 111.606 57.4373 108.584C60.4073 105.167 66.3001 102.547 69.1704 105.317C68.33 105.963 65.9534 105.167 66.1006 106.606C66.2502 108.14 69.1205 105.863 70.2601 109.28C73.5768 119.379 69.5669 124.232 63.6741 123.192C60.3076 122.549 63.2278 124.776 65.1105 124.776C68.2801 124.776 65.3101 128.339 67.3874 128.192C69.1205 128.092 66.5943 125.073 69.3175 123.736C73.6267 121.656 73.5768 115.666 72.2876 111.21C72.0407 110.369 72.0881 109.773 72.8312 109.08C74.7614 107.2 74.7614 104.227 72.7813 102.447C72.1379 101.853 72.0881 101.407 72.1379 100.664C72.2377 97.9904 70.4048 96.0104 68.128 96.554C65.0083 97.2972 62.9435 92.7112 58.6218 96.7037C57.6941 97.5615 54.2154 96.155 53.7191 99.8209C53.4722 101.656 48.4224 101.16 49.4124 107.2C49.759 109.23 47.5296 108.24 48.6693 111.853C49.2628 113.686 51.6393 114.726 50.9959 117.15C50.9461 117.349 51.385 117.748 51.6393 118.04C54.3974 121.215 58.5719 116.21 57.9261 127.696C41.9835 121.26 32.7242 98.5341 45.1032 78.7811C49.1131 72.3447 50.8962 76.6015 53.4697 71.0081C53.8612 70.225 54.2328 67.6664 52.5869 69.7861C51.572 71.0953 50.7864 72.1352 49.385 72.9906C46.2154 74.9706 46.0957 73.3846 43.7192 71.5018C43.2229 71.1028 41.8887 70.7138 42.2354 69.7238C42.4848 69.038 42.5371 65.0605 47.4249 63.7363C48.1855 63.5293 48.6144 62.846 48.3725 62.3398C47.8787 61.3523 42.5795 62.5393 41.6394 66.3522C40.5995 70.5617 38.0758 71.3023 37.183 72.1951C20.6969 88.4344 20.5472 112.544 30.2504 130.816C40.3002 149.728 37.4299 158.344 39.607 176.613C40.597 184.93 45.5471 184.09 44.8064 187.653C38.0733 219.341 36.0434 279.693 39.8563 283.209C41.2927 251.077 42.0359 219.144 47.0359 187.506C61.1954 194.536 74.8611 193.446 88.3274 185.923C96.1503 221.867 93.6241 279.745 96.1503 279.845C99.2699 279.994 96.9931 208.551 90.9034 187.212C88.8735 180.082 92.1902 184.142 90.4097 163.15C88.9259 145.277 94.9159 139.384 100.709 128.392C115.068 101.06 89.8161 80.5616 88.4795 81.8534L88.482 81.8509Z" fill="#191919"/>
<path d="M70.6093 219.638C64.8662 235.581 62.4423 254.416 49.5671 280.782C49.3252 281.279 49.2703 282.318 48.4274 281.969C47.2379 281.476 48.4698 281.969 65.3101 227.062C74.118 198.344 78.7863 199.341 77.3898 202.159C75.3749 206.227 73.9709 210.526 72.2402 214.735C71.4472 216.665 80.3325 235.548 86.7963 278.949C87.3798 282.862 85.7389 280.241 84.6167 276.423C79.3325 258.426 76.4971 237.805 70.6043 219.636L70.6093 219.638Z" fill="#191919"/>
<path d="M105.761 296.231C96.4046 292.568 88.7737 296.084 87.0455 287.665C86.1004 283.062 86.1029 283.032 90.659 282.912C93.0854 282.847 95.6614 281.767 97.7886 282.269C99.8684 282.757 101.552 285.189 103.631 286.378C105.711 287.568 107.903 288.633 110.018 289.845C113.407 291.787 112.098 295.638 105.761 296.231Z" fill="#191919"/>
<path d="M46.7441 284.101C49.2652 283.294 51.0932 284.111 52.9335 285.885C57.2203 290.014 64.2851 291.333 63.9734 294.054C63.5943 297.373 58.724 298.416 56.0034 297.47C52.734 296.336 49.37 295.78 45.9535 295.244C40.8563 294.441 37.7965 289.932 38.7242 284.847C38.996 283.356 44.1655 284.932 46.7441 284.104V284.101Z" fill="#191919"/>
<path d="M84.9607 85.0878C88.9956 90.0453 92.0205 102.963 86.1053 115.073C82.2375 122.993 72.2176 128.232 71.4994 126.509C71.0206 125.362 75.063 124.329 78.9757 120.666C91.3721 109.06 85.9807 93.6338 83.6016 86.3371C82.5892 83.2349 84.7188 84.791 84.9607 85.0878Z" fill="#191919"/>
<path d="M51.0085 66.2051C51.3551 65.9283 52.0933 66.2749 51.9486 66.6939C50.9013 69.7213 47.3527 71.5716 46.6943 70.614C46.1856 69.8734 46.5846 69.7387 51.006 66.2051H51.0085Z" fill="#191919"/>
<path d="M62.3675 108.377C61.5944 109.095 60.8962 109.025 59.6169 110.522C58.7715 111.507 57.9161 109.556 59.9635 107.945C61.5121 106.729 63.3974 107.422 62.3675 108.379V108.377Z" fill="#191919"/>
<path d="M67.2925 117.102C65.5594 120.172 62.0507 117.701 62.8861 116.459C63.0856 116.162 63.4796 116.063 63.729 116.309C64.719 117.449 66.0058 117.053 67.295 117.102H67.2925Z" fill="#191919"/>
<path d="M67.1928 114.676C66.0606 113.973 65.3574 110.624 66.3998 111.21C67.7314 111.96 68.1379 115.262 67.1928 114.676Z" fill="#191919"/>
<path d="M69.719 111.063C69.7688 112.349 68.3474 112.447 68.1853 110.666C68.1404 110.17 68.2851 109.661 68.8786 109.726C69.6242 109.806 69.5718 110.519 69.7215 111.063H69.719Z" fill="#191919"/>
<path d="M62.4896 113.192C61.35 112.896 61.4497 110.973 62.2926 111.013C63.3824 111.07 63.4796 113.043 62.4896 113.192Z" fill="#191919"/>
<path fill-rule="evenodd" clip-rule="evenodd" d="M308.79 275.934C139.549 275.982 126.23 277.109 125.24 274.134C125.145 273.847 125.163 273.525 125.168 273.159C126.265 196.316 126.808 187.012 125.696 186.81C125.417 186.76 125.033 187.287 124.524 187.456C116.449 190.164 109.198 182.396 111.552 174.98C113.362 169.282 119.227 166.858 124.671 169.386C125.429 169.738 125.933 170.11 126.267 169.995C127.813 169.459 125.776 158.549 128.681 87.4967C128.716 86.6389 128.716 86.0204 128.993 85.5715C129.896 84.1052 133.756 84.4568 151.457 84.2299C154.651 84.19 153.524 85.8334 151.98 88.0827L151.803 88.3396C147.335 94.8657 154.716 103.13 161.457 99.2323C164.721 97.3445 165.501 92.4593 163.14 88.9331C159.831 83.9955 160.579 84.0054 169.372 84.1301C171.038 84.1551 172.995 84.18 175.27 84.18C208.444 84.1626 216.97 83.0329 217.726 84.9556C218.067 85.8184 216.838 87.2997 215.571 89.7735C212.534 95.7086 218.845 102.417 224.878 99.9231C229.042 98.2024 230.135 92.2498 226.858 88.5865C226.614 88.3211 226.362 88.0633 226.102 87.8134C225.718 87.4522 225.358 87.0656 225.025 86.6563C224.027 85.3745 224.678 83.978 226.262 83.983C235.122 84.0079 243.985 84.0753 252.848 84.2324C255.571 84.2773 255.613 84.5765 255.72 87.3496C255.997 94.4318 256.067 101.509 255.82 108.589C255.788 109.536 255.858 110.337 255.915 111.008C256.032 112.367 256.104 113.187 255.177 113.589C254.032 114.088 253.219 113.379 252.189 112.479C251.389 111.783 250.459 110.97 249.137 110.519C240.132 107.434 236.419 119.721 244.187 123.639C248.496 125.813 251.02 123.589 253.296 121.312C254.586 120.025 255.828 120.272 255.823 122.302C255.798 134.481 255.381 198.995 255.229 207.955C255.182 210.775 255.229 210.887 258.002 210.925C262.932 210.99 267.9 210.945 272.84 210.9L275.431 210.875C275.79 210.886 276.147 210.93 276.498 211.005C277.306 211.149 278.117 211.294 278.501 210.725C278.86 210.194 278.483 209.596 278.087 208.967C277.85 208.588 277.603 208.197 277.511 207.805C275.419 198.947 282.768 193.179 290.137 196.072C296.777 198.678 297.92 205.88 295.979 209.538C295.792 209.887 295.523 210.129 295.563 210.296C295.665 210.713 297.705 210.656 307.84 210.608C307.76 211.464 307.68 212.334 307.605 213.214C304.979 213.209 301.688 213.239 297.568 213.304C290.685 213.411 290.199 213.409 292.715 209.788C295.049 206.429 294.042 201.583 290.536 199.391C283.538 195.015 275.932 203.401 282.219 210.581C282.291 210.675 282.413 210.795 282.556 210.935C283.082 211.459 283.882 212.254 283.456 212.957C283.149 213.464 282.845 213.458 279.506 213.391C277.967 213.361 275.785 213.316 272.663 213.304C269.209 213.291 266.431 213.254 264.194 213.224C255.114 213.102 254.987 213.099 254.987 215.284C254.987 237.122 255.07 238.648 254.439 239.049C254.381 239.087 254.316 239.114 254.244 239.147C253.616 239.438 252.835 238.83 251.828 238.042C249.9 236.538 247.134 234.381 243.005 236.62C235.234 240.835 242.152 253.134 249.738 249.543C251.915 248.513 253.281 247.147 254.074 247.421C255.354 247.865 255.154 252.568 254.491 269.792C254.394 272.313 255.222 272.301 267.713 272.121C272.162 272.057 278.087 271.972 285.98 271.972C293.393 271.972 299.097 272.007 303.478 272.034L308.396 272.059C308.513 273.234 308.635 274.418 308.767 275.618L308.79 275.934ZM190.055 103.489C189.97 106.422 189.883 109.357 189.928 112.3C189.965 114.893 188.868 114.083 187.035 112.731C184.706 111.01 181.187 108.412 177.302 110.813C172.309 113.898 173.437 120.92 178.045 123.439C181.708 125.442 184.077 123.97 185.943 122.813C187.125 122.078 188.107 121.469 189.085 121.953L189.15 121.985C189.988 122.387 190.187 122.484 189.481 144.778C189.417 146.848 189.554 146.848 196.125 146.773C198.509 146.748 201.741 146.708 206.117 146.758C219.903 146.913 219.519 147.434 217.738 149.858C216.449 151.611 214.426 154.362 216.514 158.691C218.207 162.202 222.952 163.943 226.07 162.157C229.785 160.03 230.865 155.576 228.496 151.958C227.1 149.825 226.194 148.554 226.516 147.826C227.179 146.324 233.06 147.127 250.628 147.451C251.197 147.461 251.591 147.476 251.865 147.299C252.905 146.631 252.212 143.259 252.658 126.806C252.695 125.464 252.361 125.596 251.356 125.993C250.247 126.432 248.324 127.192 245.182 126.656C237.511 125.347 233.688 114.467 240.972 109.08C245.099 106.028 248.479 107.419 250.553 108.275C251.985 108.866 252.795 109.2 252.805 107.644L253.072 98.0777L253.349 88.1376C253.359 87.7536 253.366 87.4743 253.242 87.2723C252.685 86.3596 249.444 87.0852 231.466 87.1476C229.98 87.1526 229.541 87.2922 230.376 88.8807C232.374 92.6837 231.868 96.8059 229.336 99.5739C221.581 108.055 208.449 99.0328 212.85 88.781C213.656 86.9057 212.596 86.9456 207.623 87.1351C204.332 87.2598 199.324 87.4518 192.008 87.1975C190.324 87.1401 189.781 87.5965 189.928 89.3271C190.327 94.0578 190.192 98.771 190.052 103.489H190.055ZM222.823 211.546C223.454 210.067 229.833 211.045 249.638 210.875V210.877C250.257 210.872 250.725 210.87 251.082 210.668C253.092 209.523 251.464 201.997 252.411 151.566C252.449 149.521 252.122 149.526 244.471 149.706C241.558 149.773 237.583 149.868 232.162 149.88C230.778 149.883 231.062 150.486 231.606 151.638C232.212 152.918 233.137 154.88 232.459 157.456C228.653 171.915 208.451 163.646 213.596 151.267C214.349 149.451 214.344 149.451 206.766 149.499C203.389 149.521 198.506 149.551 191.514 149.434C189.389 149.399 189.389 149.436 189.344 156.995C189.328 162.43 189.226 167.865 189.037 173.297C189.028 173.578 189.062 173.88 189.095 174.187C189.202 175.115 189.309 176.075 188.195 176.563C187.21 176.995 186.601 176.337 186.015 175.703C185.818 175.477 185.603 175.268 185.372 175.077C178.983 170.182 173.591 173.297 172.995 178.544C172.304 184.633 179.322 189.369 184.185 185.87C186.551 184.169 187.806 183.082 188.437 183.369C189.372 183.793 188.938 187.237 188.741 196.169C188.706 197.803 188.691 199.426 188.678 201.047C188.671 203.448 188.626 205.849 188.544 208.249L188.531 208.538C188.446 210.631 188.446 210.671 190.673 210.675C212.628 210.72 215.007 210.344 215.683 211.244C215.78 211.374 215.843 211.528 215.923 211.715C216.269 212.526 215.608 213.276 214.771 214.232C213.304 215.9 211.289 218.194 213.15 222.508C217.204 231.917 231.329 225.276 225.279 216.122C223.653 213.663 222.506 212.291 222.823 211.546ZM144.155 87.4867C141.811 87.5167 138.33 87.5615 133.24 87.3969L133.245 87.3994C130.574 87.3122 130.582 88.397 130.669 100.921C130.726 109.292 130.821 122.776 130.175 144.436C130.108 146.663 130.764 146.616 133.382 146.427C134.37 146.354 135.639 146.264 137.255 146.267C146.147 146.284 148.571 146.646 148.886 145.993C149.003 145.751 148.831 145.369 148.591 144.781C144.564 134.885 155.938 127.826 163.494 133.741C166.771 136.304 168.232 140.766 166.96 144.534C166.509 145.87 166.711 146.359 168.147 146.367C183.17 146.449 185.913 146.988 186.437 146.145C186.556 145.953 186.559 145.688 186.566 145.327C186.913 128.761 187.264 125.606 186.561 125.349C186.367 125.28 186.095 125.424 185.723 125.574C173.013 130.611 166.065 113.786 175.771 108.292C180.255 105.753 183.471 107.367 185.349 108.307C186.621 108.945 187.282 109.277 187.307 107.796C187.407 101.828 187.551 97.6064 187.656 94.6189C187.895 87.5915 187.905 87.3969 186.514 87.3969H165.718C168.245 92.9929 167.599 97.0503 164.531 99.9729C156.95 107.195 144.791 98.5914 148.242 89.377C148.973 87.4219 148.903 87.4219 144.155 87.4867ZM114.03 176.317C112.801 182.853 120.04 188.74 126.457 183.446L126.452 183.451L126.701 183.239C127.29 182.728 127.873 182.224 128.828 182.658C129.779 183.03 129.734 183.778 129.689 184.506C129.681 184.651 129.671 184.795 129.671 184.935C129.534 205.76 128.681 210.035 129.99 210.855C130.332 211.07 130.818 211.05 131.504 211.027C145.12 210.576 148.492 211.114 148.811 210.359C148.936 210.072 148.611 209.593 148.24 208.8C143.836 199.341 153.97 190.995 162.499 196.818C166.504 199.551 168.075 204.656 165.965 208.947C165.235 210.439 165.571 210.735 167.105 210.73C171.644 210.713 175.08 210.76 177.673 210.795C185.663 210.905 185.721 210.905 185.721 208.551C185.721 202.616 185.836 198.344 185.918 195.307C186.105 188.361 186.117 187.86 184.187 188.648C175.529 192.182 167.539 183.1 170.918 175.578C172.743 171.516 175.821 169.673 180.374 169.885C182.274 169.975 183.9 170.805 186.175 171.965L186.464 172.112C186.464 153.394 186.965 150.125 185.908 149.501C185.678 149.364 185.374 149.352 184.978 149.337C179.893 149.126 174.803 149.093 169.716 149.237C162.534 149.399 161.886 149.414 163.788 145.327C166.92 138.599 159.935 132.025 153.788 135.177C151.167 136.524 149.916 139.733 150.669 142.9C150.878 143.786 151.427 144.733 151.931 145.609C152.953 147.379 153.796 148.84 151.312 148.84L147.569 148.848C142.482 148.863 137.399 148.878 132.35 148.643C131.661 148.611 131.153 148.581 130.781 148.793C129.392 149.574 129.883 153.698 129.726 173.546C129.726 173.663 129.731 173.785 129.736 173.91C129.761 174.519 129.786 175.172 129.133 175.426C128.387 175.713 127.798 175.077 127.35 174.583C121.978 168.668 114.978 171.267 114.03 176.317ZM180.102 272.111C181.673 272.087 182.661 272.069 183.195 272.069L183.197 272.067C183.758 272.067 184.16 272.074 184.444 271.895C185.466 271.256 185 268.234 185.077 253.947C185.08 253.204 184.93 252.613 183.988 253.154C182.721 253.882 181.369 253.867 180.048 253.852L179.681 253.847C172.155 253.797 166.242 244.019 172.798 236.865C175.284 234.152 179.629 233.503 183.444 235.231C184.978 235.927 185.379 235.728 185.374 233.995C185.314 217.563 186.075 214.077 184.985 213.344C184.683 213.142 184.237 213.149 183.591 213.152C166.771 213.222 161.821 213.581 161.377 212.334C161.192 211.813 161.796 211.01 162.649 209.785C168.013 202.087 157.738 193.439 151.906 199.586C149.28 202.354 149.392 206.459 152.352 209.982C155.379 213.588 151.99 213.471 140.871 213.087C138.128 212.992 134.913 212.88 131.21 212.805C130.836 212.798 130.529 212.79 130.275 212.905C128.534 213.675 129.262 220.025 128.537 269.742C128.517 271.139 128.504 271.82 128.836 272.151C129.168 272.478 129.833 272.466 131.16 272.466C160.182 272.446 174.227 272.211 180.102 272.111ZM251.511 271.259C251.621 271.022 251.618 270.735 251.618 270.386V270.388C251.563 255.723 252.149 252.299 251.291 251.887C251.03 251.76 250.631 251.917 250.035 252.119C241.898 254.887 233.653 245.638 238.152 237.663C240.581 233.356 245.439 231.795 250.232 233.85C251.374 234.339 251.97 234.493 251.965 232.91C251.95 227.451 252.002 223.516 252.04 220.678C252.137 213.406 252.139 213.354 250.678 213.354H226.962C228.696 216.177 230.13 218.8 229.092 222.513C225.267 236.224 204.519 227.753 210.723 215.037C211.012 214.444 211.297 214.04 211.202 213.768C210.928 212.975 207.426 213.304 191.464 213.304C190.167 213.304 189.394 213.289 188.945 213.663C187.576 214.798 189.19 219.523 187.998 239.196C187.818 242.122 186.282 240.865 184.596 239.488C183.998 238.999 183.379 238.496 182.798 238.157C179.671 236.336 175.569 237.314 173.836 240.187C169.776 246.917 177.811 255.059 184.678 250.186C184.836 250.074 184.993 249.937 185.152 249.795C185.683 249.321 186.242 248.827 187.005 249.246C187.928 249.755 187.868 250.738 187.811 251.633L187.798 251.82C187.591 255.339 187.574 258.872 187.561 262.413C187.549 265.002 187.536 267.595 187.451 270.189C187.404 271.623 187.848 272.069 189.284 272.069C244.112 272.004 250.723 272.972 251.511 271.259Z" fill="#023C47"/>
<path d="M282.067 161.81C276.423 171.514 264.982 168.05 263.104 159.384C261.915 153.888 265.975 148.636 270.827 148.145C274.244 147.796 274.221 149.541 262.807 130.669C260.922 127.551 259.997 127.387 280.236 115.816C282.064 114.768 282.029 114.763 280.336 113.389C277.189 110.838 275.885 107.499 276.623 103.537C278.568 93.0927 293.226 93.9281 295.685 103.686C296.533 107.05 294.588 106.988 312.518 96.7535C316.081 94.7211 315.114 94.6289 329.55 117.152C330.944 119.327 329.253 119.975 326.777 119.579C316.628 117.95 315.884 130.92 323.657 133.491C334.301 137.008 331.937 120.808 335.293 126.065C349.306 148.015 348.615 147.167 346.483 147.701C343.665 148.407 340.79 148.299 337.917 148.244C335.59 148.2 330.283 141.851 327.371 145.471C326.575 146.459 325.346 147.945 324.351 145.471C323.613 143.639 316.917 144.624 315.934 147.551C315.336 149.332 315.847 151.13 313.014 153.641C309.416 156.828 310.7 162.776 315.241 165.374C319.797 167.983 320.196 166.663 298.012 179.534C293.099 182.384 294.842 179.633 282.069 161.808H282.067V161.81ZM295.538 114.3C288.553 117.175 279.69 122.175 272.758 127.549C271.027 128.89 272.219 131.763 275.777 129.776C279.638 127.619 293.85 120.207 297.932 115.801C298.164 115.549 298.678 113.005 295.538 114.297V114.3Z" fill="#023C47"/>
<path d="M318.009 147.564C318.069 147.467 318.159 147.392 318.265 147.35C318.37 147.308 318.487 147.3 318.597 147.328C318.707 147.357 318.806 147.42 318.878 147.508C318.95 147.596 318.993 147.704 318.999 147.818C319.954 162.94 334.832 159.397 330.981 150.671C330.346 149.232 329.198 148.047 328.852 146.314C329.695 146.165 330.139 146.614 330.535 147.057C334.879 151.92 332.014 153.671 335.735 152.701C343.892 150.576 352.124 149.531 360.54 151.215C363.153 151.738 365.48 153.157 361.026 153.14C350.101 153.097 343.772 152.9 336.677 154.631C331.38 155.923 334.231 158.254 330.241 160.274C328.897 160.955 329.258 161.756 329.844 162.551C349.176 188.78 387.425 165.324 375.692 140.766C367.719 124.08 348.732 117.995 341.034 121.407C338.765 122.412 332.363 122.205 333.41 115.861C333.72 113.98 333.56 113.135 331.43 112.691C328.313 112.043 326.216 108.831 325.934 105.364C325.408 98.8807 328.011 97.2448 326.727 94.8657C324.346 90.4643 330.692 85.9356 336.333 85.3122C338.909 85.0279 342.326 86.8483 345.393 82.4893C349.852 76.1551 363.941 85.1476 355.493 93.3321C354.513 94.2797 354.488 94.9705 354.799 96.2049C356.413 102.609 352.917 111.24 346.877 112.197C343.807 112.684 343.445 114.028 343.213 116.504C343.056 118.187 343.41 118.484 344.996 118.534C380.842 119.639 393.767 162.658 362.672 174.628C348.515 180.08 334.884 176.763 326.777 161.559C325.141 158.491 320.353 161.474 317.421 153.339C316.772 151.541 316.917 149.314 318.014 147.561L318.009 147.566V147.564ZM327.715 102.15C327.333 114.576 338.151 109.033 338.755 110.766C338.996 111.462 338.164 111.811 337.665 112.152C336.927 112.656 335.251 112.399 335.438 114.629C335.595 116.509 333.558 118.98 337.567 119.382C341.974 119.823 340.792 119.132 341.627 114.432C342.375 110.225 341.822 105.364 346.777 103.045C348.261 102.347 346.72 99.4667 342.124 102.055C339.149 103.731 337.41 101.462 337.124 98.4892C336.919 96.3645 336.101 94.6139 334.697 92.9954C333.181 91.2473 332.298 91.185 330.787 92.9954C328.403 95.8533 327.809 99.1849 327.717 102.155L327.715 102.15Z" fill="#191919"/>
<path d="M309.892 277.812C308.406 277.865 308.75 276.722 308.655 275.932C304.677 243.169 305.219 212.037 312.368 179.833C312.71 178.297 313.653 178.11 314.942 178.396C343.71 184.805 356.086 175.08 357.273 180.673C363.026 207.803 368.934 253.349 369.156 268.406C369.168 269.296 369.799 270.713 368.216 270.832C364.847 271.087 366.69 264.229 355.046 183.793C354.839 182.359 354.597 181.898 352.867 182.159C305.274 189.376 316.436 166.125 311.772 204.885C307.174 243.114 312.465 277.72 309.892 277.815V277.812Z" fill="#191919"/>
<path d="M333.657 221.421C330.637 238.65 327.924 255.718 322.221 272.962C321.174 276.129 321.578 278.313 320.091 278.012C318.655 277.72 319.406 277.795 331.775 217.015C332.56 213.152 326.229 197.498 329.348 196.865C332.069 196.311 337.657 234.678 357.37 267.072C358.455 268.857 359.178 270.847 360.143 272.715C360.53 273.463 360.348 273.865 359.697 274.249C359.011 274.655 358.7 274.351 358.36 273.752C349.218 257.665 350.241 268.356 333.655 221.421H333.657Z" fill="#191919"/>
<path d="M358.46 292.418C355.533 294.737 349.034 293.842 351.48 289.545C352.61 287.56 358.041 281.029 358.066 277.862C358.079 276.229 361.767 277.426 368.809 272.812C369.705 272.226 370.064 272.313 370.343 273.406C373.929 287.413 370.069 283.224 358.46 292.418Z" fill="#191919"/>
<path d="M297.119 288.508C299.346 286.675 302.221 285.69 304.052 283.458C306.483 280.49 309.199 279.71 312.865 280.388C318.059 281.351 321.433 278.805 320.884 281.825C320.49 284.004 320.835 289.645 315.685 290.884C311.378 291.922 306.932 292.495 302.712 293.854C300.044 294.715 292.663 292.171 297.119 288.508Z" fill="#191919"/>
<path d="M321.922 146.511C322.812 146.524 322.787 149.853 325.338 152.751C325.989 153.489 325.186 154.147 324.248 153.84C321.318 152.88 320.189 146.489 321.922 146.514V146.511Z" fill="#191919"/>
<path d="M329.83 99.7211C329.939 99.1849 330.139 98.978 330.588 99.0303C331.381 99.1251 331.253 99.8682 330.785 103.833C330.732 104.28 330.635 104.831 330.091 104.823C329.59 104.813 329.443 104.459 329.438 104.03C329.436 103.773 329.777 99.9705 329.827 99.7161L329.83 99.7211Z" fill="#191919"/>
<path d="M335.834 97.0503C335.587 98.337 334.188 96.4667 332.617 97.0004C331.667 97.3221 331.134 96.1625 332.221 95.564C333.56 94.8258 335.587 96.0104 335.834 97.0503Z" fill="#191919"/>
<path d="M330.785 106.953C330.588 105.963 331.598 106.684 333.011 105.666C333.413 105.377 333.66 104.474 334.298 105.167C335.647 106.644 331.129 108.684 330.782 106.953H330.785Z" fill="#191919"/>
<path d="M333.954 101.903C332.618 101.878 332.815 99.3719 333.954 99.2797C335.291 99.1724 335.241 101.928 333.954 101.903Z" fill="#191919"/>
</svg>
