<svg width="400" height="400" viewBox="0 0 400 400" fill="none" xmlns="http://www.w3.org/2000/svg">
<path d="M296.179 245.047C295.664 240.67 295.505 236.257 294.902 231.9L278.39 232.842C278.609 235.024 278.94 237.193 279.341 239.351C282.346 239.515 285.329 239.948 288.257 240.644C288.363 240.663 288.464 240.702 288.554 240.76C288.645 240.817 288.724 240.892 288.785 240.98C288.847 241.068 288.891 241.168 288.914 241.273C288.937 241.377 288.94 241.486 288.921 241.592C288.903 241.698 288.863 241.799 288.806 241.889C288.748 241.98 288.673 242.058 288.585 242.12C288.497 242.182 288.398 242.226 288.293 242.249C288.188 242.272 288.079 242.275 287.974 242.256C285.194 242.029 282.428 241.653 279.688 241.129C281.197 248.548 283.411 255.872 284.676 263.313C289.268 263.532 293.868 263.521 298.459 263.279C297.968 257.201 296.887 251.106 296.179 245.047Z" fill="#191919"/>
<path d="M298.563 231.74C300.317 242.114 301.274 252.542 302.834 262.926C307.92 263.032 314.084 262.695 318.16 259.311C324.815 253.823 324.005 239.838 323.347 231.21L298.563 231.74Z" fill="#191919"/>
<path d="M238.504 215.242C238.539 221.496 237.905 227.742 238.132 233.979C274.332 233.819 310.423 232.473 346.605 232.048C346.375 226.432 346.074 220.842 345.95 215.242H238.504Z" fill="#023C47"/>
<path d="M292.281 105.974C292.107 105.108 290.884 105.156 288.612 105.245C287.116 105.543 285.569 105.446 284.122 104.966C282.675 104.485 281.377 103.637 280.357 102.504C277.284 99.0949 276.385 93.2057 276.247 88.6132C276.137 85.9099 276.293 85.6027 276.46 75.2347C276.479 75.023 276.413 74.8126 276.277 74.6497C276.14 74.4867 275.945 74.3847 275.733 74.3659C275.522 74.3471 275.311 74.4131 275.148 74.5495C274.985 74.6859 274.883 74.8814 274.864 75.093C274.527 77.0023 274.013 79.7514 273.819 81.8082C272.726 91.8072 274.12 105.15 283.866 107.641C283.946 111.219 284.045 113.968 284.45 117.511L282.998 117.99C282.794 118.065 282.627 118.215 282.528 118.409C282.43 118.602 282.407 118.826 282.465 119.035C282.539 119.239 282.689 119.407 282.884 119.503C283.079 119.599 283.304 119.616 283.511 119.55L285.655 119.035C285.869 118.983 286.058 118.856 286.188 118.678C286.317 118.5 286.38 118.281 286.364 118.061C286.234 115.699 286.348 110.349 286.413 107.977C287.566 108.084 288.728 108 289.853 107.727C290.072 107.665 292.474 106.937 292.281 105.974Z" fill="#191919"/>
<path d="M282.146 94.3947C283.79 99.7493 291.106 98.8216 291.784 92.6231C291.804 92.5183 291.803 92.4107 291.781 92.3063C291.759 92.2019 291.717 92.1028 291.657 92.0147C291.597 91.9266 291.52 91.8513 291.431 91.7929C291.341 91.7345 291.241 91.6943 291.137 91.6745C291.032 91.6547 290.924 91.6558 290.82 91.6776C290.715 91.6994 290.616 91.7416 290.528 91.8017C290.44 91.8618 290.365 91.9387 290.306 92.028C290.248 92.1172 290.208 92.2171 290.188 92.3219C289.216 95.474 285.707 96.6889 283.604 93.7044C282.944 92.7807 281.831 93.3692 282.146 94.3947Z" fill="#191919"/>
<path d="M281.609 87.8211C282.112 87.9468 281.809 87.8511 282.972 88.1743C283.082 88.1802 283.19 88.2085 283.289 88.2575C283.388 88.3065 283.476 88.3752 283.547 88.4593C283.619 88.5434 283.672 88.6412 283.705 88.7467C283.737 88.8522 283.748 88.9632 283.736 89.073C283.724 89.1827 283.69 89.2888 283.635 89.3849C283.581 89.481 283.507 89.5649 283.42 89.6317C283.332 89.6984 283.231 89.7466 283.124 89.7731C283.017 89.7997 282.905 89.8042 282.796 89.7862L280.245 89.9997C279.93 89.9853 279.633 89.8503 279.415 89.6226C279.197 89.3949 279.075 89.092 279.074 88.7767C279.031 87.992 279.031 87.2054 279.074 86.4207C279.254 84.096 279.682 81.7973 280.351 79.5638C281.548 75.9728 283.557 75.8232 282.884 80.2002C282.741 81.0581 282.258 82.9753 281.911 85.3753C281.763 86.297 281.643 87.5837 281.609 87.8211Z" fill="#191919"/>
<path d="M287.596 74.2112C288.262 73.5212 289.164 73.1097 290.121 73.0601C291.078 73.0104 292.019 73.3264 292.752 73.9439C292.884 74.1153 293.079 74.2272 293.294 74.2549C293.508 74.2826 293.725 74.2238 293.897 74.0915C294.068 73.9593 294.18 73.7643 294.208 73.5496C294.235 73.3348 294.177 73.1178 294.044 72.9464C293.667 72.212 293.085 71.6021 292.369 71.1901C291.654 70.778 290.834 70.5812 290.009 70.6233C289.184 70.6654 288.389 70.9447 287.719 71.4275C287.049 71.9104 286.533 72.5763 286.232 73.3454C285.873 74.3928 286.8 75.0092 287.596 74.2112Z" fill="#191919"/>
<path d="M289.801 77.7424C290.9 77.7424 291.768 78.9115 291.768 80.3639C291.768 81.8162 290.9 82.9873 289.801 82.9873C288.702 82.9873 287.818 81.8162 287.818 80.3639C287.818 78.9115 288.704 77.7424 289.801 77.7424Z" fill="#191919"/>
<path d="M306.549 65.0023C306.015 64.7763 305.464 64.5929 304.901 64.4537C304.621 62.9914 303.992 61.6184 303.068 60.4517C299.746 50.6124 288.045 49.2797 277.781 51.4563C273.755 52.3101 268.534 54.9615 265.927 51.9869C265.796 51.8208 265.604 51.7126 265.394 51.6856C265.184 51.6586 264.972 51.7149 264.803 51.8424C264.634 51.9699 264.522 52.1586 264.49 52.368C264.459 52.5773 264.51 52.7907 264.634 52.9625C266.43 55.7874 269.488 56.1126 272.786 55.5321C275.036 55.1011 287.128 50.6343 295.991 55.4981C282.701 50.8259 266.487 61.6707 262.874 58.4807C262.791 58.4167 262.725 58.3332 262.682 58.2374C262.639 58.1417 262.62 58.0368 262.627 57.932C262.669 57.6384 262.614 57.339 262.47 57.0797C262.326 56.8205 262.1 56.6158 261.828 56.497C261.557 56.3783 261.253 56.3521 260.965 56.4225C260.677 56.4929 260.42 56.656 260.233 56.8867C259.17 57.9984 258.44 59.3853 258.124 60.8906C257.816 62.0165 257.786 63.2008 258.04 64.3405C258.293 65.4802 258.82 66.5409 259.577 67.4302C264.203 72.8686 274.471 71.5978 281.322 70.1055C286.232 69.0482 289.867 66.4447 295.816 71.2746C295.379 73.4519 295.602 75.7099 296.454 77.7604C298.272 81.3514 301.194 80.5194 303.806 81.6745C304.414 81.9579 304.938 82.3936 305.328 82.9394C307.654 85.7902 303.908 89.1119 300.56 89.5229C300.227 89.5594 299.92 89.7201 299.7 89.973C299.48 90.2259 299.363 90.5524 299.373 90.8875C299.373 93.9637 297.955 100.916 295.475 103.697C294.94 104.296 295.275 103.871 296.113 116.419C296.124 116.592 296.185 116.758 296.289 116.896C296.393 117.034 296.535 117.139 296.698 117.198L298.204 117.694C298.305 117.741 298.415 117.766 298.526 117.768C298.638 117.771 298.748 117.75 298.852 117.709C298.955 117.667 299.049 117.605 299.127 117.525C299.206 117.446 299.267 117.352 299.308 117.248C299.348 117.144 299.368 117.033 299.364 116.922C299.36 116.811 299.334 116.701 299.287 116.6C299.24 116.5 299.172 116.409 299.089 116.335C299.006 116.261 298.908 116.205 298.802 116.17L297.899 115.771C297.881 107.49 297.857 106.957 297.793 105.016C298.504 104.107 299.11 103.12 299.6 102.075C300.927 98.8588 301.758 95.459 302.062 91.9927C307.068 90.68 310.8 85.5488 307.467 81.5588C310.553 76.1484 312.271 67.5619 306.549 65.0023Z" fill="#191919"/>
<path d="M59.4562 149.888C59.4633 149.782 59.449 149.675 59.4143 149.575C59.3796 149.474 59.3251 149.381 59.2541 149.302C59.1831 149.223 59.097 149.159 59.0008 149.113C58.9047 149.068 58.8004 149.042 58.6942 149.038C52.3401 148.04 49.0144 147.873 49.2139 147.887C49.0393 147.874 48.864 147.897 48.6981 147.953C48.5322 148.009 48.379 148.097 48.2474 148.212C48.1157 148.328 48.0081 148.468 47.9309 148.625C47.8537 148.782 47.8084 148.953 47.7975 149.128L46.77 164.224C46.757 164.403 46.7798 164.583 46.8371 164.754C46.8943 164.924 46.9849 165.081 47.1035 165.217C47.2222 165.352 47.3665 165.462 47.5281 165.541C47.6897 165.62 47.8653 165.666 48.0448 165.676L57.579 166.261C57.9277 166.277 58.269 166.157 58.53 165.925C58.7909 165.693 58.9508 165.368 58.9755 165.02C59.2248 161.648 59.4961 149.383 59.4562 149.888ZM50.375 150.598L49.595 163.053L56.4518 163.513C56.747 159.793 57.3455 153.884 57.7445 150.65C55.5421 150.686 52.5695 150.724 50.375 150.598Z" fill="#191919"/>
<path d="M49.1201 149.211L58.6542 149.832L57.6607 164.928L48.1466 164.325L49.1201 149.211Z" fill="#023C47"/>
<path d="M122.013 80.8007H59.7695C59.0253 80.8007 58.4228 81.1379 58.4228 81.882V148.996C55.0812 148.479 52.1765 148.098 49.2159 147.887C49.0413 147.875 48.8661 147.897 48.7004 147.953C48.5346 148.009 48.3815 148.097 48.2499 148.213C48.1183 148.328 48.0107 148.468 47.9334 148.625C47.8561 148.782 47.8106 148.953 47.7994 149.127L47.3127 156.274C41.0204 155.821 35.8674 155.496 35.8674 155.496C35.6878 155.483 35.5076 155.505 35.337 155.563C35.1664 155.62 35.0089 155.711 34.8737 155.83C34.7386 155.949 34.6284 156.093 34.5496 156.255C34.4709 156.417 34.4251 156.593 34.415 156.772L32.6195 183.904C32.6035 184.267 32.7295 184.622 32.9709 184.894C33.2122 185.165 33.5499 185.332 33.9123 185.359L67.8432 187.449C68.1695 187.469 68.4902 187.358 68.7356 187.142C68.9811 186.926 69.1314 186.622 69.1539 186.296L70.5065 159.102C70.5136 158.996 70.4992 158.89 70.4644 158.789C70.4295 158.688 70.3749 158.596 70.3037 158.516C70.2325 158.437 70.1461 158.373 70.0498 158.328C69.9534 158.282 69.8489 158.257 69.7425 158.253C69.7425 158.253 64.1565 157.714 59.2966 157.255L59.3345 155.847C59.6637 155.956 55.2488 155.916 122.013 155.916C122.74 155.916 123.085 155.296 123.085 154.588V81.882C123.038 81.6137 122.911 81.3661 122.719 81.1728C122.528 80.9794 122.281 80.8495 122.013 80.8007ZM50.375 150.598C52.5934 150.713 55.5401 150.686 57.7445 150.65C57.2376 154.93 56.8066 159.218 56.4518 163.513L49.595 163.053L50.375 150.598ZM66.7919 184.874C64.5974 184.696 38.6624 182.925 35.4704 182.711L37.0464 158.297C38.9835 158.422 42.794 158.672 47.1431 158.921L46.782 164.224C46.769 164.403 46.7918 164.583 46.8491 164.754C46.9063 164.924 46.9969 165.081 47.1155 165.217C47.2341 165.352 47.3784 165.462 47.54 165.541C47.7016 165.62 47.8773 165.666 48.0568 165.676L57.5909 166.261C57.9396 166.277 58.281 166.156 58.5419 165.925C58.8029 165.693 58.9628 165.368 58.9874 165.02C58.9874 165.02 59.1291 162.484 59.2348 159.493C63.4243 159.655 68.0128 159.817 68.8108 159.837L66.7919 184.874ZM120.737 153.217H61.1241V83.2286C63.8692 83.2286 117.796 82.7518 121.197 82.698C121.164 87.5877 120.737 150.207 120.737 153.217Z" fill="#191919"/>
<path d="M72.2382 95.9787C73.904 96.252 76.6871 96.5134 78.0237 96.5991C81.7444 96.8146 97.5966 97.0301 99.7293 96.9981C104.607 96.9543 108.611 96.7009 108.412 96.7129C108.521 96.7202 108.632 96.7051 108.736 96.6686C108.84 96.6322 108.935 96.575 109.017 96.5006C109.098 96.4262 109.163 96.3361 109.209 96.2357C109.254 96.1354 109.279 96.0268 109.281 95.9167C109.284 95.8065 109.264 95.697 109.223 95.5947C109.182 95.4925 109.12 95.3996 109.043 95.3217C108.965 95.2438 108.872 95.1824 108.769 95.1414C108.667 95.1004 108.558 95.0805 108.447 95.0829C108.172 95.073 103.223 94.6161 99.7832 94.4645C94.9513 94.2012 80.1284 93.9558 78.0776 93.9857C75.6337 94.0256 72.0666 94.3847 72.2661 94.3568C72.0511 94.3531 71.8433 94.4349 71.6886 94.5844C71.5339 94.7339 71.4449 94.9387 71.4412 95.1538C71.4375 95.3688 71.5194 95.5766 71.6689 95.7313C71.8183 95.886 72.0231 95.975 72.2382 95.9787Z" fill="#191919"/>
<path d="M72.8008 109.337C74.7679 109.629 77.0063 109.856 78.5863 109.958C81.6207 110.133 97.8061 110.393 100.292 110.357C104.627 110.319 109.269 110.057 108.974 110.073C109.184 110.068 109.384 109.982 109.532 109.834C109.681 109.685 109.766 109.485 109.77 109.275C109.775 109.065 109.698 108.861 109.556 108.706C109.414 108.551 109.218 108.457 109.008 108.443C106.251 108.338 103.278 107.671 87.3204 107.446C81.1359 107.342 79.8132 107.215 75.7334 107.482C73.908 107.588 72.8267 107.711 72.8267 107.711C72.6111 107.708 72.403 107.79 72.2481 107.94C72.0932 108.09 72.0042 108.296 72.0008 108.511C71.9974 108.727 72.0797 108.935 72.2297 109.09C72.3798 109.245 72.5852 109.334 72.8008 109.337Z" fill="#191919"/>
<path d="M73.3634 122.688C75.0292 122.959 77.8122 123.22 79.1489 123.306C82.9095 123.526 98.5223 123.739 100.854 123.705C104.645 123.671 109.74 123.438 109.537 123.438C109.747 123.433 109.947 123.348 110.096 123.199C110.244 123.05 110.33 122.85 110.334 122.64C110.339 122.43 110.262 122.226 110.12 122.071C109.979 121.916 109.782 121.822 109.573 121.808C101.218 120.906 82.3469 120.647 79.2027 120.693C76.4097 120.739 73.1918 121.108 73.3913 121.092C73.286 121.087 73.181 121.104 73.0824 121.142C72.9838 121.179 72.8938 121.236 72.8176 121.308C72.7414 121.381 72.6807 121.469 72.6391 121.565C72.5975 121.662 72.5758 121.766 72.5754 121.872C72.573 121.977 72.5915 122.082 72.6299 122.18C72.6684 122.279 72.7259 122.368 72.7991 122.444C72.8724 122.52 72.96 122.581 73.0569 122.622C73.1537 122.664 73.2579 122.686 73.3634 122.688Z" fill="#191919"/>
<path d="M73.926 136.044C75.897 136.336 78.1374 136.563 79.7115 136.665C83.4321 136.88 99.2824 137.096 101.417 137.064C106.249 137.022 110.299 136.768 110.099 136.78C110.206 136.786 110.313 136.769 110.414 136.733C110.515 136.697 110.607 136.641 110.686 136.568C110.765 136.496 110.829 136.409 110.874 136.312C110.919 136.214 110.945 136.109 110.949 136.002C110.951 135.782 110.867 135.57 110.714 135.411C110.562 135.252 110.353 135.158 110.133 135.151C109.858 135.141 104.908 134.684 101.469 134.53C97.842 134.331 81.6845 133.886 76.8586 134.195C75.0332 134.301 73.9519 134.424 73.9519 134.424C73.7392 134.426 73.5355 134.51 73.3836 134.659C73.2317 134.808 73.1436 135.01 73.1379 135.222C73.1348 135.328 73.1527 135.434 73.1908 135.533C73.2288 135.632 73.2862 135.722 73.3596 135.799C73.4329 135.875 73.5208 135.936 73.618 135.978C73.7153 136.021 73.82 136.043 73.926 136.044Z" fill="#191919"/>
<path d="M104.461 47.8054C104.461 49.0509 104.947 50.2454 105.811 51.1262C106.675 52.0069 107.846 52.5017 109.068 52.5017C110.29 52.5017 111.461 52.0069 112.325 51.1262C113.189 50.2454 113.674 49.0509 113.674 47.8054C113.674 46.5599 113.189 45.3654 112.325 44.4847C111.461 43.604 110.29 43.1092 109.068 43.1092C107.846 43.1092 106.675 43.604 105.811 44.4847C104.947 45.3654 104.461 46.5599 104.461 47.8054Z" fill="#023C47"/>
<path d="M130.919 71.5759C125.912 43.8254 126.381 45.3217 125.993 45.0424C125.606 44.7631 126.251 44.7671 114.821 46.3292C114.525 45.0665 113.775 43.957 112.713 43.2126C111.651 42.4681 110.352 42.1409 109.064 42.2933C108.312 42.251 107.56 42.3611 106.852 42.6169C106.144 42.8727 105.495 43.2691 104.944 43.7821C104.393 44.295 103.951 44.9141 103.645 45.6021C103.34 46.2901 103.176 47.0328 103.165 47.7855C103.149 48.2204 104.4 47.7736 92.5194 49.7805C92.1651 49.8407 91.8488 50.0384 91.6396 50.3306C91.4304 50.6228 91.345 50.9858 91.4022 51.3406L95.5917 77.4053C95.6146 77.5844 95.674 77.7569 95.7661 77.9123C95.8581 78.0676 95.981 78.2025 96.1271 78.3086C96.2732 78.4148 96.4395 78.4899 96.6157 78.5294C96.7919 78.5689 96.9743 78.572 97.1518 78.5384L129.896 72.9923C130.217 72.9356 130.503 72.756 130.695 72.4915C130.886 72.2271 130.966 71.8987 130.919 71.5759ZM106.57 45.2598C107.196 44.5032 108.092 44.0201 109.068 43.9132C109.544 43.9826 110.001 44.147 110.412 44.3964C110.824 44.6459 111.18 44.9755 111.462 45.3656C111.9 45.8505 112.191 46.4498 112.301 47.0936C112.412 47.7374 112.337 48.3994 112.087 49.0026C111.836 49.6058 111.419 50.1255 110.885 50.5012C110.35 50.877 109.72 51.0933 109.068 51.1251C108.405 51.0901 107.765 50.8697 107.22 50.489C106.676 50.1083 106.25 49.5826 105.99 48.9715C105.729 48.3605 105.646 47.6887 105.749 47.0326C105.851 46.3764 106.136 45.7623 106.57 45.2598ZM98.0555 75.6337L94.3129 52.2623C96.1563 51.965 99.7413 51.3646 103.841 50.6503C104.423 51.7781 105.353 52.6887 106.492 53.2476C107.632 53.8066 108.921 53.9842 110.169 53.7543C111.417 53.5244 112.558 52.8991 113.423 51.9709C114.289 51.0426 114.833 49.8606 114.975 48.5995C119.147 47.7895 124.004 46.8319 124.824 46.6643L128.278 70.724C126.153 71.0612 101.188 75.113 98.0555 75.6337Z" fill="#191919"/>
<path d="M180.263 94.8635C177.928 96.6357 175.843 98.7161 174.065 101.048C173.982 101.121 173.914 101.21 173.866 101.31C173.819 101.41 173.791 101.519 173.787 101.63C173.782 101.74 173.799 101.851 173.838 101.955C173.877 102.058 173.937 102.153 174.014 102.233C174.09 102.313 174.182 102.377 174.284 102.421C174.386 102.464 174.496 102.487 174.607 102.487C174.717 102.487 174.827 102.465 174.929 102.422C175.031 102.378 175.123 102.315 175.2 102.235C177.539 100.464 179.62 98.3775 181.385 96.0345C182.005 95.063 181.149 94.2989 180.263 94.8635Z" fill="#191919"/>
<path d="M189.027 101.507C187.31 103.96 185.911 106.621 184.864 109.427C184.811 109.521 184.777 109.626 184.764 109.733C184.752 109.841 184.761 109.95 184.792 110.054C184.822 110.158 184.873 110.255 184.942 110.339C185.01 110.423 185.095 110.493 185.191 110.544C185.287 110.594 185.392 110.626 185.5 110.635C185.608 110.645 185.717 110.632 185.82 110.599C185.923 110.566 186.019 110.512 186.101 110.442C186.183 110.371 186.25 110.284 186.298 110.187C188.014 107.742 189.408 105.086 190.444 102.285C190.763 101.247 189.746 100.649 189.027 101.507Z" fill="#191919"/>
<path d="M197.488 104.076C197.038 106.76 196.99 109.495 197.347 112.192C197.339 112.301 197.353 112.411 197.389 112.515C197.425 112.619 197.481 112.714 197.555 112.796C197.628 112.877 197.717 112.943 197.817 112.989C197.916 113.035 198.024 113.061 198.134 113.064C198.243 113.068 198.353 113.05 198.455 113.01C198.557 112.971 198.65 112.911 198.729 112.834C198.808 112.758 198.87 112.666 198.913 112.565C198.955 112.464 198.977 112.356 198.977 112.246C199.41 109.567 199.452 106.839 199.1 104.148C198.925 103.085 197.752 103.005 197.488 104.076Z" fill="#191919"/>
<path d="M206.929 102.474C208.69 104.467 210.752 106.172 213.041 107.526C213.989 108.092 214.821 107.093 214.069 106.267C212.274 104.328 210.226 102.64 207.98 101.248C207.006 100.725 206.238 101.569 206.929 102.474Z" fill="#191919"/>
<path d="M212.351 95.9867C214.73 97.8703 217.468 99.2509 220.397 100.045C220.493 100.091 220.598 100.118 220.705 100.124C220.812 100.13 220.919 100.115 221.02 100.08C221.122 100.044 221.215 99.9893 221.295 99.9179C221.375 99.8465 221.44 99.76 221.486 99.6635C221.533 99.5669 221.56 99.4622 221.566 99.3552C221.572 99.2482 221.557 99.1411 221.521 99.0399C221.486 98.9388 221.431 98.8456 221.359 98.7657C221.288 98.6858 221.202 98.6207 221.105 98.5742C218.587 97.0959 215.97 95.7934 213.273 94.676C212.275 94.2331 211.589 95.2047 212.351 95.9867Z" fill="#191919"/>
<path d="M216.732 170.955C213.624 170.316 209.73 171.475 208.952 174.346C208.79 174.999 208.707 175.669 208.704 176.341C208.672 176.515 208.696 176.694 208.772 176.854C208.848 177.013 208.973 177.144 209.129 177.227C209.195 177.313 209.277 177.383 209.372 177.435C209.466 177.487 209.57 177.519 209.678 177.528C210.525 177.768 211.413 177.832 212.286 177.717C213.159 177.602 213.999 177.31 214.756 176.858C215.512 176.407 216.168 175.806 216.684 175.093C217.201 174.379 217.566 173.568 217.757 172.708C217.814 172.526 217.833 172.334 217.811 172.144C217.789 171.954 217.728 171.77 217.632 171.605C217.535 171.44 217.405 171.297 217.251 171.185C217.096 171.073 216.919 170.995 216.732 170.955Z" fill="#191919"/>
<path d="M216.852 187.609C216.772 186.971 216.788 186.661 216.453 186.422C216.118 186.183 215.816 186.384 215.106 186.352C214.596 186.262 214.117 186.045 213.713 185.72C213.31 185.395 212.995 184.973 212.799 184.493C212.602 184.014 212.531 183.493 212.59 182.978C212.65 182.463 212.838 181.972 213.139 181.55C213.229 181.405 213.289 181.243 213.313 181.075C213.338 180.906 213.328 180.734 213.283 180.569C213.238 180.404 213.159 180.251 213.052 180.118C212.945 179.985 212.812 179.876 212.66 179.797C207.36 177.05 201.339 181.283 201.339 187.609C201.289 188.71 201.457 189.809 201.834 190.844C202.211 191.879 202.789 192.829 203.536 193.64C204.282 194.45 205.181 195.105 206.181 195.566C207.182 196.028 208.264 196.286 209.365 196.327C210.444 196.292 211.505 196.032 212.479 195.565C213.454 195.098 214.32 194.434 215.024 193.614C215.728 192.794 216.254 191.837 216.569 190.803C216.883 189.77 216.98 188.682 216.852 187.609Z" fill="#191919"/>
<path d="M52.7191 311.423C49.2638 309.119 48.5556 305.416 46.377 302.19C43.3845 297.761 38.9337 294.306 37.4115 288.973C36.1167 284.418 37.4813 278.713 34.6644 274.621C29.2599 266.735 19.2311 262.944 16.46 253.067C14.3513 245.518 18.7104 238.625 16.7772 231.982C15.273 226.809 11.7638 222.484 10.7363 217.081C9.12438 208.559 14.9258 195.747 23.8654 193.249C36.003 189.857 40.3441 204.944 39.5102 214.087C39.1431 218.19 37.3157 224.217 38.6424 229.271C40.5396 236.552 48.6892 240.257 51.9131 247.006C53.7259 250.48 54.1749 254.506 53.172 258.294C52.3042 261.572 50.1954 265.506 51.3286 268.907C52.9246 273.655 61.0044 276.119 63.8752 281.416C67.4362 287.938 61.1819 291.906 61.2817 297.931C61.3874 302.573 66.1714 305.815 65.0203 310.776L52.7191 311.423Z" fill="#023C47"/>
<path d="M59.4682 309.813C57.9341 306.579 30.7103 238.703 29.7906 236.157C28.833 233.516 27.8933 230.877 27.0255 228.201C26.9955 228.099 26.9456 228.003 26.8786 227.92C26.8115 227.837 26.7287 227.768 26.6349 227.717C26.5411 227.666 26.4381 227.634 26.3319 227.623C26.2257 227.612 26.1184 227.622 26.0161 227.653C25.8105 227.716 25.6378 227.856 25.5348 228.045C25.4319 228.234 25.407 228.455 25.4654 228.662C28.4398 239.582 32.1579 250.286 36.5935 260.698C50.5685 295.064 52.753 301.103 58.0338 310.539C58.1315 310.728 58.2992 310.87 58.501 310.937C58.7028 311.003 58.9225 310.988 59.1131 310.894C59.3007 310.795 59.4426 310.627 59.5088 310.425C59.575 310.223 59.5605 310.004 59.4682 309.813Z" fill="#191919"/>
<path d="M66.6402 309.909C66.73 305.532 63.4163 302.148 63.2208 297.984C63.0971 295.327 64.9744 292.51 65.6846 290.004C66.5226 287.453 66.591 284.712 65.8815 282.122C65.172 279.532 63.7158 277.209 61.6946 275.441C58.2752 271.914 59.6757 265.252 61.5889 260.556C62.9535 257.209 65.7345 254.585 66.2133 250.865C67.4103 241.306 55.6398 234.613 70.6023 213.993C74.2691 208.924 71.1509 201.678 71.7175 196.026C72.6571 186.6 79.3723 178.041 85.6626 171.487C88.1783 168.846 91.0132 165.8 94.6401 164.736C102.808 162.342 105.112 174.057 106.085 179.673C106.335 181.107 106.512 182.58 106.636 184.05C108.481 204.98 98.9931 209.504 97.3513 218.867C96.0585 226.248 101.126 232.493 100.894 239.828C100.629 247.89 94.0196 252.921 89.4311 258.781C88.639 259.568 87.8879 260.396 87.1808 261.26C83.2466 267.587 88.5773 272.973 88.1902 279.459C87.9608 283.002 85.2137 285.5 84.3099 288.835C83.4062 292.077 84.9304 295.551 84.0267 298.828C82.698 303.684 76.8686 306.962 73.0242 309.903L66.6402 309.909Z" fill="#023C47"/>
<path d="M71.3983 308.307C72.8547 302.637 71.3604 298.112 72.0367 292.803C72.4517 289.278 73.8661 285.739 74.6941 281.995C77.1 270.689 71.0013 267.95 76.0407 255.682C79.0571 248.483 84.3159 241.303 84.3159 234.757C84.3498 229.325 81.91 224.01 82.7738 218.97C83.8391 212.638 89.459 207.643 91.8451 201.516C94.0675 195.836 91.855 188.84 94.8376 184.1C94.9558 183.918 94.9981 183.698 94.9551 183.485C94.9122 183.273 94.7876 183.086 94.6081 182.965C94.4253 182.851 94.2056 182.811 93.9944 182.854C93.7832 182.897 93.5966 183.02 93.473 183.196C89.8421 188.525 92.1304 195.19 89.8062 200.666C87.9808 204.972 84.6671 208.447 82.4247 212.503C77.8501 220.786 80.8885 225.795 81.5209 232.852C82.5962 243.71 69.9499 253.145 71.3863 267.048C71.9848 272.847 73.3454 275.239 72.0946 281.412C71.0498 285.071 70.2159 288.786 69.5968 292.54C69.1978 297.685 70.8497 302.956 69.8442 307.92C69.7929 308.126 69.8255 308.344 69.935 308.526C70.0444 308.708 70.2217 308.839 70.4277 308.89C70.6338 308.941 70.8519 308.909 71.0339 308.799C71.2159 308.69 71.347 308.513 71.3983 308.307Z" fill="#191919"/>
<path d="M76.0806 309.372C79.7294 306.679 84.4436 303.205 85.6825 298.671C86.5862 295.303 85.5588 291.848 86.4805 288.482C87.2246 285.771 88.9603 283.433 89.6167 280.65C89.9708 278.356 89.8348 276.013 89.2177 273.775C88.3139 269.256 95.3483 267.006 97.066 262.719C97.7738 260.202 98.2249 257.62 98.4126 255.012C100.178 244.949 106.574 242.982 110.373 237.133C113.668 232.048 112.593 225.925 121.624 220.443C122.439 219.976 123.316 219.63 124.23 219.415C129.934 218.069 132.539 224.748 131.671 229.496C130.979 233.253 127.508 236.654 127.482 240.429C127.464 242.944 128.828 245.267 129.467 247.659C131.155 253.879 127.725 259.984 122.556 263.746C119.119 266.262 115.29 268.389 113.413 272.428C111.464 276.592 112.846 281.805 112.296 286.232C112.221 288.224 111.528 290.144 110.313 291.724C107.761 294.33 103.42 294.631 100.248 296.189C97.5467 297.547 95.1652 299.464 93.2621 301.814C91.3589 304.163 89.9775 306.89 89.2097 309.815L76.0806 309.372Z" fill="#023C47"/>
<path d="M88.9104 295.995C90.3853 293.786 92.1689 291.8 94.2071 290.096C99.5737 284.845 98.1812 279.922 100.711 275.134C102.287 272.067 105.158 269.977 107.231 267.267C111.258 261.855 109.497 258.262 111.819 253.901C113.64 250.392 117.794 247.694 119.422 243.499C121.018 239.369 120.096 235.655 122.345 232.373C122.459 232.196 122.501 231.983 122.462 231.776C122.423 231.569 122.306 231.386 122.135 231.263C121.965 231.14 121.754 231.087 121.545 231.115C121.337 231.144 121.147 231.251 121.016 231.415C117.73 235.681 119.436 240.1 116.108 244.582C114.083 247.343 111.336 249.257 109.463 252.626C107.454 256.383 108.015 260.225 106.309 263.613C104.366 267.547 100.507 269.598 98.2829 273.871C96.268 277.779 96.3637 282.729 94.2251 286.08C92.3698 289.214 89.06 291.367 87.4421 295.329C87.3769 295.52 87.385 295.728 87.4648 295.912C87.5446 296.097 87.6904 296.246 87.8737 296.329C88.0571 296.412 88.2648 296.424 88.4565 296.362C88.6481 296.301 88.81 296.17 88.9104 295.995Z" fill="#191919"/>
<path d="M102.193 312.506C101.82 312.073 105.367 311.957 43.209 311.656C43.0072 311.66 42.8089 311.708 42.6277 311.797C42.4466 311.886 42.2871 312.014 42.1603 312.171C42.0336 312.328 41.9426 312.51 41.8939 312.706C41.8452 312.902 41.8399 313.106 41.8783 313.304L52.2264 363.093C52.294 363.397 52.4656 363.668 52.7114 363.858C52.9572 364.049 53.2619 364.148 53.573 364.139H92.3059C92.6085 364.132 92.8994 364.021 93.129 363.823C93.3586 363.626 93.5126 363.355 93.5648 363.057C102.973 309.711 102.554 312.917 102.193 312.506ZM96.7847 333.124C88.4057 332.697 59.2787 332.209 48.761 333.078L46.9177 324.217C58.8218 325.128 85.8202 324.616 98.5503 324.105L96.7847 333.124ZM94.682 343.887C86.8915 343.468 60.6572 343.039 51.0054 343.871L49.1381 334.894C60.1884 335.764 84.4496 335.345 96.4515 334.84L94.682 343.887ZM92.5952 354.612C89.6389 354.453 86.6816 354.313 83.7234 354.192C81.8641 354.14 61.6108 353.992 58.7759 354.086C57.3296 354.128 54.3869 354.351 53.2059 354.457L51.3925 345.733C56.9739 346.153 62.573 346.291 68.1684 346.146C84.6072 346.146 85.5588 346.034 94.3428 345.637C93.7574 348.628 93.1749 351.62 92.5952 354.612ZM54.6722 361.507L53.5949 356.32C61.8901 357.118 82.7319 356.813 92.252 356.362C91.7453 358.974 91.3882 360.829 91.2545 361.501L54.6722 361.507ZM98.8754 322.445C97.2136 322.379 89.0201 322.06 86.3808 322.014C83.9868 321.96 58.0139 321.924 54.381 322.032C52.2583 322.078 48.6433 322.305 46.5526 322.471L44.8728 314.391C49.1261 314.391 98.4904 313.897 100.563 313.861C100.426 314.541 99.7752 317.851 98.8754 322.437V322.445Z" fill="#191919"/>
<path d="M219.762 86.3209C216.654 82.8656 212.181 77.4551 209.361 74.4846C209.235 70.0397 208.938 65.2178 206.224 61.6567C205.125 60.3122 203.732 59.2379 202.153 58.5164C200.573 57.7949 198.849 57.4456 197.113 57.4951C197.149 56.1784 197.199 54.8578 197.199 53.5331C197.199 50.5087 196.601 38.8698 196.579 38.3711C196.311 35.4225 196.241 35.7656 195.994 33.996C195.994 33.7823 195.909 33.5773 195.758 33.4261C195.607 33.275 195.402 33.1901 195.188 33.1901C194.974 33.1901 194.769 33.275 194.618 33.4261C194.467 33.5773 194.382 33.7823 194.382 33.996C194.148 35.3016 194 36.6212 193.939 37.9461C193.951 44.0598 194.342 50.1669 195.108 56.2323C195.326 57.8283 195.408 57.551 195.08 57.5869C193.057 57.7609 191.096 58.3762 189.336 59.3895C187.575 60.4029 186.059 61.7896 184.892 63.4522C182.488 67.2427 183.062 71.915 183.031 76.2202C180.207 80.2259 177.616 84.3903 175.27 88.693C175.179 88.8622 175.135 89.0525 175.142 89.2444C175.149 89.4362 175.207 89.6228 175.31 89.7851C175.412 89.9473 175.556 90.0795 175.727 90.168C175.897 90.2565 176.088 90.2983 176.279 90.289C186.191 89.9159 190.705 90.4406 202.613 89.88C204.243 89.7742 215.07 88.8346 218.845 88.5872C219.098 88.568 219.341 88.4784 219.547 88.3285C219.752 88.1786 219.911 87.9743 220.007 87.7387C220.102 87.5031 220.13 87.2455 220.087 86.995C220.043 86.7445 219.931 86.511 219.762 86.3209ZM186.514 80.8546C186.314 81.1598 186.115 81.4531 185.893 81.7583C185.311 82.4706 184.05 83.895 183.254 83.4242C182.518 82.9673 183.16 81.086 183.627 80.288C183.827 79.9509 184.026 79.6317 184.245 79.3125C184.87 78.4247 186.219 77.118 187.038 77.7165C187.394 77.9718 187.683 79.1309 186.514 80.8546ZM192.782 64.1225C191.517 65.1235 190.534 66.4359 189.929 67.931C189.252 69.7727 188.794 71.6878 188.565 73.6367C188.395 75.2706 188.499 75.9808 187.661 76.0467C186.823 76.1125 186.663 75.0492 186.492 73.7245C186.161 71.5431 186.42 69.3129 187.243 67.2657C188.065 65.2185 189.422 63.4291 191.17 62.0836C192.152 61.5231 194.604 60.6752 194.961 61.7465C195.2 62.5445 194.504 62.5904 192.782 64.1225Z" fill="#191919"/>
<path d="M269.955 197.514C268.397 197.496 266.801 197.532 265.243 197.373C264.075 190.372 259.447 176.972 256.684 167.09C255.527 162.939 254.787 156.916 252.822 155.591C250.811 154.671 248.586 154.321 246.39 154.582C243.058 154.564 239.567 154.334 236.255 154.121C243.004 136.012 260.848 121.403 280.179 118.985C282.499 123.54 284.255 128.342 286.563 132.912C292.375 127.703 297.735 122.015 303.556 116.824C312.999 118.171 322.816 120.455 331.161 125.239C348.614 135.304 360.911 156.585 361.513 176.71C356.907 176.427 352.175 176.782 347.568 176.888C342.253 177.012 336.937 176.764 331.622 176.942C327.706 177.101 323.826 177.686 319.91 177.969C315.427 178.288 312.043 180.822 308.251 183.142C305.398 184.88 302.403 186.368 299.499 188.032C294.465 182.877 284.951 182.061 278.838 185.73C274.644 188.545 271.455 192.622 269.731 197.371L269.955 197.514Z" fill="#023C47"/>
<path d="M273.616 141.08C273.963 140.802 277.352 137.888 281.659 134.666C281.825 134.536 282.035 134.476 282.244 134.497C282.453 134.518 282.647 134.619 282.784 134.778C282.92 134.938 282.99 135.145 282.979 135.355C282.968 135.565 282.876 135.763 282.723 135.907C279.677 139.114 276.465 142.16 273.101 145.032C272.901 145.195 272.66 145.299 272.404 145.331C272.148 145.363 271.889 145.321 271.655 145.212C271.422 145.103 271.224 144.93 271.085 144.713C270.946 144.496 270.871 144.244 270.868 143.986C270.868 143.29 270.906 130.554 271.152 127.863C271.441 124.625 271.351 123.522 272.303 123.522C273.161 123.488 273.22 124.256 273.544 127.863C273.815 131.803 273.616 137.169 273.616 141.08Z" fill="#191919"/>
<path d="M299.12 143.142C302.621 135.861 306.525 128.781 310.814 121.934C310.918 121.743 311.092 121.602 311.3 121.541C311.508 121.479 311.731 121.503 311.922 121.606C312.112 121.71 312.253 121.885 312.314 122.092C312.376 122.3 312.352 122.523 312.249 122.714C311.65 123.971 302.114 143.248 300.714 146.031C300.616 146.223 300.474 146.388 300.301 146.515C300.127 146.641 299.926 146.725 299.714 146.76C299.502 146.794 299.284 146.778 299.08 146.713C298.875 146.648 298.688 146.535 298.535 146.384C294.976 142.763 295.06 143.282 288.099 136.144C287.935 136.008 287.831 135.812 287.811 135.599C287.791 135.386 287.856 135.174 287.992 135.01C288.129 134.845 288.325 134.742 288.537 134.722C288.75 134.702 288.962 134.767 289.127 134.903C292.75 137.275 296.101 140.038 299.12 143.142Z" fill="#191919"/>
<path d="M294.733 160.756C296.293 160.728 303.692 160.23 305.258 160.12C310.645 159.561 311.088 159.671 311.106 158.773C311.125 157.71 309.526 157.732 306.693 157.576C302.598 157.557 298.505 157.752 294.431 158.161C291.361 158.626 290.719 158.682 290.657 159.436C290.611 160.593 293.566 160.756 294.733 160.756Z" fill="#191919"/>
<path d="M317.775 162.352C317.739 163.565 318.26 170.133 318.465 171.583C319.004 175.348 319.245 176.058 320.041 175.994C320.839 175.962 321.017 175.22 321.017 171.406C321.017 169.794 320.564 163.328 320.36 162.157C319.614 157.672 317.775 158.089 317.775 162.352Z" fill="#191919"/>
<path d="M324.029 180.176C323.946 179.977 323.787 179.819 323.588 179.736C323.389 179.653 323.166 179.652 322.966 179.733L321.071 180.437C321.13 179.338 320.951 178.093 319.844 178.083C318.298 178.067 318.319 180.078 318.304 181.492C316.508 182.185 301.615 188.397 298.868 189.472C287.834 182.508 277.58 185.522 272.786 195.87C272.685 196.058 272.663 196.279 272.725 196.483C272.786 196.687 272.927 196.859 273.115 196.96C273.303 197.06 273.523 197.082 273.728 197.021C273.932 196.959 274.103 196.819 274.204 196.63C275.245 195.077 276.471 193.655 277.855 192.397C283.8 186.745 291.098 187.551 297.947 192.132C298.13 192.253 298.34 192.329 298.559 192.353C298.778 192.378 298.999 192.351 299.205 192.273C310.361 187.821 315.149 185.069 323.586 181.233C323.685 181.193 323.775 181.134 323.851 181.059C323.926 180.984 323.987 180.895 324.028 180.796C324.069 180.698 324.09 180.593 324.09 180.486C324.091 180.38 324.07 180.274 324.029 180.176Z" fill="#191919"/>
<path d="M356.713 177.893C356.814 179.732 356.755 181.575 356.538 183.404C355.678 192.162 351.281 198.135 345.587 200.874C342.427 202.208 339.111 203.137 335.718 203.637C335.511 203.682 335.329 203.805 335.211 203.981C335.093 204.157 335.047 204.371 335.084 204.58C335.12 204.789 335.236 204.975 335.407 205.1C335.578 205.225 335.791 205.279 336.001 205.251C340.015 204.736 342.724 204.928 346.702 203.23C351.287 200.945 354.944 197.149 357.055 192.482C359.166 187.815 359.603 182.562 358.291 177.61C358.274 177.506 358.237 177.407 358.181 177.318C358.125 177.229 358.053 177.151 357.967 177.09C357.881 177.029 357.784 176.986 357.682 176.962C357.579 176.939 357.473 176.936 357.37 176.954C357.159 176.994 356.973 177.114 356.85 177.29C356.727 177.465 356.678 177.682 356.713 177.893Z" fill="#191919"/>
<path d="M281.847 196.493C282.996 195.766 284.22 195.164 285.498 194.697C286.935 194.26 288.425 194.022 289.927 193.989C291.164 194.045 291.902 194.276 292.121 193.51C292.468 192.467 290.306 191.896 289.232 191.687C287.648 191.516 286.045 191.667 284.519 192.129C282.994 192.592 281.577 193.358 280.355 194.38C279.884 194.819 278.328 196.419 278.99 197.161C279.509 197.778 281.159 196.882 281.847 196.493Z" fill="#191919"/>
<path d="M181.69 217.993C181.339 220.431 179.581 230.378 179.208 232.914C178.163 240.054 169.632 308.624 169.287 311.654C169.26 311.869 169.32 312.087 169.453 312.258C169.586 312.43 169.781 312.542 169.996 312.57C170.211 312.598 170.429 312.54 170.601 312.408C170.774 312.277 170.887 312.083 170.917 311.868C171.378 308.855 183.072 220.668 183.286 218.206C183.314 217.995 183.257 217.781 183.128 217.611C182.998 217.441 182.806 217.33 182.595 217.302C182.383 217.273 182.169 217.33 181.999 217.46C181.829 217.59 181.718 217.781 181.69 217.993Z" fill="#191919"/>
<path d="M167.821 358.341C168.693 357.238 169.354 355.982 169.77 354.638C171.33 350.389 172.551 346.022 173.421 341.579C173.436 341.473 173.471 341.371 173.526 341.279C173.58 341.187 173.652 341.107 173.738 341.043C173.823 340.979 173.921 340.932 174.024 340.905C174.128 340.879 174.235 340.873 174.341 340.888C174.447 340.903 174.549 340.939 174.641 340.993C174.733 341.048 174.813 341.12 174.878 341.205C174.942 341.291 174.989 341.388 175.015 341.491C175.042 341.595 175.048 341.703 175.033 341.809C174.675 346.44 173.753 351.009 172.285 355.416C171.813 357 171.077 358.492 170.107 359.829C168.152 362.154 165.7 360.99 164.543 358.447C163.863 356.44 163.551 354.328 163.621 352.21C163.421 346.809 163.554 341.4 164.02 336.015C164.018 335.801 164.1 335.595 164.25 335.443C164.399 335.29 164.603 335.203 164.817 335.2C165.031 335.198 165.237 335.28 165.39 335.43C165.543 335.579 165.63 335.783 165.632 335.997C166.945 348.741 165.806 353.276 166.829 356.729C166.94 357.374 167.295 357.951 167.821 358.341ZM167.803 358.359C167.751 358.341 167.697 358.341 167.715 358.395C167.733 358.449 167.769 358.403 167.803 358.359Z" fill="#191919"/>
<path d="M245.125 170.037C245.939 173.788 245.376 171.888 246.487 176.06C247.746 180.547 251.126 191.264 251.982 193.762C253.095 196.972 254.206 199.643 255.525 202.739C255.598 202.944 255.749 203.111 255.945 203.204C256.141 203.297 256.366 203.309 256.57 203.236C256.775 203.163 256.942 203.012 257.035 202.816C257.128 202.62 257.14 202.395 257.067 202.191C255.696 197.528 256.016 198.047 254.074 191.647C248.504 172.912 248.271 173.181 246.649 169.534C246.616 169.434 246.564 169.342 246.495 169.262C246.426 169.182 246.342 169.117 246.248 169.069C246.154 169.022 246.051 168.993 245.946 168.985C245.841 168.978 245.736 168.991 245.636 169.024C245.536 169.057 245.443 169.109 245.363 169.178C245.283 169.247 245.218 169.331 245.17 169.425C245.123 169.519 245.095 169.621 245.087 169.726C245.079 169.831 245.092 169.937 245.125 170.037Z" fill="#191919"/>
<path d="M274.785 240.646C272.668 240.512 270.569 240.172 268.518 239.631C267.321 239.232 267.72 238.035 268.606 238.035C270.58 238.05 272.544 238.31 274.453 238.809C274.075 236.729 273.676 234.653 273.256 232.58L265.133 232.072C265.434 234.322 265.452 236.624 265.731 238.893C254.613 235.867 243.19 234.102 231.677 233.63C225.474 233.231 218.937 233.151 213.692 237.103C206.729 242.348 205.931 252.5 203.982 260.315C201.023 272.167 199.836 284.712 198.047 296.797C196.601 306.709 194.775 316.524 193.442 326.455C189.452 324.488 186.999 322.864 181.329 320.123C177.445 318.294 168.517 314.998 164.172 314.701C157.281 314.248 155.954 319.429 160.325 325.049C161.374 326.328 162.543 327.503 163.817 328.558C169.256 333.064 175.247 336.858 181.646 339.85C187.513 342.802 194.54 346.96 201.065 346.495C207.132 346.008 209.843 341.525 208.898 335.868C209.588 336.189 210.282 336.502 210.98 336.805C213.586 344.072 218.097 350.505 224.042 355.43C226.697 357.547 225.931 363.714 230.561 365.743C232.003 366.457 233.595 366.815 235.204 366.788C237.646 366.471 238.292 364.859 238.771 362.473C239.148 360.813 239.768 353.146 239.78 352.426C239.852 350.662 240 346.906 238.783 346.882C237.925 346.864 237.7 347.696 237.169 352.197C237.053 353.062 236.796 355.389 236.592 357.583C235.117 354.771 233.493 352.041 231.724 349.404C231.637 349.261 231.507 349.149 231.353 349.084C228.485 343.724 226.131 338.103 224.323 332.298C225.583 333.997 227.347 335.254 229.364 335.889C230.241 336.055 231.149 335.887 231.908 335.419C236.337 339.615 239.761 344.756 241.927 350.459C243.665 320.285 244.141 289.412 248.891 259.509C258.954 261.069 269.073 263.389 279.313 263.698C277.406 256.099 276.167 248.359 274.785 240.646ZM182.867 337.489C176.693 334.546 170.903 330.857 165.626 326.505C165.227 326.154 165.463 326.453 164.605 325.124C164.459 324.922 164.365 324.687 164.33 324.44C164.295 324.193 164.321 323.941 164.405 323.706C164.553 323.391 164.972 323.307 165.52 323.263C168.599 322.97 178.089 329.42 180.581 331.291C182.623 333.228 184.822 334.993 187.154 336.57C190.163 338.166 193.351 337.93 196.331 338.591C198.739 339.103 204.06 340.785 204.734 343.145C199.202 346.868 188.828 340.602 182.867 337.489ZM206.061 341.888C204.682 338.978 200 337.061 196.924 336.199C194.929 335.684 192.724 335.542 190.669 335.03C189.165 334.678 187.771 333.959 186.612 332.939C183.709 330.097 180.479 327.611 176.99 325.531C174.18 323.69 171.174 322.168 168.026 320.995C165.594 320.352 162.839 320.881 162.265 323.06C160.669 320.963 159.444 318.044 162.065 317.521C164.613 317.003 168.629 318.276 171.031 319.08C182.492 322.92 180.607 322.846 191.122 327.514C191.571 327.714 195.773 329.474 196.259 329.491C199.88 331.241 203.407 333.188 207.018 334.962C207.345 336.12 207.429 337.333 207.264 338.525C207.099 339.717 206.69 340.862 206.061 341.888ZM230.382 350.625C230.465 350.771 230.597 350.884 230.755 350.944C232.327 353.715 233.893 356.929 235.184 359.855C236.995 363.817 235.944 365.268 231.641 363.311C228.423 361.86 229.221 356.099 225.722 353.3C218.281 347.162 213.341 338.517 211.83 328.991C211.367 326.363 211.385 323.674 211.884 321.053C212.132 320.201 212.505 319.387 213.48 319.616C220.074 321.244 222.508 339.052 230.382 350.623V350.625ZM216.914 318.423C218.647 310.527 220.515 302.663 222.352 294.796C222.438 305.498 222.575 316.199 222.763 326.902C222.563 326.706 222.321 326.558 222.055 326.471C221.02 323.411 219.255 320.649 216.914 318.423ZM244.365 254.029C240.31 252.873 235.993 253.028 232.032 254.472C225.57 257.187 223.733 264.365 223.03 271.339C222.699 274.775 222.735 278.228 222.162 286.471C222.159 286.682 222.074 286.883 221.925 287.032C221.776 287.181 221.575 287.266 221.364 287.269C221.258 287.271 221.153 287.252 221.054 287.213C220.955 287.174 220.866 287.116 220.79 287.041C220.714 286.967 220.654 286.878 220.613 286.78C220.572 286.683 220.55 286.577 220.55 286.471C219.493 273.943 219.332 256.482 231.076 252.079C235.59 250.607 240.474 250.748 244.895 252.479C245.101 252.549 245.27 252.698 245.366 252.893C245.461 253.088 245.476 253.313 245.405 253.519C245.335 253.724 245.186 253.894 244.991 253.989C244.795 254.085 244.57 254.099 244.365 254.029Z" fill="#191919"/>
<path d="M249.458 272.405C250.682 273.646 252.108 274.67 253.675 275.433C262.033 279.325 274.952 276.829 279.668 276.391C279.885 276.38 280.09 276.285 280.239 276.127C280.388 275.968 280.469 275.758 280.466 275.541C280.464 275.432 280.44 275.325 280.395 275.226C280.351 275.127 280.287 275.037 280.208 274.963C280.128 274.889 280.035 274.831 279.933 274.793C279.831 274.755 279.723 274.738 279.614 274.743C268.786 274.344 262.986 276.017 254.667 273.041C253.213 272.522 251.803 271.888 250.45 271.146C250.283 271.014 250.07 270.954 249.859 270.979C249.648 271.005 249.456 271.112 249.324 271.279C249.193 271.446 249.133 271.659 249.158 271.87C249.183 272.081 249.291 272.273 249.458 272.405Z" fill="#191919"/>
<path d="M388.791 344.883C388.047 341.074 368.266 222.168 367.644 215.954L376.669 215.928C378.05 215.901 379.364 215.334 380.331 214.348C381.298 213.363 381.839 212.037 381.839 210.656C381.839 209.276 381.298 207.95 380.331 206.964C379.364 205.979 378.05 205.411 376.669 205.384C373.533 205.363 337.966 205.273 296.696 205.175C296.347 201.155 291.908 200.445 287.918 199.87C279.452 198.707 270.925 198.041 262.382 197.875C260.716 193.686 259.245 189.373 257.881 185.03C251.513 164.736 252.391 163.364 250.015 161.552C247.838 159.849 251.264 160.79 171.715 159.48C170.922 159.468 170.138 159.653 169.433 160.017C168.729 160.381 168.125 160.913 167.675 161.566C167.225 162.219 166.943 162.974 166.854 163.762C166.765 164.55 166.871 165.348 167.164 166.085C171.027 175.777 180.082 200.299 181.038 202.727C181.076 202.828 181.134 202.921 181.208 203C181.282 203.079 181.371 203.142 181.47 203.187C181.569 203.231 181.675 203.256 181.784 203.259C181.892 203.262 182 203.244 182.101 203.206C182.202 203.168 182.295 203.11 182.374 203.035C182.453 202.961 182.516 202.872 182.56 202.773C182.605 202.675 182.63 202.568 182.633 202.46C182.636 202.352 182.618 202.244 182.58 202.143C178.204 189.823 173.815 177.509 169.413 165.199C169.276 164.837 169.231 164.447 169.28 164.064C169.33 163.68 169.473 163.315 169.697 162.999C169.921 162.684 170.219 162.429 170.565 162.256C170.911 162.083 171.294 161.997 171.681 162.007C178.041 162.149 236.425 163.069 247.074 163.264C247.544 163.277 247.998 163.438 248.37 163.725C248.743 164.012 249.014 164.409 249.147 164.86C252.261 176.645 255.966 188.265 260.249 199.677C260.351 199.91 260.516 200.109 260.726 200.253C260.936 200.397 261.182 200.479 261.436 200.491C269.669 200.658 279.72 200.984 287.678 201.873C290.459 202.155 294.499 202.39 295.04 205.171C153.925 204.838 162.484 204.678 160.888 205.333C159.834 205.77 158.933 206.51 158.299 207.459C157.666 208.408 157.327 209.524 157.327 210.665C157.327 211.807 157.666 212.922 158.299 213.871C158.933 214.82 159.834 215.56 160.888 215.998C162.398 216.618 159.432 216.455 203.062 216.355C200.704 226.452 180.198 313.462 179.575 315.572C179.513 315.781 179.536 316.006 179.638 316.199C179.741 316.391 179.915 316.535 180.124 316.6C180.331 316.66 180.553 316.636 180.742 316.533C180.932 316.43 181.072 316.256 181.133 316.049C185.722 301.623 200.842 240.239 204.758 216.351C230.154 216.293 263.295 216.213 293.709 216.14C294.507 222.035 297.605 248.315 300.588 273.795C296.286 273.923 292.006 274.441 287.798 275.343C287.586 275.371 287.395 275.483 287.265 275.652C287.135 275.822 287.078 276.036 287.107 276.248C287.135 276.46 287.246 276.651 287.416 276.781C287.586 276.911 287.8 276.967 288.011 276.939C290.511 276.79 293.839 276.921 300.907 276.526C303.487 298.567 305.915 319.419 306.615 325.238C307.343 331.167 310.248 349.789 307.235 356.53C306.758 357.593 306.174 358.355 305.24 358.389C304.478 358.407 303.912 357.791 303.415 357.078C301.42 354.315 299.313 345.625 298.541 342.283C295.008 327.281 275.18 225.079 273.382 217.173C273.359 217.069 273.316 216.971 273.254 216.884C273.193 216.798 273.116 216.724 273.026 216.667C272.936 216.61 272.837 216.571 272.732 216.553C272.627 216.535 272.52 216.537 272.417 216.56C272.313 216.584 272.215 216.627 272.128 216.688C272.041 216.749 271.967 216.827 271.91 216.916C271.853 217.006 271.815 217.106 271.797 217.211C271.778 217.315 271.781 217.422 271.804 217.526C272.736 222.043 294.645 337.695 295.848 342.904C296.682 346.429 297.603 349.92 298.719 353.304C299.822 356.717 301.747 361.216 305.328 361.118C309.729 360.971 310.838 355.133 311.157 350.754C311.806 341.918 310.822 336.709 303.213 276.385C310.375 275.894 322.712 274.589 325.314 267.902C326.359 265.298 325.653 262.358 322.09 259.505C321.922 259.376 321.711 259.316 321.501 259.34C321.29 259.363 321.097 259.467 320.962 259.63C320.826 259.792 320.759 260.001 320.775 260.212C320.79 260.423 320.887 260.62 321.045 260.762C323.534 262.946 324.037 265.121 323.153 266.964C320.604 272.185 308.67 273.25 302.868 273.647C299.792 249.283 296.56 224.05 295.381 216.146L352.849 216.004C354.245 222.615 381.377 344.282 381.932 346.772C382.28 348.505 382.79 350.202 383.454 351.839C384.068 353.045 384.767 354.206 385.545 355.313C385.834 355.702 386.263 355.963 386.742 356.039C388.252 356.187 389.222 353.723 389.417 352.193C389.583 349.738 389.371 347.273 388.791 344.883ZM163.092 213.714C162.284 213.714 161.509 213.392 160.937 212.821C160.365 212.249 160.044 211.474 160.044 210.665C160.044 209.857 160.365 209.081 160.937 208.51C161.509 207.938 162.284 207.617 163.092 207.617C169.646 207.617 226.492 207.495 279.916 207.37C279.319 208.373 279.016 209.524 279.04 210.691C279.063 211.859 279.413 212.996 280.049 213.975C227.02 213.843 170.544 213.714 163.092 213.714ZM283.116 213.983C280.921 211.01 281.859 209.716 282.794 207.364C329.691 207.254 373.188 207.146 376.673 207.122C377.143 207.116 377.61 207.203 378.047 207.378C378.483 207.553 378.881 207.813 379.217 208.142C379.553 208.471 379.82 208.864 380.003 209.297C380.187 209.73 380.283 210.195 380.286 210.665C380.274 211.615 379.887 212.521 379.211 213.188C378.535 213.854 377.623 214.227 376.673 214.226C373.306 214.21 329.96 214.097 283.118 213.983H283.116ZM386.698 352.077C384.611 348.6 384.232 343.652 383.225 338.752C381.902 332.261 356.999 226.743 354.509 215.99L365.984 215.96C367.817 238.134 385.032 339.891 386.108 345.416C386.673 347.588 386.874 349.839 386.7 352.077H386.698Z" fill="#191919"/>
<path d="M279.202 279.255C279.202 279.255 279.876 305.48 280.199 318.485C272.331 318.884 262.958 320.38 257.943 327.064C255.637 330.38 254.554 334.395 254.878 338.421C254.984 339.538 255.357 342.072 256.933 342.126C258.244 342.162 258.705 340.37 258.928 339.397C259.654 336.243 259.353 333.354 261.604 330.696C266.158 325.364 273.795 323.876 280.492 323.538C280.798 331.431 280.654 329.683 281.183 336.775C281.118 338.536 281.459 340.287 282.18 341.894C283.792 344.41 285.705 342.445 286.148 340.177C287.176 334.896 286.378 328.747 286.148 323.379C287.69 323.469 289.23 323.255 290.79 323.451C290.348 321.767 289.851 320.119 289.408 318.435C288.398 318.311 287.353 318.276 286.326 318.206C285.572 310.499 285.324 302.751 285.582 295.012C285.582 295.012 282.607 283.192 279.202 279.255Z" fill="#191919"/>
<path d="M305.123 320.993C301.838 319.547 298.309 318.734 294.723 318.599C295.235 320.195 295.696 321.805 296.119 323.435C299.469 323.86 303.136 323.967 306.094 325.829C305.695 324.163 305.42 322.463 305.083 320.779L305.123 320.993Z" fill="#191919"/>
<path d="M310.894 329.116C312.523 330.124 313.717 331.703 314.242 333.545C314.641 335.476 314.042 338.914 316.51 339.676C319.01 340.456 318.407 335.371 318.176 334.236C317.758 332.121 316.885 330.123 315.618 328.38C314.352 326.636 312.721 325.188 310.84 324.137C310.894 325.908 311.159 327.68 311.301 329.452L310.894 329.116Z" fill="#191919"/>
</svg>
